<svg width="32" height="41" viewBox="0 0 32 41" fill="none" xmlns="http://www.w3.org/2000/svg">
<g clip-path="url(#clip0_6524_35509)">
<path d="M12.4015 33.0786C12.2705 33.8884 14.1377 34.1372 20.3549 34.1641C26.9362 34.1883 28.3889 33.9541 28.2053 32.9872C27.9364 31.6606 12.647 31.7745 12.4015 33.0786Z" fill="#31F194"/>
<path d="M10.1606 4.104C7.71569 3.88575 7.3639 4.27681 5.2898 9.50161C3.1419 14.8958 2.94156 15.9577 3.91911 16.4439C5.69522 17.3183 6.72184 16.0721 9.71129 9.53251C11.9141 4.70647 11.9652 4.26508 10.1606 4.104Z" fill="#31F194"/>
<path d="M22.9301 13.7159C21.1741 13.5357 20.5026 13.8279 18.2442 15.7269C11.5664 21.3857 6.34746 24.8981 9.77242 25.1803C11.1695 25.305 12.5194 24.3811 20.5507 18.0216C24.9737 14.4851 25.2777 13.9724 22.9301 13.7159Z" fill="#31F194"/>
</g>
<defs>
<clipPath id="clip0_6524_35509">
<rect width="20.0251" height="36.0452" fill="white" transform="translate(0 7.32715) rotate(-21.4642)"/>
</clipPath>
</defs>
</svg>
