<svg width="196" height="8" viewBox="0 0 196 8" fill="none" xmlns="http://www.w3.org/2000/svg">
<path d="M28.1679 0.591568C27.2757 0.95464 25.4276 2.09972 24.0894 3.10515C20.4251 5.89801 19.8834 5.95387 17.0157 3.91508C11.6626 0.0888546 3.95162 -0.0787212 0.956453 3.57993C-1.62449 6.68001 1.46627 8.32781 4.90753 5.67458C8.57184 2.85379 10.8979 2.71415 14.4347 5.14394C19.9153 8.91431 24.185 8.94224 28.7733 5.28358C32.7881 2.07179 34.5406 1.7925 36.3887 4.05472C38.0137 6.03766 38.6896 7.7349 40.5018 6.14645C46.5426 1.38162 32.6607 -1.25172 28.1679 0.591568Z" fill="#D8ADFB"/>
<path d="M67.0465 0.424838C66.1582 0.796081 64.3181 1.96693 62.9856 2.99499C59.3371 5.85071 58.7977 5.90782 55.9424 3.82315C50.6123 -0.0891892 42.9346 -0.260536 39.9523 3.48046C37.3825 6.65031 40.46 8.33518 43.8864 5.62225C47.5349 2.73797 49.8509 2.59519 53.3725 5.07966C58.8294 8.93489 63.0807 8.96344 67.6493 5.22245C71.6468 1.93837 73.3918 1.6528 75.2319 3.96593C76.8499 5.9935 79.9006 7.72975 80.5302 5.76503C83.5095 3.39855 71.5199 -1.45994 67.0465 0.424838Z" fill="#D8ADFB"/>
<path d="M104.989 0.449736C104.097 0.819759 102.249 1.98676 100.911 3.01144C97.2475 5.85777 96.7058 5.9147 93.8385 3.83688C88.4862 -0.0626017 80.7763 -0.233386 77.7815 3.49531C75.6128 5.57172 78.2913 8.33408 81.732 5.63006C85.3958 2.75527 87.7215 2.61295 91.2579 5.08926C96.7377 8.93181 101.007 8.96028 105.595 5.23158C109.609 1.95829 111.361 1.67366 113.209 3.97919C114.834 6.00009 116.685 8.27031 118.529 5.77238C121.517 3.01192 109.481 -1.42885 104.989 0.449736Z" fill="#D8ADFB"/>
<path d="M144.168 0.591568C143.276 0.95464 141.428 2.09972 140.089 3.10515C136.425 5.89801 135.883 5.95387 133.016 3.91508C127.663 0.0888546 119.952 -0.0787212 116.956 3.57993C114.376 6.68001 117.466 8.32781 120.908 5.67458C124.572 2.85379 126.898 2.71415 130.435 5.14394C135.915 8.91431 140.185 8.94224 144.773 5.28358C148.788 2.07179 150.541 1.7925 152.389 4.05472C154.014 6.03766 154.69 7.7349 156.502 6.14645C162.543 1.38162 148.661 -1.25172 144.168 0.591568Z" fill="#D8ADFB"/>
<path d="M182.047 0.424838C181.158 0.796081 179.318 1.96693 177.986 2.99499C174.337 5.85071 173.798 5.90782 170.942 3.82315C165.612 -0.0891892 157.935 -0.260536 154.952 3.48046C152.383 6.65031 155.46 8.33518 158.886 5.62225C162.535 2.73797 164.851 2.59519 168.373 5.07966C173.829 8.93489 178.081 8.96344 182.649 5.22245C186.647 1.93837 188.392 1.6528 190.232 3.96593C191.85 5.9935 194.901 7.72975 195.53 5.76503C198.509 3.39855 186.52 -1.45994 182.047 0.424838Z" fill="#D8ADFB"/>
</svg>
