<svg width="164" height="52" viewBox="0 0 164 52" fill="none" xmlns="http://www.w3.org/2000/svg">
<path d="M33.4131 26.0045C32.5815 27.0429 31.3568 28.0374 29.8674 28.6259C30.764 29.7304 31.2166 30.9604 30.8902 32.2392C30.5789 33.4601 29.4116 34.6517 27.75 34.6517H19.0871V28.156H26.6667C30.8463 28.156 34.2463 24.7565 34.2463 20.578C34.2463 16.3995 30.8463 13 26.6667 13H14.7559V22.7431H19.0871V17.3301H26.6667C28.4587 17.3301 29.9151 18.786 29.9151 20.578C29.9151 22.37 28.4587 23.8259 26.6667 23.8259H14.7559V38.9818V38.9873H27.7495C31.9291 38.9873 35.3291 35.5878 35.3291 31.4093C35.3291 29.5555 34.8077 27.4744 33.4131 26.0045Z" fill="#0E0E0E"/>
<path d="M150.643 24.8681C150.695 25.1621 150.756 25.9509 150.756 26.2969C150.756 29.9773 148.12 32.7065 144.401 32.7065C140.682 32.7065 137.654 29.613 137.654 25.9493C137.654 22.2689 140.682 19.2798 144.436 19.2798C146.472 19.2798 148.326 20.204 149.55 21.6538L147.924 22.9229C147.069 21.9386 145.817 21.3366 144.436 21.3366C141.858 21.3366 139.816 23.3928 139.816 25.9498C139.816 28.5074 141.858 30.5447 144.401 30.5447C146.522 30.5447 147.864 29.4868 148.397 27.5892C148.42 27.5058 148.482 27.2113 148.481 27.031H144.149V24.8687L150.643 24.8681ZM136.571 32.4824L131.157 19.4958H128.992L123.578 32.4894H125.743L127.367 28.6996H132.782L134.406 32.4824H136.571ZM130.075 22.2028L131.996 26.8047H128.153L130.075 22.2028ZM112.208 19.4958V21.6614H117.081V32.4894H119.246V21.6614H124.119V19.4958H112.208ZM107.336 29.3152L100.839 19.4958H98.1318V32.4894H100.297V22.7442L106.854 32.4824H109.501V19.5028H107.336V29.3152ZM92.1764 29.3152L85.6796 19.4958H82.9726V32.4894H85.1382V22.7442L91.6951 32.4824H94.342V19.5028H92.1764V29.3152ZM79.1828 19.4958H70.5204V32.4894H79.1828V30.3238H72.6724V27.0754H78.1V24.9098H72.6724V21.6614H79.1828V19.4958ZM52.6541 25.7219C53.4159 25.154 53.7369 24.2639 53.7369 23.2856C53.7369 21.2413 52.1127 19.4958 50.0381 19.4958H43.9917V32.4894H50.3672C52.6541 32.4894 54.2783 30.744 54.2783 28.6996C54.2783 27.3191 53.5204 26.1697 52.6541 25.7219ZM51.5713 23.2856C51.5713 24.2905 50.9222 24.9098 49.952 24.9098H46.1573V21.6614H49.952C50.9222 21.6614 51.5713 22.2808 51.5713 23.2856ZM46.1573 30.3238V27.0754H50.2979C51.2681 27.0754 52.1127 27.7072 52.1127 28.7121C52.1127 29.7169 51.2681 30.3238 50.2979 30.3238H46.1573ZM67.8134 32.4894L64.0235 27.3461C65.9764 26.7165 66.7306 25.1513 66.7306 23.5005C66.7306 21.2851 65.1886 19.4958 62.8 19.4958H56.9853V32.4894H59.1509V27.6168H61.4519L65.1063 32.4894H67.8134ZM62.7139 21.6614C63.9597 21.6614 64.5649 22.3755 64.5649 23.5005C64.5649 24.6429 63.9597 25.4512 62.7139 25.4512H59.1509V21.6614H62.7139Z" fill="#0E0E0E"/>
</svg>
