<svg width="36" height="32" viewBox="0 0 36 32" fill="none" xmlns="http://www.w3.org/2000/svg">
<g clip-path="url(#clip0_10210_16084)">
<path d="M11.9109 26.5786L11.6474 26.8561L11.6365 27.2386L10.6991 60.1231C7.45332 58.5905 4.49374 56.5062 1.95375 53.9597C-0.93198 51.0665 -3.2196 47.6332 -4.77849 43.856C-6.33738 40.0787 -7.13702 36.0313 -7.13174 31.945C-7.12646 27.8587 -6.31638 23.8134 -4.74774 20.0402C-3.1791 16.267 -0.882626 12.8396 2.01057 9.95389C4.90376 7.06816 8.33701 4.78054 12.1143 3.22165C15.8916 1.66276 19.9389 0.863122 24.0252 0.868398C27.622 0.873041 31.1869 1.5012 34.5625 2.72132L11.9109 26.5786Z" stroke="#0E1010" stroke-width="2"/>
</g>
<defs>
<clipPath id="clip0_10210_16084">
<rect width="36" height="32" fill="white"/>
</clipPath>
</defs>
</svg>
