<svg width="1440" height="618" viewBox="0 0 1440 618" fill="none" xmlns="http://www.w3.org/2000/svg">
<g opacity="0.5">
<path d="M626.002 98.7631C625.109 98.6287 624.196 98.5492 623.267 98.5253C608.267 98.8726 593.205 99.5123 578.288 99.4982C569.412 99.4904 560.749 98.5227 552.037 97.8496C550.03 97.6975 547.733 97.6679 546.719 95.7509C547.82 93.729 549.883 93.4152 551.505 93.0147C558.936 91.1855 566.392 89.1949 573.817 87.9899C582.056 86.6535 590.306 85.8792 598.489 85.2746C608.134 84.562 617.718 84.2861 627.326 83.8195C634.942 83.4475 642.557 83.0393 650.163 82.7305C653.675 82.5871 657.161 82.6411 660.649 82.6162C671.593 82.5406 682.54 82.4703 693.49 82.4051C701.037 82.3606 708.622 82.1995 716.127 82.3357C722.51 82.45 728.802 82.9462 735.15 83.1849C737.144 83.256 739.247 82.8977 741.241 82.9688C749.374 83.2549 757.476 83.6371 765.6 83.9649C769.343 84.1142 773.107 84.1732 776.837 84.3565C784.17 84.7187 791.418 85.4277 798.821 85.4624C808.045 85.507 816.887 86.688 825.946 87.1896C828.723 87.3402 831.168 88.0239 833.824 88.2716C836.575 88.5261 839.365 88.6428 842.152 88.7877C847.187 89.0483 852.247 89.2263 857.267 89.5423C858.981 89.6513 860.596 90.0904 862.276 90.3237C867.274 91.0027 872.166 92.1763 877.317 92.181C885.167 92.1884 892.134 94.336 899.708 94.9277C903.66 95.2371 907.67 95.3396 911.595 95.7168C913.27 95.9393 914.868 96.3484 916.356 96.9358C918.257 97.6039 920.06 98.3295 922.468 97.5635C923.127 97.4787 923.767 97.5336 924.336 97.7238C935.573 99.5451 946.662 101.797 958.096 103.066C966.392 103.987 974.036 106.349 982.406 107.065C984.193 107.221 985.907 107.998 987.801 108.342C995.655 109.751 1003.32 111.606 1011.08 113.239C1012.7 113.577 1014.54 113.454 1016.1 113.885C1026.25 116.666 1036.38 119.468 1046.44 122.401C1051.35 123.836 1056.06 125.616 1060.9 127.183C1066.76 129.082 1072.73 130.83 1078.54 132.829C1083.45 134.515 1088.18 136.499 1093.02 138.298C1097.32 139.894 1101.69 141.378 1105.98 142.981C1106.97 143.442 1107.92 143.963 1108.82 144.541C1109.34 144.82 1109.88 145.294 1110.47 145.237C1113.84 144.929 1116.18 146.266 1118.64 147.656C1120.93 148.949 1123.67 149.691 1126.15 150.774C1128.27 151.697 1130.25 152.808 1132.35 153.743C1136.23 155.457 1140.17 157.101 1144.08 158.77C1145.3 159.287 1146.57 159.754 1147.75 160.33C1152.18 162.499 1156.61 164.668 1160.99 166.901C1164.42 168.65 1167.82 170.454 1171.18 172.312C1172.95 173.284 1174.56 174.442 1176.3 175.452C1179.49 177.323 1182.7 179.168 1185.92 180.987C1189.16 182.807 1192.87 184.116 1194.9 187.218C1200.71 189.224 1204.09 193.954 1209.46 196.534C1212.31 197.903 1214.2 200.559 1216.6 202.565C1219.89 205.321 1223.12 208.146 1226.63 210.682C1232.41 214.868 1237.79 219.376 1242.19 224.802C1244.18 227.189 1246.33 229.447 1248.65 231.566C1249.79 232.639 1251.8 233.052 1252.59 234.288C1256.33 240.164 1261.7 244.906 1265.27 250.837C1268.05 255.434 1271.33 259.719 1273.89 264.421C1276.7 269.783 1279.17 275.33 1281.3 281.039C1282.7 284.66 1283.84 288.401 1284.71 292.241C1287.15 302.89 1287.63 308.578 1286.22 319.529C1285.58 324.536 1285.07 329.527 1283.04 334.565C1282.59 335.664 1283.31 336.947 1282.85 338.036C1281.91 339.947 1280.83 341.822 1279.61 343.645C1278.99 344.557 1278.41 345.489 1277.89 346.437C1275.56 351.375 1273.39 356.35 1270.94 361.263C1270.14 362.869 1268.57 364.27 1267.52 365.832C1265.24 369.254 1263.22 372.793 1260.82 376.153C1257.6 380.65 1254.09 385.019 1250.75 389.463C1249.54 391.067 1248.62 392.843 1247.28 394.34C1243.23 398.838 1239.12 403.305 1234.86 407.656C1232.11 410.47 1229.08 413.069 1226.13 415.739C1224.55 417.173 1222.82 418.477 1221.31 419.957C1216.03 425.149 1209.69 429.116 1203.68 433.454C1199.35 436.587 1195.04 439.745 1190.7 442.878C1189.65 443.635 1188.55 444.328 1187.44 445.028C1184.15 447.107 1180.88 449.255 1177.52 451.225C1175.02 452.688 1172.35 453.861 1169.82 455.278C1166.97 456.877 1164.22 458.677 1161.38 460.284C1158 462.194 1154.61 464.086 1151.15 465.818C1146.16 468.322 1141.2 471.263 1136.03 472.915C1131.75 474.282 1127.94 476.473 1123.89 478.168C1117.63 480.787 1111.37 483.479 1105.05 485.838C1100.52 487.526 1095.86 488.665 1091.27 490.151C1088.61 491.01 1085.8 491.723 1083.41 493.132C1079.64 495.364 1075.67 495.339 1071.84 496.736C1068.23 498.058 1064.48 498.777 1060.79 499.778C1056.93 500.826 1052.95 501.497 1049.24 503.033C1045.04 504.77 1040.81 505.484 1036.6 506.717C1032.97 507.784 1029.22 509.524 1025.73 509.72C1022.69 509.89 1019.8 511.333 1016.85 511.265C1015.85 511.24 1014.69 511.822 1013.61 512.166C1012.96 512.461 1012.29 512.714 1011.62 512.922C1004.2 514.258 996.783 515.528 989.373 516.886C987.753 517.186 986.144 517.84 984.52 518.247C980.158 519.336 975.834 519.683 971.49 520.214C967.838 520.653 964.157 521.339 960.499 522.1C953.81 523.471 947.119 524.404 940.481 524.891C936.558 525.197 932.588 525.869 928.639 526.393C928.225 526.447 927.743 526.75 927.406 526.686C922.333 525.723 916.943 528.269 911.736 528.443C906.216 528.628 900.564 529.527 894.991 529.941C892.417 530.137 889.917 529.819 887.349 529.922C885.492 530 883.569 530.457 881.693 530.64C877.063 531.093 872.436 531.539 867.824 531.887C863.664 532.201 859.507 532.486 855.381 532.618C850.376 532.779 845.333 533.321 840.341 533.182C833.744 533 826.816 534.113 820.092 534.365C813.906 534.596 807.81 534.308 801.632 534.497C798.991 534.575 796.32 534.957 793.638 534.928C787.056 534.842 780.341 535.282 773.69 535.466C772.615 535.494 771.582 535.263 770.511 535.263C768.117 535.27 765.699 535.373 763.297 535.4C761.017 535.423 758.734 535.417 756.463 535.399C753.635 535.377 750.818 535.307 747.987 535.313C743.265 535.329 738.526 535.428 733.813 535.423C731.386 535.417 728.989 535.258 726.588 535.149C726.054 535.127 725.549 534.859 725.028 534.955C718.021 536.228 711.725 534.503 704.93 534.802C699.685 535.035 694.576 534.505 689.394 534.352C686.336 534.26 683.226 534.362 680.191 534.195C669.796 533.641 659.422 532.974 649.019 532.439C647.511 532.361 645.713 533.109 644.311 532.859C642.72 532.543 641.068 532.372 639.376 532.347C635.366 532.338 631.521 531.607 627.577 531.277C624.825 531.044 622.005 531.023 619.241 530.839C614.314 530.515 609.315 530.374 604.51 529.724C601.054 529.25 597.801 528.548 593.981 529.07C591.452 529.416 588.967 528.755 586.496 528.441C579.806 527.599 573.142 526.689 566.451 525.868C565.623 525.767 564.447 525.745 563.804 526.189C562.788 526.887 562.461 526.494 561.721 526.249C559.845 525.592 557.877 525.093 555.838 524.756C551.129 524.034 546.392 523.364 541.598 522.859C536.518 522.333 531.358 522.025 526.229 521.622C525.817 521.653 525.419 521.609 525.058 521.492C521.964 519.491 517.858 519.993 514.059 519.814C511.645 519.77 509.349 519.329 507.278 518.512C505.188 517.637 502.446 517.721 499.99 517.388C494.976 516.714 489.936 516.122 484.962 515.346C479.867 514.552 474.862 513.548 469.781 512.72C464.302 511.827 458.453 511.604 453.391 510.003C449.576 508.794 445.219 508.957 441.6 507.159C438.804 505.777 434.77 506.038 431.287 505.574C430.391 505.457 429.433 505.474 428.574 505.282C422.021 503.842 415.594 502.105 408.905 501.011C405.426 500.441 402.347 499.319 399.098 498.416C395.345 497.375 391.419 496.66 387.57 495.805C384.185 495.055 380.758 494.392 377.42 493.54C372.299 492.24 367.345 490.575 362.107 489.531C359.352 488.981 356.843 487.77 354.137 487.537C348.529 487.048 344.095 484.562 338.845 483.53C336.633 483.096 334.779 481.889 332.671 481.19C331.177 480.697 329.483 480.534 327.956 480.086C326.177 479.565 324.49 478.871 322.734 478.296C319.61 477.268 316.478 476.253 313.338 475.252C308.005 473.553 303.391 470.703 297.61 469.679C295.367 469.284 293.469 468.113 291.365 467.365C285.689 465.35 279.983 463.374 274.294 461.371C273.72 461.164 273.169 460.919 272.645 460.64C270.174 459.37 267.784 458.07 264.719 457.618C262.602 457.306 260.811 456.13 258.903 455.309C256.895 454.453 255.177 453.208 252.626 453.134C251.558 453.106 250.757 452.119 249.785 451.638C245.011 449.289 240.565 446.32 235.318 444.821C230.757 443.517 227.157 441.154 223.125 439.295C216.822 436.296 210.773 432.958 205.005 429.296C201.465 427.107 197.937 424.906 194.384 422.73C192.162 421.368 189.762 420.188 187.695 418.662C183.812 415.812 179.976 412.904 176.383 409.781C172.255 406.198 168.406 402.347 164.443 398.616C163.108 397.356 161.667 396.174 160.441 394.829C157.215 391.293 153.699 387.937 150.997 384.047C148.483 380.429 146.87 376.21 144.867 372.251C144.66 371.84 144.492 371.405 144.243 371.024C142.087 367.756 140.717 364.022 140.203 360.01C139.801 356.869 138.377 354.022 137.919 350.887C137.088 345.167 136.95 339.298 138.538 333.166C138.828 332.052 138.812 330.929 139.037 329.805C139.354 328.185 139.404 326.475 140.189 324.967C143.489 318.664 146.301 312.224 150.556 306.176C155.005 299.848 159.408 293.484 164.715 287.62C168.214 283.753 172.064 280.103 175.856 276.43C180.136 272.283 184.481 268.191 188.889 264.153C190.775 262.419 192.874 260.868 194.873 259.23C199.532 255.404 204.205 251.581 208.855 247.74C212.607 244.643 216.33 241.506 220.11 238.434C221.158 237.657 222.241 236.924 223.355 236.24C224.419 235.513 225.653 234.911 226.506 234.031C230.929 229.467 236.399 226.206 241.662 222.664C245.034 220.395 247.837 217.524 251.357 215.32C258.957 210.563 266.138 205.111 273.791 200.448C283.161 194.745 292.806 189.491 302.403 184.166C306.828 181.715 311.354 179.428 315.923 177.3C323.357 173.84 330.866 170.571 338.336 167.21C340.412 166.273 342.437 165.178 344.545 164.331C353.3 160.83 362.068 157.336 370.861 153.969C375.121 152.334 379.46 150.997 383.76 149.49C389.821 147.366 395.862 145.159 401.925 143.085C405.17 141.976 408.449 141.029 411.722 140.06C421.751 137.098 431.773 134.056 441.821 131.254C446.967 129.821 452.18 128.887 457.359 127.638C464.732 125.858 472.094 123.839 479.477 122.226C486.599 120.66 493.734 119.484 500.859 118.12C509.779 116.417 518.707 114.614 527.628 113.005C535.075 111.667 542.523 110.48 549.966 109.342C560.961 107.657 571.966 105.945 582.951 104.475C594.653 102.909 606.33 101.597 618.017 100.202C620.599 99.8924 623.179 99.6834 625.753 99.4305C625.837 99.1987 625.919 98.9736 625.996 98.7406L626.002 98.7631ZM786.027 103.292C785.943 103.467 785.866 103.642 785.782 103.817C788.445 105.344 791.205 106.757 793.72 108.45C794.755 109.208 795.484 110.251 795.83 111.469C795.877 111.913 795.804 112.382 795.616 112.84C795.429 113.297 795.132 113.731 794.749 114.105C794.313 114.421 793.825 114.66 793.317 114.807C792.81 114.954 792.296 115.006 791.809 114.958C790.552 114.78 789.517 114.06 788.36 113.609C780.491 110.538 772.783 106.945 763.801 106.117C753.166 105.139 742.195 105.124 731.312 104.907C722.067 104.723 712.774 104.74 703.456 104.875C692.891 105.036 682.323 105.145 671.679 105.811C660.097 106.54 648.433 107.781 636.782 108.988C627.604 109.935 618.395 111.128 609.196 112.28C604.108 112.917 599.015 113.682 593.924 114.383C585.945 115.485 577.976 116.444 569.99 117.732C561.263 119.14 552.531 120.864 543.801 122.451C537.898 123.528 531.99 124.54 526.086 125.696C520.032 126.888 513.979 128.23 507.921 129.507C503.253 130.493 498.578 131.442 493.911 132.465C489.087 133.521 484.274 134.666 479.449 135.744C472.048 137.405 464.635 138.884 457.249 140.734C450.866 142.337 444.535 144.573 438.146 146.153C425.316 149.422 412.576 153.49 400.024 158.325C391.209 161.653 382.261 164.401 373.559 168.378C367.857 170.986 361.729 172.519 355.961 175.275C351.173 177.559 346.208 179.392 341.386 181.606C334.564 184.739 327.915 188.465 320.979 191.143C314.799 193.53 309.606 197.485 303.799 200.38C301.448 201.517 299.145 202.766 296.903 204.12C290.762 207.936 284.662 211.836 278.572 215.731C273.338 219.084 267.883 222.196 262.995 225.951C258.144 229.67 252.799 232.675 248.065 236.519C244.154 239.693 240.394 243.076 235.89 245.538C235.774 245.6 235.698 245.754 235.594 245.846C233.644 247.535 231.75 249.289 229.724 250.902C225.355 254.396 220.892 257.783 216.522 261.278C213.485 263.712 210.555 266.254 207.566 268.738C198.499 276.29 189.609 283.982 182.404 293.044C181.984 293.571 181.328 293.97 180.85 294.475C178.71 296.739 176.162 298.849 174.556 301.328C171.588 305.913 167.334 309.935 165.233 314.885C164.85 315.596 164.411 316.29 163.921 316.962C160.64 322.062 158.467 327.517 157.544 332.971C156.626 339.144 157.367 345.073 158.836 350.743C159.513 353.343 160.128 356.042 161.394 358.334C164.029 363.098 167.051 367.646 169.98 372.237C171.391 374.45 172.838 376.646 175.193 378.15C175.859 378.645 176.438 379.225 176.917 379.877C178.711 381.959 180.292 384.218 182.298 386.109C184.829 388.501 187.717 390.586 190.43 392.826C194.731 396.369 198.577 400.457 203.456 403.303C206.965 405.343 210.531 407.255 213.769 409.636C216.515 411.519 219.409 413.238 222.437 414.787C225.294 416.357 228.26 417.786 231.174 419.286C234.134 420.807 237.422 422.01 239.954 423.964C242.025 425.555 244.546 426.049 247.03 426.789C248.232 427.145 249.716 427.321 250.487 428.081C252.563 430.119 255.532 430.793 258.297 431.833C261.062 432.873 264.268 433.295 266.322 435.387C266.825 435.705 267.408 435.924 268.042 436.036C270.618 436.904 273.215 437.739 275.774 438.633C277.491 439.231 279.154 439.929 280.869 440.534C284.251 441.729 287.915 442.557 290.988 444.152C294.314 445.871 297.974 446.899 301.646 447.972C302.836 448.32 304.054 448.636 305.192 449.076C310.612 451.168 315.731 453.827 321.465 455.297C330.121 457.521 338.278 460.548 346.67 463.193C349.756 464.165 352.955 464.946 356.111 465.799C362.202 467.451 368.008 469.672 374.538 470.462C374.655 470.503 374.766 470.553 374.871 470.611C377.781 471.572 380.587 472.754 383.633 473.447C391.807 475.306 400.092 476.943 408.324 478.696C410.433 479.143 412.45 479.785 414.58 480.178C417.341 480.693 420.24 480.897 422.957 481.506C427.174 482.368 431.286 483.454 435.273 484.758C436.797 485.292 438.417 484.496 440.039 485.259C443.093 486.701 446.558 487.526 450.243 487.69C455.018 487.862 459.401 488.759 463.847 489.652C466.046 490.098 468.844 489.548 470.702 490.382C476.487 492.98 483.503 492.656 489.752 494.138C496.401 495.714 503.515 496.346 510.435 497.351C512.367 497.636 514.403 497.656 516.307 497.994C521.584 498.937 526.616 500.483 532.311 500.41C533.517 500.317 534.695 500.384 535.808 500.609C541.611 502.283 548.144 502.075 554.14 503.203C559.421 504.197 565.464 503.126 570.302 505.297C570.663 505.409 571.053 505.464 571.459 505.461C576.051 505.771 580.697 505.91 585.221 506.411C592.03 507.163 598.735 508.18 605.739 508.4C612.655 508.615 619.498 509.149 626.282 509.833C629.73 510.176 633.513 509.232 636.741 510.34C637.773 510.721 638.91 510.918 640.102 510.921C644.689 510.807 649.289 510.565 653.494 511.76C654.516 511.929 655.59 511.962 656.684 511.856C658.689 511.843 660.739 511.656 662.692 511.793C669.022 512.23 675.321 512.785 681.629 513.298C685.833 511.482 688.986 514.21 693.131 513.247C695.716 512.644 698.503 512.904 700.967 513.331C708.002 514.541 715.384 514.227 722.778 514.017C725.069 514.036 727.329 514.185 729.543 514.46C730.28 514.638 731.04 514.769 731.817 514.853C738.717 514.555 745.727 513.806 752.513 513.951C761.608 514.149 770.681 514.366 779.929 513.911C783.991 513.712 787.991 513.842 792.016 513.853C796.786 513.866 801.549 513.936 806.328 513.907C807.274 513.805 808.225 513.623 809.169 513.363C809.965 513.183 810.764 513.067 811.554 513.018C814.639 512.998 817.707 513.062 820.785 513.063C824.728 513.07 828.722 512.832 832.683 512.776C839.182 512.671 845.814 511.945 852.367 511.589C854.225 511.489 855.994 511.937 857.857 511.823C862.605 511.531 867.382 511.05 872.141 510.674C874.569 510.485 876.974 510.452 879.407 510.214C885.245 509.645 891.106 508.827 896.919 508.434C906.789 507.761 916.675 506.934 926.615 505.625C929.121 505.298 931.643 505.425 934.12 504.827C937.163 504.097 940.106 503.295 943.053 503.758C944.119 503.815 945.227 503.699 946.328 503.415C950.152 502.728 953.979 501.941 957.805 501.291C965.765 499.935 973.735 498.839 981.689 497.231C985.723 496.417 989.737 496.319 993.878 494.587C996.742 493.392 1000.06 493.687 1003.18 493.198C1004.22 493.036 1005.77 493.58 1006.18 491.7C1006.64 491.62 1007.09 491.565 1007.55 491.536C1010.39 491.208 1013.48 491.556 1016.05 490.418C1021.64 487.936 1027.61 488.242 1033.01 485.093C1033.33 484.903 1033.81 484.982 1034.22 484.955C1038.84 484.581 1043.52 483.405 1048.01 481.491C1050.11 480.643 1052.29 479.6 1054.72 479.642C1056.47 479.67 1058.49 478.761 1060.37 478.139C1062.24 477.517 1064.06 476.636 1065.94 476.05C1071.36 474.356 1076.82 472.804 1082.24 471.066C1083.67 470.609 1084.98 469.48 1086.41 468.993C1091.53 467.249 1096.69 465.652 1101.84 463.975C1103.05 463.578 1104.59 463.346 1105.36 462.569C1107.25 460.691 1109.52 460.724 1111.61 459.969C1112.54 459.638 1113.56 459.66 1114.45 459.274C1116.96 458.206 1119.38 456.61 1121.91 455.969C1124.56 455.296 1126.66 453.255 1129.34 452.904C1129.87 452.838 1130.43 452.058 1131 451.646C1131.61 451.125 1132.3 450.674 1133.02 450.306C1139.71 447.487 1146.27 444.293 1152.65 440.748C1154.91 439.507 1157.3 438.537 1159.62 437.428C1160.25 437.139 1160.85 436.797 1161.43 436.409C1163.56 434.92 1165.62 433.311 1167.81 431.917C1170.11 430.445 1172.58 429.244 1174.88 427.765C1176.14 426.951 1177.07 425.378 1178.33 424.911C1181.29 423.817 1183.66 422.074 1186.01 420.1C1188.08 418.365 1190.23 416.418 1192.62 415.362C1195.41 414.135 1197.09 412.163 1198.64 410.157C1200.3 408.009 1202.44 406.521 1204.57 404.931C1205.52 404.29 1206.44 403.61 1207.33 402.894C1209.91 400.609 1212.22 397.982 1215.03 396.019C1218 393.948 1219.24 390.791 1222.18 388.816C1223.24 388.108 1224.21 387.267 1225.04 386.328C1226.86 384.204 1228.55 381.996 1230.26 379.812C1232.76 376.624 1235.28 373.453 1237.71 370.226C1239.11 368.37 1240.1 366.238 1241.72 364.573C1244.29 361.941 1245.72 358.861 1247.09 355.981C1248.59 352.826 1250.92 350.079 1252.49 347.027C1253.77 344.564 1255.41 342.155 1256.32 339.652C1257.14 337.402 1257.86 335.151 1258.89 332.925C1259.26 332.219 1259.51 331.489 1259.65 330.759C1260.2 326.953 1260.39 323.152 1261.31 319.357C1261.82 317.241 1261.98 315.447 1261.15 313.707C1261.01 313.265 1260.96 312.789 1261 312.299C1260.96 309.563 1261.39 306.659 1260.8 304.122C1259.08 296.625 1256.84 289.312 1253.14 282.689C1252.26 281.107 1252.92 278.359 1249.84 278.25C1249.64 278.243 1249.44 277.644 1249.52 277.334C1249.85 276.161 1248.67 275.756 1248.48 275.082C1247.62 271.938 1245.59 269.655 1243.61 267.23C1242.04 265.302 1241.26 262.788 1239.76 260.786C1238.02 258.438 1235.03 256.992 1234.32 253.861C1234.06 253.342 1233.6 252.945 1233.01 252.728C1230.11 251.229 1228.78 248.425 1226.65 246.28C1225.03 244.64 1223.81 242.65 1222.14 241.053C1218.91 237.946 1215.46 235.017 1212.15 231.978C1209.93 229.948 1207.98 227.663 1205.58 225.816C1200.39 221.81 1194.98 218.031 1189.7 214.106C1188.18 212.976 1187.14 211.085 1185.33 210.573C1180.61 209.253 1179.02 204.283 1173.63 203.878C1173.32 203.853 1173.16 203.385 1172.89 203.165C1171.61 202.157 1170.42 201.055 1169.03 200.188C1166.59 198.68 1164.04 197.299 1161.51 195.912C1155.64 192.711 1149.58 189.735 1143.92 186.279C1140.7 184.317 1136.86 183.312 1133.76 181.067C1130.27 178.541 1125.65 177.192 1121.48 175.392C1120.37 174.911 1118.97 174.814 1117.92 174.27C1113.32 171.904 1109.09 169.075 1103.81 167.607C1100.12 166.581 1096.62 165.168 1093.12 163.804C1090.49 162.777 1088.01 161.506 1085.4 160.432C1081.55 158.852 1077.93 156.608 1073.68 156.046C1069.54 155.493 1066.91 152.979 1062.9 152.345C1059.31 151.772 1056.33 149.76 1052.9 148.702C1047.8 147.131 1042.61 145.748 1037.74 143.766C1035.58 142.888 1032.91 142.738 1030.89 141.714C1028.36 140.372 1025.45 139.563 1022.33 139.332C1020.56 139.215 1017.94 139.511 1016.88 137.545C1016.65 137.108 1015.48 137.223 1014.77 137.039C1013.21 136.623 1011.66 136.187 1010.12 135.743C1008.79 135.361 1007.52 134.857 1006.15 134.59C1003.67 134.118 1001.09 133.874 998.627 133.367C996.773 132.979 995.084 132.234 993.239 131.804C989.454 130.923 985.621 130.143 981.808 129.329C977.119 128.329 972.47 127.227 967.71 126.368C963.676 125.637 959.451 125.352 955.428 124.594C942.713 122.217 930 119.855 917.055 118.019C910.64 117.109 904.232 116.184 897.829 115.243C893.374 114.586 888.978 113.759 884.491 113.184C879.725 112.568 874.863 112.232 870.1 111.609C867.941 111.327 866.02 110.404 863.846 110.199C859.164 109.753 854.339 109.724 849.659 109.272C841.061 108.428 832.538 107.374 823.966 106.462C818.891 105.923 813.788 105.473 808.68 105.036C802.654 104.514 796.62 104.035 790.586 103.555C789.087 103.434 787.563 103.397 786.048 103.317L786.027 103.292Z" fill="#CBFDF4"/>
</g>
</svg>
