<svg width="1440" height="618" viewBox="0 0 1440 618" fill="none" xmlns="http://www.w3.org/2000/svg">
<g opacity="0.5">
<path d="M615.08 100.771C614.16 100.63 613.222 100.543 612.274 100.511C597.016 100.713 581.719 101.203 566.516 101.049C557.469 100.958 548.562 99.9221 539.63 99.1766C537.572 99.0077 535.229 98.957 534.039 97.0569C534.997 95.0732 537.074 94.783 538.694 94.4033C546.117 92.6689 553.554 90.7757 561.022 89.657C569.309 88.4162 577.654 87.7299 585.944 87.2104C595.714 86.5981 605.46 86.4159 615.212 86.0459C622.943 85.7504 630.67 85.4194 638.396 85.1861C641.964 85.0776 645.521 85.1636 649.074 85.1718C660.22 85.1999 671.37 85.2332 682.524 85.2717C690.211 85.2985 697.928 85.2109 705.588 85.4156C712.101 85.5882 718.554 86.1366 725.043 86.4315C727.08 86.5203 729.194 86.1867 731.232 86.2756C739.543 86.634 747.831 87.0869 756.137 87.4865C759.963 87.6688 763.804 87.7623 767.62 87.978C775.123 88.404 782.567 89.1713 790.114 89.275C799.517 89.4055 808.625 90.6532 817.897 91.2328C820.739 91.4074 823.287 92.1047 826.014 92.3739C828.838 92.6507 831.691 92.7919 834.543 92.961C839.695 93.2652 844.866 93.4883 850.007 93.847C851.764 93.9706 853.445 94.4187 855.176 94.6646C860.324 95.3811 865.405 96.5845 870.655 96.6375C878.656 96.7184 885.93 98.9017 893.697 99.5564C897.75 99.8986 901.845 100.037 905.875 100.446C907.601 100.681 909.262 101.1 910.827 101.693C912.818 102.37 914.715 103.102 917.106 102.369C917.771 102.292 918.427 102.352 919.023 102.545C930.623 104.447 942.107 106.772 953.862 108.13C962.392 109.116 970.374 111.518 978.962 112.302C980.795 112.473 982.606 113.255 984.563 113.612C992.683 115.075 1000.64 116.977 1008.69 118.66C1010.36 119.009 1012.23 118.905 1013.86 119.344C1024.42 122.183 1034.98 125.04 1045.47 128.028C1050.59 129.489 1055.54 131.289 1060.59 132.88C1066.72 134.808 1072.94 136.588 1079.03 138.613C1084.16 140.322 1089.15 142.324 1094.23 144.143C1098.74 145.757 1103.32 147.262 1107.82 148.883C1108.87 149.347 1109.88 149.87 1110.84 150.449C1111.4 150.728 1111.98 151.201 1112.58 151.15C1115.99 150.879 1118.48 152.218 1121.1 153.612C1123.55 154.91 1126.4 155.667 1129.01 156.758C1131.24 157.688 1133.35 158.803 1135.57 159.745C1139.67 161.472 1143.81 163.13 1147.93 164.812C1149.22 165.334 1150.55 165.806 1151.8 166.386C1156.49 168.566 1161.18 170.747 1165.82 172.99C1169.46 174.747 1173.07 176.558 1176.65 178.422C1178.53 179.397 1180.27 180.554 1182.12 181.567C1185.53 183.442 1188.95 185.292 1192.38 187.116C1195.83 188.942 1199.72 190.267 1202.04 193.345C1208.13 195.378 1211.95 200.074 1217.64 202.67C1220.66 204.047 1222.79 206.684 1225.4 208.684C1228.98 211.433 1232.5 214.25 1236.28 216.784C1242.52 220.966 1248.37 225.463 1253.29 230.855C1255.51 233.228 1257.89 235.476 1260.43 237.587C1261.67 238.656 1263.76 239.082 1264.66 240.309C1268.95 246.138 1274.81 250.866 1278.94 256.748C1282.14 261.309 1285.84 265.566 1288.82 270.226C1292.12 275.541 1295.1 281.034 1297.72 286.685C1299.45 290.27 1300.92 293.97 1302.12 297.765C1305.47 308.29 1306.42 313.905 1305.88 324.692C1305.63 329.623 1305.53 334.541 1303.86 339.491C1303.5 340.57 1304.33 341.843 1303.95 342.912C1303.15 344.788 1302.2 346.627 1301.11 348.413C1300.54 349.307 1300.03 350.221 1299.58 351.151C1297.61 355.999 1295.8 360.885 1293.7 365.708C1293.02 367.284 1291.54 368.651 1290.6 370.182C1288.55 373.535 1286.78 377.007 1284.6 380.298C1281.69 384.703 1278.47 388.979 1275.42 393.33C1274.32 394.9 1273.54 396.644 1272.29 398.108C1268.53 402.505 1264.71 406.872 1260.72 411.123C1258.14 413.872 1255.26 416.407 1252.48 419.013C1250.99 420.413 1249.33 421.683 1247.91 423.128C1242.95 428.199 1236.81 432.052 1231.05 436.273C1226.89 439.323 1222.75 442.397 1218.58 445.446C1217.57 446.183 1216.51 446.857 1215.44 447.536C1212.25 449.555 1209.1 451.644 1205.83 453.554C1203.4 454.974 1200.78 456.106 1198.32 457.479C1195.54 459.029 1192.89 460.78 1190.12 462.337C1186.84 464.189 1183.53 466.023 1180.15 467.7C1175.26 470.123 1170.45 472.976 1165.31 474.557C1161.07 475.865 1157.36 477.99 1153.37 479.624C1147.2 482.148 1141.05 484.744 1134.79 487.011C1130.31 488.634 1125.66 489.713 1121.1 491.136C1118.47 491.958 1115.66 492.635 1113.34 494.002C1109.68 496.168 1105.63 496.106 1101.84 497.448C1098.27 498.718 1094.5 499.391 1090.83 500.345C1086.98 501.341 1082.98 501.966 1079.32 503.446C1075.18 505.12 1070.93 505.784 1066.74 506.961C1063.12 507.979 1059.45 509.66 1055.9 509.821C1052.82 509.96 1050 511.355 1046.99 511.261C1045.97 511.227 1044.83 511.79 1043.75 512.119C1043.12 512.404 1042.46 512.647 1041.79 512.846C1034.34 514.094 1026.88 515.277 1019.44 516.547C1017.81 516.828 1016.23 517.457 1014.61 517.844C1010.25 518.877 1005.87 519.178 1001.49 519.661C997.801 520.06 994.106 520.702 990.44 521.418C983.735 522.708 976.992 523.565 970.268 523.983C966.295 524.247 962.303 524.873 958.321 525.353C957.904 525.403 957.438 525.697 957.089 525.63C951.841 524.633 946.555 527.094 941.263 527.216C935.653 527.347 929.967 528.181 924.321 528.537C921.713 528.706 919.14 528.368 916.531 528.446C914.645 528.506 912.723 528.938 910.826 529.101C906.144 529.505 901.465 529.901 896.794 530.201C892.58 530.471 888.367 530.714 884.173 530.805C879.086 530.917 873.991 531.405 868.892 531.22C862.154 530.979 855.184 532.012 848.353 532.197C842.067 532.367 835.832 532.026 829.551 532.154C826.866 532.206 824.175 532.558 821.44 532.504C814.725 532.358 807.918 532.729 801.155 532.848C800.061 532.865 798.99 532.628 797.899 532.618C795.459 532.602 793.004 532.681 790.558 532.685C788.237 532.687 785.909 532.659 783.593 532.62C780.709 532.572 777.834 532.476 774.948 532.456C770.138 532.427 765.317 532.48 760.513 532.431C758.039 532.403 755.584 532.224 753.128 532.093C752.582 532.067 752.045 531.797 751.522 531.887C744.486 533.077 737.929 531.317 731.029 531.548C725.703 531.728 720.453 531.158 715.159 530.958C712.036 530.839 708.874 530.911 705.768 530.717C695.129 530.073 684.503 529.318 673.858 528.693C672.315 528.602 670.544 529.323 669.094 529.063C667.448 528.736 665.75 528.552 664.023 528.512C659.936 528.466 655.958 527.708 651.913 527.346C649.089 527.09 646.213 527.043 643.381 526.835C638.334 526.47 633.228 526.284 628.279 525.598C624.718 525.098 621.345 524.375 617.495 524.854C614.947 525.171 612.361 524.496 609.817 524.164C602.93 523.27 596.065 522.31 589.179 521.438C588.327 521.331 587.127 521.298 586.508 521.73C585.53 522.409 585.164 522.018 584.39 521.769C582.425 521.103 580.379 520.593 578.273 520.242C573.416 519.485 568.534 518.78 563.607 518.237C558.387 517.671 553.104 517.319 547.844 516.872C547.426 516.899 547.017 516.852 546.64 516.734C543.324 514.732 539.181 515.187 535.294 514.975C532.831 514.909 530.455 514.453 528.278 513.628C526.077 512.745 523.289 512.803 520.759 512.451C515.595 511.739 510.411 511.108 505.279 510.296C500.022 509.465 494.839 508.429 489.593 507.564C483.938 506.632 477.959 506.357 472.669 504.731C468.683 503.503 464.256 503.622 460.421 501.815C457.46 500.426 453.371 500.645 449.783 500.156C448.86 500.031 447.886 500.039 446.994 499.842C440.199 498.361 433.508 496.587 426.602 495.445C423.011 494.85 419.781 493.715 416.397 492.794C412.488 491.732 408.428 490.989 404.436 490.11C400.925 489.339 397.379 488.653 393.908 487.782C388.584 486.451 383.399 484.763 377.976 483.684C375.124 483.116 372.469 481.898 369.692 481.643C363.937 481.108 359.216 478.615 353.782 477.548C351.492 477.099 349.504 475.891 347.3 475.182C345.736 474.682 343.997 474.505 342.404 474.049C340.549 473.518 338.774 472.818 336.936 472.234C333.669 471.191 330.395 470.161 327.114 469.144C321.54 467.419 316.606 464.565 310.631 463.5C308.313 463.089 306.283 461.917 304.079 461.159C298.131 459.119 292.154 457.116 286.194 455.088C285.592 454.878 285.011 454.632 284.454 454.351C281.833 453.076 279.291 451.771 276.131 451.297C273.947 450.969 272.027 449.792 270.015 448.965C267.899 448.102 266.047 446.858 263.442 446.761C262.351 446.724 261.454 445.742 260.425 445.259C255.368 442.897 250.595 439.928 245.126 438.4C240.372 437.071 236.511 434.707 232.25 432.836C225.583 429.819 219.147 426.471 212.97 422.805C209.184 420.613 205.41 418.409 201.612 416.229C199.236 414.865 196.694 413.679 194.463 412.154C190.275 409.307 186.128 406.404 182.212 403.29C177.714 399.717 173.478 395.884 169.135 392.167C167.672 390.911 166.107 389.732 164.748 388.394C161.173 384.876 157.316 381.533 154.247 377.672C151.389 374.08 149.402 369.904 147.039 365.981C146.794 365.573 146.588 365.143 146.303 364.765C143.839 361.521 142.139 357.826 141.288 353.865C140.623 350.763 138.94 347.942 138.218 344.845C136.906 339.197 136.287 333.407 137.405 327.375C137.61 326.279 137.502 325.171 137.641 324.065C137.831 322.47 137.743 320.784 138.42 319.304C141.27 313.118 143.61 306.793 147.455 300.869C151.473 294.67 155.442 288.435 160.373 282.701C163.623 278.92 167.249 275.357 170.814 271.77C174.839 267.72 178.933 263.725 183.097 259.784C184.877 258.092 186.89 256.582 188.793 254.985C193.23 251.255 197.681 247.529 202.107 243.784C205.678 240.765 209.217 237.706 212.819 234.712C213.823 233.955 214.867 233.243 215.946 232.578C216.972 231.871 218.18 231.29 218.978 230.43C223.114 225.97 228.422 222.805 233.498 219.361C236.749 217.155 239.372 214.35 242.779 212.209C250.137 207.588 257.01 202.28 264.43 197.752C273.514 192.215 282.915 187.125 292.262 181.963C296.572 179.587 300.998 177.375 305.48 175.318C312.774 171.976 320.161 168.822 327.5 165.578C329.539 164.673 331.513 163.611 333.592 162.797C342.23 159.425 350.88 156.062 359.567 152.824C363.775 151.251 368.088 149.974 372.347 148.528C378.351 146.489 384.327 144.37 390.337 142.381C393.554 141.318 396.819 140.415 400.075 139.49C410.054 136.662 420.02 133.756 430.031 131.087C435.159 129.722 440.395 128.85 445.571 127.667C452.94 125.98 460.278 124.058 467.67 122.536C474.801 121.059 481.976 119.966 489.126 118.688C498.077 117.092 507.029 115.398 515.989 113.894C523.469 112.644 530.963 111.543 538.455 110.491C549.522 108.933 560.598 107.348 571.673 106.001C583.471 104.566 595.264 103.382 607.06 102.115C609.666 101.834 612.278 101.652 614.881 101.427C614.948 101.199 615.013 100.978 615.072 100.749L615.08 100.771ZM778.528 106.74C778.457 106.911 778.393 107.083 778.321 107.254C781.159 108.786 784.088 110.205 786.788 111.898C787.905 112.656 788.732 113.691 789.184 114.896C789.268 115.334 789.232 115.796 789.078 116.245C788.924 116.695 788.657 117.119 788.298 117.485C787.879 117.792 787.401 118.024 786.896 118.164C786.391 118.304 785.871 118.35 785.371 118.299C784.075 118.111 782.961 117.391 781.745 116.936C773.476 113.833 765.329 110.217 756.108 109.317C745.19 108.252 734.009 108.135 722.9 107.818C713.464 107.55 703.995 107.48 694.51 107.526C683.756 107.585 672.996 107.594 662.203 108.151C650.459 108.761 638.674 109.875 626.899 110.957C617.623 111.804 608.336 112.895 599.055 113.945C593.922 114.525 588.794 115.232 583.663 115.876C575.62 116.887 567.578 117.759 559.544 118.954C550.765 120.261 542.007 121.879 533.24 123.362C527.312 124.369 521.374 125.312 515.451 126.396C509.379 127.515 503.319 128.782 497.25 129.984C492.574 130.913 487.886 131.805 483.213 132.77C478.384 133.767 473.572 134.85 468.743 135.868C461.335 137.437 453.902 138.826 446.526 140.582C440.152 142.103 433.882 144.248 427.5 145.747C414.691 148.85 402.039 152.743 389.642 157.393C380.929 160.593 372.034 163.219 363.49 167.059C357.892 169.578 351.771 171.032 346.118 173.697C341.424 175.904 336.514 177.665 331.781 179.803C325.084 182.829 318.611 186.442 311.761 189.018C305.657 191.314 300.687 195.166 295.005 197.967C292.701 199.066 290.457 200.276 288.282 201.591C282.334 205.296 276.436 209.086 270.547 212.87C265.487 216.127 260.18 219.145 255.505 222.803C250.865 226.425 245.662 229.339 241.151 233.085C237.424 236.179 233.867 239.48 229.478 241.866C229.365 241.926 229.301 242.077 229.202 242.167C227.352 243.814 225.565 245.526 223.632 247.098C219.463 250.503 215.191 253.802 211.022 257.208C208.125 259.579 205.347 262.06 202.503 264.481C193.878 271.843 185.445 279.347 178.841 288.216C178.456 288.732 177.82 289.12 177.373 289.613C175.377 291.825 172.953 293.883 171.517 296.313C168.866 300.807 164.859 304.733 163.121 309.595C162.788 310.293 162.398 310.974 161.953 311.631C159.025 316.631 157.255 321.99 156.758 327.36C156.326 333.44 157.563 339.294 159.522 344.9C160.424 347.471 161.27 350.138 162.747 352.41C165.82 357.133 169.27 361.647 172.629 366.203C174.247 368.398 175.901 370.578 178.424 372.083C179.143 372.577 179.78 373.155 180.321 373.802C182.319 375.873 184.114 378.116 186.312 379.999C189.087 382.382 192.199 384.466 195.146 386.699C199.819 390.235 204.07 394.302 209.275 397.154C213.016 399.2 216.807 401.119 220.3 403.498C223.252 405.38 226.341 407.103 229.553 408.658C232.593 410.234 235.731 411.671 238.824 413.178C241.963 414.706 245.413 415.923 248.152 417.874C250.392 419.463 253.001 419.973 255.593 420.726C256.847 421.089 258.374 421.276 259.221 422.033C261.503 424.062 264.584 424.755 267.486 425.807C270.389 426.858 273.689 427.304 275.954 429.387C276.492 429.705 277.104 429.927 277.759 430.043C280.455 430.923 283.17 431.771 285.85 432.677C287.649 433.283 289.4 433.987 291.197 434.599C294.741 435.81 298.542 436.66 301.804 438.263C305.334 439.989 309.147 441.037 312.977 442.13C314.218 442.484 315.485 442.807 316.681 443.252C322.374 445.366 327.808 448.036 333.77 449.54C342.772 451.815 351.332 454.877 360.1 457.564C363.323 458.552 366.647 459.351 369.933 460.222C376.275 461.909 382.372 464.153 389.091 464.994C389.214 465.036 389.331 465.086 389.443 465.144C392.486 466.119 395.443 467.311 398.603 468.024C407.085 469.933 415.661 471.626 424.192 473.431C426.378 473.892 428.486 474.544 430.689 474.952C433.545 475.486 436.516 475.714 439.334 476.34C443.702 477.23 447.98 478.339 452.15 479.663C453.746 480.204 455.332 479.434 457.047 480.202C460.277 481.653 463.875 482.499 467.644 482.695C472.525 482.91 477.064 483.836 481.667 484.757C483.945 485.218 486.752 484.702 488.713 485.542C494.82 488.159 501.943 487.905 508.432 489.425C515.337 491.042 522.637 491.731 529.772 492.788C531.763 493.087 533.841 493.126 535.808 493.477C541.263 494.456 546.516 496.028 552.314 496.01C553.535 495.929 554.742 496.006 555.894 496.239C561.944 497.945 568.585 497.8 574.788 498.969C580.25 499.999 586.322 499 591.428 501.186C591.805 501.3 592.207 501.358 592.621 501.358C597.326 501.708 602.071 501.888 606.723 502.425C613.723 503.23 620.639 504.296 627.795 504.579C634.86 504.856 641.877 505.447 648.846 506.185C652.387 506.555 656.166 505.66 659.546 506.783C660.628 507.169 661.804 507.373 663.019 507.388C667.684 507.318 672.351 507.123 676.734 508.34C677.789 508.517 678.886 508.559 679.993 508.465C682.035 508.471 684.109 508.306 686.11 508.459C692.597 508.95 699.061 509.556 705.531 510.121C709.667 508.369 713.103 511.089 717.249 510.179C719.834 509.608 722.695 509.891 725.241 510.336C732.509 511.594 740.006 511.355 747.524 511.216C749.861 511.257 752.175 511.424 754.454 511.717C755.22 511.899 756.005 512.036 756.804 512.126C763.811 511.897 770.894 511.224 777.821 511.431C787.106 511.711 796.37 512.01 805.758 511.648C809.881 511.49 813.968 511.655 818.07 511.704C822.932 511.762 827.792 511.875 832.66 511.892C833.615 511.8 834.569 511.629 835.51 511.382C836.308 511.211 837.112 511.105 837.913 511.064C841.056 511.073 844.187 511.165 847.324 511.195C851.343 511.238 855.394 511.041 859.425 511.024C866.04 510.981 872.739 510.327 879.389 510.037C881.274 509.956 883.113 510.414 885.003 510.32C889.817 510.077 894.646 509.647 899.465 509.32C901.924 509.157 904.372 509.147 906.832 508.935C912.735 508.428 918.641 507.677 924.534 507.343C934.537 506.773 944.545 506.049 954.568 504.852C957.095 504.553 959.676 504.702 962.151 504.136C965.192 503.444 968.126 502.681 971.167 503.165C972.258 503.231 973.378 503.127 974.476 502.857C978.318 502.216 982.154 501.476 986 500.87C994.001 499.608 1002.03 498.602 1010.01 497.09C1014.05 496.325 1018.14 496.266 1022.21 494.597C1025.04 493.446 1028.44 493.767 1031.58 493.315C1032.63 493.165 1034.25 493.715 1034.51 491.866C1034.97 491.791 1035.44 491.741 1035.9 491.716C1038.77 491.42 1041.95 491.792 1044.47 490.693C1049.96 488.298 1056.08 488.656 1061.32 485.601C1061.63 485.417 1062.13 485.498 1062.54 485.476C1067.22 485.15 1071.9 484.035 1076.32 482.189C1078.38 481.373 1080.52 480.364 1083 480.428C1084.79 480.473 1086.77 479.595 1088.63 478.999C1090.49 478.404 1092.28 477.552 1094.14 476.992C1099.53 475.372 1104.96 473.892 1110.34 472.229C1111.77 471.792 1113.01 470.69 1114.42 470.224C1119.51 468.551 1124.63 467.025 1129.74 465.419C1130.94 465.04 1132.49 464.824 1133.22 464.066C1134.99 462.231 1137.3 462.285 1139.38 461.56C1140.29 461.243 1141.34 461.274 1142.21 460.901C1144.68 459.872 1147.02 458.32 1149.54 457.711C1152.19 457.073 1154.16 455.08 1156.87 454.759C1157.4 454.698 1157.9 453.934 1158.45 453.534C1159.04 453.025 1159.7 452.587 1160.41 452.231C1166.99 449.513 1173.42 446.425 1179.63 442.989C1181.83 441.786 1184.19 440.852 1186.47 439.78C1187.08 439.501 1187.67 439.169 1188.22 438.791C1190.28 437.343 1192.24 435.776 1194.36 434.421C1196.59 432.992 1199.01 431.83 1201.23 430.393C1202.45 429.602 1203.27 428.06 1204.52 427.611C1207.44 426.559 1209.71 424.863 1211.94 422.938C1213.92 421.246 1215.94 419.346 1218.3 418.327C1221.04 417.143 1222.59 415.214 1224.01 413.25C1225.53 411.148 1227.58 409.7 1229.62 408.151C1230.54 407.528 1231.42 406.867 1232.27 406.169C1234.71 403.939 1236.86 401.371 1239.56 399.46C1242.41 397.446 1243.43 394.344 1246.25 392.424C1247.29 391.735 1248.2 390.915 1248.97 389.997C1250.65 387.919 1252.2 385.758 1253.76 383.62C1256.05 380.499 1258.36 377.396 1260.58 374.236C1261.85 372.418 1262.68 370.325 1264.2 368.698C1266.6 366.126 1267.81 363.102 1268.97 360.274C1270.25 357.177 1272.39 354.489 1273.75 351.495C1274.85 349.078 1276.32 346.717 1277.04 344.256C1277.7 342.045 1278.25 339.832 1279.12 337.647C1279.43 336.954 1279.63 336.236 1279.71 335.517C1279.97 331.769 1279.85 328.022 1280.48 324.288C1280.83 322.206 1280.85 320.438 1279.85 318.715C1279.68 318.277 1279.59 317.807 1279.59 317.325C1279.32 314.625 1279.53 311.766 1278.72 309.258C1276.35 301.848 1273.48 294.615 1269.17 288.048C1268.14 286.48 1268.59 283.776 1265.44 283.639C1265.24 283.63 1264.98 283.038 1265.04 282.733C1265.28 281.579 1264.04 281.169 1263.8 280.503C1262.66 277.393 1260.41 275.123 1258.2 272.713C1256.43 270.797 1255.44 268.309 1253.75 266.321C1251.78 263.989 1248.62 262.535 1247.64 259.441C1247.33 258.926 1246.83 258.531 1246.22 258.311C1243.13 256.805 1241.55 254.028 1239.21 251.892C1237.42 250.259 1236.02 248.285 1234.19 246.695C1230.63 243.6 1226.89 240.679 1223.26 237.651C1220.84 235.629 1218.66 233.356 1216.07 231.512C1210.45 227.513 1204.63 223.734 1198.93 219.815C1197.29 218.686 1196.07 216.81 1194.19 216.289C1189.27 214.943 1187.24 210.027 1181.72 209.576C1181.4 209.549 1181.21 209.086 1180.91 208.866C1179.52 207.861 1178.22 206.762 1176.73 205.895C1174.12 204.384 1171.42 202.998 1168.72 201.606C1162.47 198.395 1156.06 195.402 1150.01 191.941C1146.57 189.975 1142.57 188.949 1139.23 186.705C1135.47 184.181 1130.65 182.807 1126.26 180.993C1125.08 180.509 1123.65 180.399 1122.54 179.854C1117.65 177.477 1113.11 174.647 1107.61 173.149C1103.77 172.103 1100.09 170.677 1096.41 169.299C1093.64 168.261 1091.01 166.985 1088.27 165.901C1084.22 164.306 1080.34 162.059 1075.96 161.465C1071.7 160.881 1068.82 158.377 1064.68 157.714C1060.97 157.116 1057.77 155.103 1054.19 154.027C1048.87 152.43 1043.46 151.017 1038.34 149.017C1036.07 148.131 1033.34 147.958 1031.19 146.929C1028.51 145.582 1025.48 144.757 1022.28 144.5C1020.46 144.368 1017.82 144.635 1016.58 142.686C1016.31 142.253 1015.12 142.356 1014.38 142.167C1012.76 141.743 1011.15 141.298 1009.54 140.846C1008.16 140.456 1006.82 139.948 1005.4 139.672C1002.84 139.182 1000.19 138.917 997.634 138.394C995.714 137.994 993.932 137.244 992.017 136.803C988.087 135.898 984.118 135.092 980.166 134.255C975.306 133.224 970.478 132.094 965.557 131.202C961.387 130.443 957.058 130.122 952.897 129.337C939.745 126.873 926.597 124.424 913.257 122.492C906.645 121.535 900.039 120.563 893.437 119.574C888.843 118.885 884.297 118.028 879.676 117.418C874.77 116.766 869.788 116.389 864.883 115.73C862.66 115.432 860.627 114.504 858.394 114.281C853.587 113.797 848.668 113.724 843.862 113.234C835.03 112.321 826.259 111.201 817.449 110.222C812.233 109.642 806.996 109.15 801.755 108.671C795.572 108.101 789.384 107.571 783.195 107.041C781.658 106.908 780.102 106.857 778.551 106.764L778.528 106.74Z" fill="#FEFFCE"/>
</g>
</svg>
