<svg width="1440" height="618" viewBox="0 0 1440 618" fill="none" xmlns="http://www.w3.org/2000/svg">
<g opacity="0.5">
<path d="M644.197 96.5623C643.331 96.435 642.441 96.3638 641.531 96.349C626.779 96.8557 611.943 97.66 597.301 97.799C588.588 97.8824 580.16 96.9891 571.661 96.3954C569.703 96.2616 567.45 96.2553 566.604 94.3197C567.844 92.256 569.894 91.9162 571.517 91.4931C578.954 89.5599 586.43 87.4626 593.813 86.1631C602.005 84.7218 610.165 83.851 618.245 83.1531C627.768 82.3306 637.199 81.952 646.666 81.3797C654.172 80.9237 661.679 80.4311 669.17 80.0394C672.629 79.8577 676.047 79.8767 679.473 79.8156C690.222 79.6264 700.974 79.4424 711.728 79.2637C719.139 79.1409 726.598 78.8995 733.955 78.9605C740.212 79.011 746.349 79.45 752.562 79.6269C754.514 79.6786 756.607 79.2934 758.558 79.345C766.519 79.5518 774.443 79.8565 782.392 80.1058C786.055 80.2188 789.745 80.24 793.392 80.3877C800.562 80.68 807.623 81.3252 814.886 81.2843C823.938 81.2347 832.525 82.3427 841.378 82.7587C844.093 82.883 846.44 83.5519 849.027 83.776C851.708 84.0061 854.438 84.0959 857.163 84.2143C862.084 84.427 867.037 84.5558 871.941 84.8249C873.615 84.9179 875.166 85.347 876.797 85.5666C881.65 86.2044 886.36 87.3455 891.416 87.2973C899.122 87.2241 905.793 89.3324 913.182 89.8553C917.036 90.1286 920.965 90.1915 924.789 90.534C926.416 90.7426 927.952 91.1415 929.367 91.7225C931.181 92.3811 932.894 93.0991 935.317 92.2968C935.971 92.2039 936.595 92.2531 937.138 92.4403C948.027 94.1736 958.736 96.3458 969.861 97.5157C977.933 98.3652 985.251 100.685 993.412 101.326C995.153 101.465 996.776 102.236 998.607 102.566C1006.21 103.915 1013.58 105.72 1021.08 107.297C1022.64 107.625 1024.46 107.481 1025.96 107.902C1035.7 110.621 1045.43 113.36 1055.07 116.235C1059.78 117.641 1064.27 119.399 1068.89 120.94C1074.5 122.807 1080.21 124.521 1085.76 126.49C1090.45 128.151 1094.94 130.117 1099.55 131.892C1103.65 133.468 1107.82 134.93 1111.91 136.513C1112.85 136.971 1113.73 137.49 1114.57 138.068C1115.06 138.345 1115.55 138.821 1116.13 138.757C1119.47 138.41 1121.66 139.742 1123.97 141.128C1126.12 142.418 1128.75 143.142 1131.1 144.216C1133.1 145.131 1134.96 146.239 1136.95 147.167C1140.63 148.867 1144.36 150.495 1148.07 152.148C1149.23 152.661 1150.43 153.122 1151.55 153.695C1155.73 155.851 1159.91 158.007 1164.03 160.228C1167.26 161.968 1170.46 163.764 1173.61 165.616C1175.27 166.584 1176.77 167.743 1178.39 168.751C1181.38 170.617 1184.38 172.457 1187.41 174.271C1190.44 176.085 1193.98 177.376 1195.73 180.503C1201.28 182.479 1204.23 187.246 1209.29 189.81C1211.99 191.17 1213.63 193.847 1215.83 195.859C1218.84 198.622 1221.79 201.457 1225.04 203.995C1230.39 208.185 1235.32 212.705 1239.21 218.168C1240.97 220.571 1242.91 222.841 1245.02 224.968C1246.05 226.046 1248 226.443 1248.68 227.691C1251.89 233.616 1256.78 238.375 1259.83 244.358C1262.2 248.997 1265.09 253.313 1267.22 258.059C1269.56 263.473 1271.56 269.078 1273.19 274.852C1274.29 278.513 1275.12 282.298 1275.67 286.187C1277.23 296.972 1277.25 302.741 1275.02 313.872C1273.99 318.96 1273.11 324.032 1270.71 329.167C1270.19 330.287 1270.79 331.583 1270.25 332.693C1269.18 334.642 1267.97 336.556 1266.64 338.419C1265.95 339.351 1265.32 340.304 1264.73 341.272C1262.05 346.308 1259.53 351.38 1256.74 356.392C1255.83 358.031 1254.19 359.469 1253.03 361.066C1250.53 364.562 1248.27 368.176 1245.64 371.611C1242.13 376.209 1238.34 380.68 1234.72 385.225C1233.4 386.866 1232.37 388.678 1230.93 390.212C1226.6 394.819 1222.22 399.396 1217.7 403.856C1214.78 406.74 1211.59 409.41 1208.5 412.151C1206.83 413.623 1205.03 414.965 1203.43 416.482C1197.84 421.807 1191.31 425.898 1185.07 430.363C1180.57 433.589 1176.09 436.839 1171.59 440.063C1170.49 440.843 1169.36 441.558 1168.22 442.279C1164.82 444.423 1161.45 446.638 1158 448.672C1155.43 450.183 1152.72 451.401 1150.12 452.865C1147.2 454.517 1144.36 456.373 1141.44 458.033C1137.98 460.007 1134.5 461.962 1130.97 463.757C1125.87 466.35 1120.77 469.386 1115.57 471.116C1111.26 472.548 1107.35 474.811 1103.24 476.573C1096.89 479.296 1090.54 482.093 1084.14 484.552C1079.56 486.313 1074.9 487.516 1070.28 489.072C1067.61 489.971 1064.78 490.724 1062.34 492.179C1058.46 494.483 1054.56 494.499 1050.69 495.956C1047.05 497.335 1043.31 498.103 1039.61 499.158C1035.74 500.261 1031.78 500.983 1028.01 502.58C1023.75 504.387 1019.54 505.155 1015.32 506.45C1011.66 507.57 1007.85 509.375 1004.41 509.61C1001.41 509.814 998.463 511.308 995.576 511.27C994.596 511.254 993.406 511.858 992.32 512.218C991.658 512.524 990.985 512.787 990.308 513.005C982.923 514.437 975.539 515.803 968.159 517.258C966.545 517.579 964.915 518.259 963.288 518.689C958.921 519.839 954.649 520.236 950.343 520.82C946.724 521.303 943.057 522.037 939.406 522.848C932.732 524.308 926.091 525.324 919.537 525.886C915.662 526.237 911.712 526.96 907.794 527.533C907.384 527.592 906.887 527.904 906.562 527.843C901.657 526.917 896.166 529.557 891.041 529.787C885.608 530.032 879.99 531.002 874.486 531.481C871.944 531.705 869.515 531.408 866.986 531.539C865.157 531.638 863.234 532.121 861.378 532.326C856.797 532.834 852.22 533.334 847.666 533.735C843.557 534.096 839.455 534.428 835.394 534.605C830.468 534.819 825.475 535.422 820.586 535.332C814.124 535.215 807.235 536.416 800.616 536.741C794.524 537.039 788.563 536.809 782.484 537.065C779.885 537.171 777.233 537.586 774.603 537.585C768.148 537.565 761.522 538.08 754.978 538.335C753.921 538.375 752.925 538.151 751.873 538.162C749.523 538.193 747.142 538.323 744.781 538.375C742.541 538.422 740.3 538.44 738.072 538.444C735.298 538.451 732.539 538.409 729.758 538.445C725.123 538.509 720.462 538.658 715.836 538.702C713.454 538.721 711.114 538.584 708.766 538.498C708.242 538.482 707.768 538.214 707.249 538.317C700.271 539.682 694.226 537.995 687.532 538.368C682.365 538.659 677.391 538.173 672.316 538.071C669.322 538.01 666.26 538.145 663.294 538.007C653.133 537.551 643.002 536.981 632.831 536.545C631.357 536.481 629.534 537.259 628.177 537.02C626.64 536.715 625.032 536.558 623.372 536.551C619.437 536.583 615.72 535.879 611.875 535.585C609.191 535.377 606.424 535.385 603.725 535.226C598.914 534.948 594.018 534.857 589.352 534.246C585.996 533.801 582.858 533.122 579.067 533.691C576.558 534.068 574.17 533.423 571.769 533.129C565.267 532.343 558.797 531.488 552.293 530.723C551.488 530.63 550.336 530.619 549.669 531.076C548.618 531.796 548.327 531.4 547.62 531.158C545.83 530.511 543.937 530.024 541.962 529.704C537.396 529.019 532.799 528.388 528.132 527.924C523.186 527.443 518.145 527.183 513.142 526.826C512.735 526.862 512.347 526.822 512.003 526.707C509.122 524.708 505.052 525.259 501.336 525.116C498.97 525.097 496.751 524.673 494.782 523.865C492.799 522.998 490.1 523.112 487.716 522.799C482.846 522.166 477.946 521.617 473.124 520.88C468.184 520.126 463.35 519.159 458.426 518.371C453.118 517.52 447.394 517.355 442.549 515.781C438.899 514.593 434.61 514.803 431.197 513.015C428.561 511.641 424.581 511.947 421.198 511.513C420.328 511.403 419.386 511.43 418.557 511.244C412.238 509.85 406.065 508.153 399.584 507.111C396.214 506.568 393.279 505.461 390.16 504.578C386.558 503.559 382.759 502.874 379.048 502.046C375.784 501.319 372.472 500.681 369.262 499.851C364.337 498.584 359.604 496.945 354.544 495.938C351.883 495.409 349.515 494.206 346.876 493.996C341.409 493.558 337.251 491.08 332.179 490.086C330.041 489.669 328.316 488.462 326.301 487.775C324.873 487.29 323.223 487.141 321.759 486.702C320.054 486.192 318.452 485.505 316.773 484.939C313.786 483.928 310.791 482.93 307.788 481.945C302.685 480.276 298.379 477.431 292.784 476.45C290.614 476.072 288.842 474.903 286.836 474.165C281.422 472.178 275.975 470.231 270.547 468.257C270 468.052 269.478 467.81 268.985 467.531C266.66 466.268 264.415 464.972 261.442 464.545C259.388 464.25 257.722 463.075 255.913 462.262C254.009 461.413 252.42 460.167 249.922 460.118C248.876 460.101 248.166 459.107 247.25 458.628C242.747 456.293 238.615 453.325 233.582 451.858C229.207 450.58 225.858 448.219 222.045 446.374C216.093 443.394 210.417 440.068 205.041 436.41C201.737 434.225 198.446 432.027 195.129 429.854C193.054 428.494 190.791 427.321 188.881 425.793C185.293 422.941 181.755 420.028 178.472 416.895C174.7 413.3 171.224 409.431 167.625 405.684C166.414 404.419 165.092 403.234 163.993 401.881C161.104 398.325 157.915 394.954 155.568 391.033C153.383 387.387 152.129 383.121 150.474 379.123C150.303 378.707 150.172 378.268 149.957 377.883C148.096 374.588 147.044 370.812 146.853 366.745C146.705 363.56 145.53 360.685 145.326 357.507C144.958 351.71 145.282 345.754 147.321 339.513C147.693 338.379 147.765 337.239 148.075 336.097C148.512 334.449 148.695 332.713 149.584 331.174C153.317 324.741 156.581 318.175 161.232 311.992C166.095 305.523 170.916 299.018 176.585 293.011C180.322 289.05 184.387 285.305 188.397 281.537C192.924 277.284 197.509 273.085 202.153 268.942C204.139 267.162 206.322 265.566 208.412 263.882C213.285 259.951 218.172 256.022 223.038 252.075C226.964 248.893 230.864 245.67 234.815 242.513C235.904 241.713 237.025 240.959 238.172 240.252C239.274 239.504 240.532 238.88 241.439 237.978C246.138 233.3 251.762 229.933 257.207 226.284C260.695 223.945 263.671 221.003 267.298 218.729C275.132 213.822 282.607 208.215 290.486 203.402C300.13 197.517 310.009 192.085 319.848 186.581C324.384 184.046 329.005 181.679 333.657 179.472C341.225 175.883 348.853 172.488 356.449 168.999C358.56 168.027 360.634 166.894 362.769 166.013C371.639 162.369 380.519 158.733 389.414 155.224C393.724 153.521 398.088 152.119 402.427 150.545C408.543 148.326 414.646 146.024 420.761 143.857C424.033 142.697 427.326 141.703 430.615 140.685C440.691 137.575 450.768 134.384 460.851 131.437C466.015 129.93 471.206 128.927 476.387 127.607C483.764 125.724 491.149 123.599 498.523 121.885C505.637 120.223 512.733 118.956 519.835 117.498C528.724 115.677 537.63 113.756 546.512 112.03C553.928 110.595 561.332 109.314 568.728 108.083C579.653 106.259 590.59 104.408 601.489 102.803C613.099 101.093 624.664 99.6417 636.246 98.1046C638.804 97.7642 641.353 97.5255 643.9 97.2424C644.001 97.0061 644.099 96.7768 644.193 96.5396L644.197 96.5623ZM800.932 99.5149C800.835 99.6928 800.746 99.8717 800.65 100.05C803.144 101.573 805.743 102.979 808.079 104.671C809.036 105.43 809.669 106.481 809.914 107.714C809.925 108.164 809.817 108.641 809.597 109.108C809.377 109.574 809.052 110.017 808.647 110.401C808.194 110.726 807.696 110.974 807.186 111.128C806.677 111.283 806.168 111.34 805.694 111.297C804.474 111.129 803.514 110.409 802.413 109.963C794.929 106.927 787.645 103.359 778.892 102.61C768.529 101.727 757.76 101.825 747.093 101.716C738.033 101.624 728.908 101.737 719.751 101.971C709.367 102.242 698.985 102.462 688.484 103.247C677.057 104.106 665.51 105.486 653.979 106.831C644.895 107.886 635.762 109.192 626.641 110.456C621.597 111.155 616.537 111.984 611.485 112.748C603.565 113.948 595.667 115.004 587.727 116.393C579.05 117.912 570.343 119.752 561.649 121.453C555.77 122.607 549.891 123.695 544.005 124.929C537.969 126.201 531.921 127.625 525.875 128.984C521.216 130.033 516.551 131.045 511.89 132.13C507.072 133.252 502.258 134.463 497.437 135.607C490.041 137.369 482.649 138.948 475.254 140.902C468.862 142.594 462.472 144.929 456.077 146.599C443.226 150.049 430.401 154.309 417.701 159.346C408.787 162.815 399.788 165.696 390.934 169.822C385.133 172.529 378.997 174.147 373.119 177.005C368.24 179.372 363.222 181.284 358.316 183.581C351.374 186.831 344.555 190.682 337.536 193.472C331.283 195.958 325.875 200.027 319.948 203.025C317.551 204.203 315.193 205.494 312.886 206.892C306.558 210.828 300.265 214.85 293.982 218.867C288.582 222.324 282.983 225.539 277.89 229.401C272.838 233.226 267.355 236.332 262.407 240.282C258.319 243.544 254.363 247.017 249.749 249.562C249.631 249.626 249.544 249.783 249.434 249.878C247.388 251.612 245.392 253.412 243.276 255.07C238.713 258.662 234.067 262.147 229.504 265.739C226.332 268.24 223.257 270.852 220.128 273.403C210.636 281.162 201.307 289.062 193.524 298.335C193.071 298.874 192.396 299.286 191.887 299.803C189.608 302.123 186.942 304.292 185.171 306.825C181.899 311.509 177.408 315.635 174.958 320.681C174.526 321.407 174.041 322.117 173.508 322.803C169.888 328.015 167.327 333.574 165.994 339.12C164.609 345.395 164.872 351.406 165.87 357.147C166.331 359.779 166.723 362.512 167.787 364.825C170 369.634 172.611 374.22 175.127 378.851C176.338 381.082 177.587 383.297 179.781 384.799C180.396 385.294 180.919 385.877 181.338 386.534C182.936 388.629 184.311 390.906 186.132 392.805C188.43 395.207 191.101 397.294 193.589 399.539C197.534 403.092 200.989 407.202 205.556 410.04C208.841 412.075 212.192 413.98 215.184 416.364C217.732 418.246 220.438 419.962 223.29 421.502C225.971 423.067 228.77 424.487 231.514 425.98C234.3 427.493 237.434 428.681 239.766 430.638C241.675 432.232 244.111 432.707 246.491 433.433C247.643 433.782 249.087 433.946 249.784 434.709C251.662 436.756 254.524 437.411 257.157 438.438C259.79 439.465 262.903 439.86 264.756 441.962C265.225 442.28 265.78 442.497 266.394 442.603C268.855 443.458 271.339 444.279 273.78 445.161C275.419 445.75 276.997 446.441 278.633 447.038C281.859 448.216 285.391 449.018 288.283 450.606C291.414 452.317 294.926 453.323 298.446 454.374C299.588 454.715 300.758 455.023 301.841 455.459C306.997 457.527 311.815 460.173 317.328 461.606C325.651 463.775 333.422 466.764 341.453 469.362C344.406 470.317 347.485 471.077 350.516 471.91C356.366 473.524 361.892 475.719 368.24 476.454C368.351 476.495 368.457 476.544 368.555 476.602C371.336 477.547 373.999 478.719 376.934 479.391C384.813 481.194 392.817 482.771 400.761 484.465C402.796 484.897 404.726 485.528 406.786 485.905C409.457 486.399 412.287 486.577 414.906 487.167C418.978 487.999 422.929 489.058 426.741 490.342C428.196 490.868 429.848 490.043 431.38 490.801C434.265 492.233 437.602 493.036 441.207 493.164C445.881 493.289 450.113 494.155 454.407 495.015C456.532 495.446 459.321 494.858 461.08 495.686C466.555 498.264 473.468 497.863 479.486 499.303C485.89 500.834 492.823 501.402 499.538 502.352C501.412 502.621 503.41 502.62 505.252 502.944C510.359 503.847 515.177 505.365 520.773 505.232C521.964 505.125 523.115 505.181 524.19 505.398C529.756 507.038 536.185 506.759 541.983 507.843C547.089 508.797 553.106 507.648 557.684 509.803C558.03 509.912 558.409 509.964 558.807 509.957C563.291 510.224 567.84 510.317 572.243 510.78C578.868 511.473 585.37 512.437 592.228 512.588C599.001 512.735 605.676 513.207 612.282 513.831C615.639 514.144 619.427 513.146 622.51 514.238C623.492 514.615 624.594 514.803 625.763 514.794C630.275 514.631 634.809 514.338 638.844 515.507C639.834 515.669 640.885 515.691 641.968 515.572C643.937 515.538 645.964 515.328 647.87 515.447C654.05 515.825 660.19 516.324 666.342 516.779C670.611 514.893 673.493 517.629 677.637 516.61C680.222 515.971 682.937 516.206 685.322 516.615C692.134 517.77 699.405 517.376 706.68 517.086C708.928 517.082 711.134 517.21 713.286 517.467C713.996 517.64 714.731 517.765 715.487 517.842C722.284 517.469 729.225 516.637 735.874 516.714C744.787 516.822 753.677 516.948 762.791 516.391C766.794 516.147 770.711 516.238 774.66 516.208C779.342 516.172 784.012 516.194 788.706 516.116C789.642 516.003 790.59 515.808 791.537 515.534C792.333 515.343 793.126 515.218 793.905 515.159C796.936 515.108 799.942 515.141 802.963 515.111C806.834 515.076 810.773 514.794 814.665 514.697C821.054 514.523 827.621 513.718 834.082 513.289C835.913 513.169 837.615 513.605 839.453 513.471C844.136 513.126 848.863 512.588 853.564 512.157C855.962 511.941 858.326 511.882 860.733 511.616C866.508 510.978 872.326 510.088 878.063 509.628C887.805 508.845 897.574 507.903 907.434 506.472C909.92 506.114 912.386 506.217 914.864 505.585C917.908 504.813 920.86 503.968 923.717 504.408C924.759 504.455 925.856 504.326 926.958 504.026C930.767 503.29 934.585 502.452 938.391 501.752C946.311 500.294 954.221 499.099 962.155 497.385C966.178 496.517 970.127 496.377 974.327 494.576C977.232 493.334 980.464 493.599 983.566 493.071C984.604 492.896 986.076 493.431 986.627 491.52C987.083 491.433 987.537 491.373 987.985 491.338C990.804 490.976 993.811 491.298 996.416 490.116C1002.1 487.54 1007.94 487.789 1013.48 484.536C1013.82 484.341 1014.28 484.415 1014.68 484.384C1019.25 483.957 1023.94 482.715 1028.49 480.726C1030.61 479.844 1032.84 478.763 1035.22 478.78C1036.94 478.791 1039 477.847 1040.88 477.197C1042.77 476.546 1044.63 475.633 1046.52 475.019C1051.97 473.244 1057.45 471.612 1062.91 469.792C1064.35 469.313 1065.72 468.153 1067.16 467.645C1072.33 465.821 1077.52 464.148 1082.7 462.392C1083.92 461.977 1085.45 461.725 1086.27 460.929C1088.27 459.003 1090.5 459.013 1092.61 458.226C1093.54 457.88 1094.55 457.892 1095.45 457.491C1098 456.381 1100.5 454.736 1103.03 454.059C1105.69 453.349 1107.91 451.256 1110.57 450.872C1111.09 450.799 1111.7 450.002 1112.29 449.578C1112.94 449.042 1113.64 448.577 1114.38 448.197C1121.17 445.266 1127.86 441.957 1134.4 438.293C1136.72 437.01 1139.14 436.001 1141.51 434.851C1142.14 434.551 1142.77 434.198 1143.36 433.797C1145.57 432.264 1147.72 430.611 1149.97 429.172C1152.35 427.655 1154.87 426.41 1157.24 424.885C1158.54 424.046 1159.58 422.44 1160.85 421.953C1163.85 420.811 1166.3 419.018 1168.76 416.99C1170.94 415.208 1173.19 413.209 1175.63 412.113C1178.46 410.838 1180.27 408.82 1181.94 406.767C1183.74 404.57 1185.96 403.037 1188.17 401.401C1189.16 400.741 1190.11 400.042 1191.04 399.306C1193.75 396.959 1196.23 394.269 1199.14 392.247C1202.21 390.114 1203.69 386.897 1206.72 384.862C1207.82 384.132 1208.84 383.269 1209.72 382.307C1211.68 380.132 1213.52 377.874 1215.36 375.64C1218.07 372.378 1220.79 369.133 1223.43 365.832C1224.95 363.934 1226.08 361.76 1227.81 360.053C1230.53 357.355 1232.17 354.213 1233.75 351.276C1235.47 348.057 1237.97 345.245 1239.75 342.132C1241.2 339.618 1243 337.155 1244.08 334.605C1245.07 332.313 1245.95 330.02 1247.14 327.751C1247.55 327.03 1247.86 326.286 1248.05 325.544C1248.89 321.675 1249.38 317.815 1250.58 313.953C1251.24 311.8 1251.54 309.977 1250.86 308.22C1250.76 307.772 1250.75 307.29 1250.83 306.792C1251 304.015 1251.65 301.063 1251.27 298.494C1250.16 290.901 1248.54 283.5 1245.43 276.816C1244.69 275.219 1245.55 272.423 1242.53 272.344C1242.34 272.338 1242.18 271.733 1242.29 271.417C1242.71 270.223 1241.58 269.825 1241.45 269.142C1240.85 265.959 1239.03 263.663 1237.28 261.222C1235.89 259.281 1235.32 256.736 1234.01 254.72C1232.48 252.354 1229.66 250.917 1229.2 247.747C1228.99 247.222 1228.57 246.824 1228.02 246.61C1225.28 245.118 1224.19 242.286 1222.28 240.13C1220.81 238.482 1219.77 236.474 1218.26 234.87C1215.32 231.75 1212.17 228.812 1209.15 225.761C1207.14 223.724 1205.4 221.424 1203.19 219.574C1198.41 215.561 1193.39 211.78 1188.52 207.85C1187.12 206.719 1186.24 204.81 1184.5 204.309C1179.98 203.018 1178.8 197.989 1173.55 197.633C1173.24 197.611 1173.13 197.137 1172.88 196.917C1171.7 195.908 1170.62 194.8 1169.32 193.935C1167.04 192.429 1164.65 191.053 1162.27 189.671C1156.76 186.483 1151.04 183.524 1145.76 180.074C1142.75 178.115 1139.06 177.135 1136.2 174.888C1132.97 172.359 1128.54 171.038 1124.59 169.253C1123.53 168.777 1122.17 168.692 1121.18 168.152C1116.85 165.797 1112.91 162.968 1107.85 161.532C1104.3 160.53 1100.98 159.131 1097.65 157.782C1095.15 156.766 1092.81 155.502 1090.34 154.439C1086.68 152.874 1083.3 150.634 1079.17 150.107C1075.15 149.588 1072.77 147.063 1068.88 146.461C1065.4 145.917 1062.64 143.905 1059.35 142.865C1054.47 141.324 1049.48 139.973 1044.86 138.011C1042.81 137.142 1040.2 137.018 1038.29 135.999C1035.92 134.663 1033.13 133.871 1030.08 133.669C1028.35 133.568 1025.75 133.896 1024.87 131.911C1024.67 131.47 1023.52 131.599 1022.83 131.419C1021.34 131.013 1019.85 130.586 1018.37 130.152C1017.1 129.777 1015.89 129.279 1014.56 129.022C1012.17 128.568 1009.65 128.347 1007.28 127.858C1005.49 127.483 1003.89 126.744 1002.11 126.327C998.462 125.471 994.76 124.718 991.081 123.932C986.556 122.965 982.079 121.894 977.474 121.071C973.571 120.37 969.446 120.124 965.556 119.396C953.26 117.114 940.965 114.847 928.403 113.116C922.176 112.259 915.958 111.386 909.746 110.496C905.424 109.875 901.174 109.081 896.814 108.543C892.184 107.967 887.438 107.676 882.811 107.093C880.713 106.828 878.9 105.911 876.781 105.725C872.22 105.321 867.486 105.342 862.928 104.93C854.553 104.163 846.269 103.179 837.926 102.343C832.986 101.847 828.012 101.442 823.032 101.052C817.158 100.584 811.272 100.159 805.386 99.7343C803.924 99.6275 802.431 99.6048 800.95 99.5396L800.932 99.5149Z" fill="#F4E8FF"/>
</g>
</svg>
