<svg width="1440" height="618" viewBox="0 0 1440 618" fill="none" xmlns="http://www.w3.org/2000/svg">
<g opacity="0.5">
<path d="M609.047 101.445C608.13 101.302 607.195 101.212 606.248 101.177C591.017 101.33 575.744 101.77 560.571 101.569C551.542 101.45 542.661 100.392 533.751 99.6217C531.699 99.4473 529.361 99.3895 528.189 97.495C529.162 95.5241 531.237 95.2418 532.857 94.8691C540.281 93.1666 547.72 91.306 555.184 90.2162C563.466 89.0075 571.801 88.3508 580.08 87.8598C589.837 87.2812 599.566 87.1304 609.303 86.7928C617.022 86.523 624.738 86.2178 632.451 86.0099C636.013 85.9131 639.563 86.0098 643.108 86.0291C654.234 86.092 665.363 86.1601 676.495 86.2333C684.168 86.2841 691.871 86.221 699.515 86.4487C706.015 86.6409 712.45 87.2068 718.925 87.5206C720.958 87.6154 723.071 87.2901 725.104 87.3848C733.396 87.7675 741.665 88.2442 749.951 88.6678C753.77 88.8613 757.602 88.9663 761.409 89.1929C768.894 89.6403 776.318 90.4272 783.85 90.554C793.235 90.7133 802.315 91.9834 811.564 92.5892C814.4 92.7718 816.937 93.4736 819.656 93.75C822.473 94.0343 825.32 94.1838 828.165 94.3609C833.304 94.6798 838.464 94.918 843.593 95.291C845.345 95.4195 847.019 95.8707 848.745 96.1208C853.877 96.85 858.939 98.0633 864.178 98.1324C872.163 98.2381 879.406 100.433 887.153 101.109C891.194 101.462 895.281 101.613 899.3 102.033C901.02 102.272 902.675 102.694 904.232 103.289C906.214 103.969 908.101 104.703 910.494 103.982C911.158 103.907 911.812 103.968 912.405 104.162C923.967 106.091 935.411 108.441 947.132 109.829C955.638 110.837 963.584 113.251 972.15 114.059C973.978 114.234 975.779 115.019 977.73 115.38C985.821 116.861 993.751 118.778 1001.77 120.479C1003.44 120.832 1005.3 120.734 1006.92 121.176C1017.44 124.034 1027.95 126.91 1038.4 129.916C1043.5 131.386 1048.42 133.192 1053.45 134.791C1059.56 136.728 1065.75 138.519 1071.8 140.554C1076.92 142.271 1081.88 144.278 1086.94 146.104C1091.42 147.724 1095.98 149.236 1100.46 150.863C1101.5 151.328 1102.5 151.852 1103.46 152.43C1104.01 152.71 1104.59 153.182 1105.19 153.134C1108.59 152.874 1111.07 154.215 1113.67 155.61C1116.1 156.909 1118.94 157.671 1121.54 158.766C1123.76 159.698 1125.86 160.814 1128.07 161.758C1132.14 163.489 1136.26 165.152 1140.36 166.839C1141.64 167.362 1142.96 167.836 1144.21 168.417C1148.87 170.602 1153.54 172.786 1158.15 175.033C1161.77 176.792 1165.36 178.605 1168.91 180.472C1170.78 181.448 1172.51 182.605 1174.35 183.618C1177.73 185.495 1181.13 187.346 1184.54 189.172C1187.96 190.999 1191.84 192.331 1194.13 195.401C1200.18 197.442 1203.96 202.128 1209.61 204.728C1212.62 206.107 1214.73 208.738 1217.31 210.737C1220.86 213.484 1224.35 216.297 1228.11 218.831C1234.29 223.012 1240.1 227.505 1244.96 232.886C1247.16 235.254 1249.52 237.498 1252.03 239.607C1253.26 240.675 1255.34 241.105 1256.23 242.328C1260.47 248.143 1266.27 252.865 1270.34 258.731C1273.5 263.279 1277.16 267.527 1280.1 272.174C1283.35 277.473 1286.27 282.948 1288.84 288.579C1290.53 292.152 1291.97 295.838 1293.13 299.618C1296.39 310.102 1297.29 315.691 1296.66 326.424C1296.37 331.33 1296.22 336.223 1294.52 341.143C1294.15 342.216 1294.97 343.485 1294.58 344.548C1293.76 346.412 1292.8 348.239 1291.7 350.013C1291.13 350.9 1290.61 351.808 1290.15 352.733C1288.14 357.55 1286.29 362.407 1284.16 367.199C1283.46 368.765 1281.97 370.12 1281.02 371.641C1278.95 374.971 1277.16 378.42 1274.95 381.688C1272.01 386.062 1268.76 390.307 1265.68 394.627C1264.57 396.186 1263.77 397.918 1262.51 399.371C1258.72 403.735 1254.87 408.069 1250.85 412.287C1248.26 415.014 1245.36 417.527 1242.56 420.112C1241.06 421.5 1239.4 422.758 1237.97 424.192C1232.97 429.222 1226.82 433.036 1221.02 437.219C1216.85 440.241 1212.69 443.287 1208.51 446.308C1207.49 447.038 1206.42 447.705 1205.35 448.377C1202.15 450.377 1198.99 452.445 1195.71 454.336C1193.27 455.741 1190.65 456.859 1188.18 458.218C1185.4 459.752 1182.73 461.485 1179.95 463.026C1176.66 464.859 1173.35 466.673 1169.96 468.331C1165.06 470.726 1160.23 473.551 1155.09 475.108C1150.84 476.396 1147.13 478.499 1143.13 480.112C1136.95 482.604 1130.79 485.169 1124.52 487.404C1120.04 489.006 1115.38 490.065 1110.83 491.466C1108.19 492.276 1105.37 492.941 1103.05 494.294C1099.38 496.438 1095.34 496.363 1091.55 497.687C1087.97 498.939 1084.21 499.597 1080.53 500.535C1076.68 501.514 1072.68 502.123 1069.02 503.585C1064.87 505.237 1060.62 505.885 1056.43 507.043C1052.81 508.044 1049.13 509.705 1045.59 509.854C1042.51 509.983 1039.68 511.363 1036.68 511.26C1035.66 511.222 1034.52 511.779 1033.44 512.104C1032.8 512.385 1032.15 512.625 1031.48 512.821C1024.03 514.039 1016.58 515.193 1009.14 516.433C1007.51 516.707 1005.92 517.329 1004.3 517.708C999.944 518.722 995.571 519.009 991.191 519.476C987.51 519.861 983.815 520.488 980.15 521.19C973.447 522.452 966.71 523.284 959.994 523.678C956.026 523.929 952.037 524.539 948.059 525.004C947.642 525.052 947.174 525.343 946.827 525.276C941.596 524.267 936.299 526.699 931.017 526.805C925.416 526.918 919.733 527.729 914.095 528.066C911.491 528.225 908.925 527.882 906.321 527.951C904.438 528.004 902.515 528.429 900.621 528.585C895.944 528.972 891.27 529.351 886.606 529.635C882.397 529.891 878.19 530.119 874.003 530.197C868.924 530.292 863.835 530.762 858.747 530.562C852.024 530.301 845.058 531.307 838.238 531.47C831.962 531.619 825.742 531.26 819.472 531.368C816.792 531.411 814.103 531.753 811.373 531.691C804.672 531.524 797.874 531.872 791.123 531.969C790.032 531.984 788.964 531.744 787.875 531.73C785.44 531.707 782.989 531.778 780.548 531.774C778.231 531.769 775.908 531.734 773.596 531.687C770.718 531.631 767.849 531.526 764.969 531.497C760.168 531.454 755.355 531.491 750.561 531.428C748.092 531.392 745.643 531.205 743.193 531.068C742.647 531.04 742.114 530.77 741.592 530.858C734.558 532.02 728.028 530.248 721.139 530.456C715.822 530.619 710.587 530.035 705.304 529.819C702.188 529.692 699.032 529.753 695.933 529.551C685.319 528.876 674.72 528.091 664.099 527.436C662.56 527.34 660.787 528.052 659.342 527.79C657.701 527.459 656.008 527.27 654.285 527.225C650.206 527.166 646.242 526.4 642.207 526.027C639.391 525.763 636.52 525.708 633.696 525.492C628.661 525.113 623.567 524.912 618.632 524.213C615.082 523.705 611.722 522.975 607.875 523.44C605.328 523.747 602.753 523.068 600.217 522.729C593.35 521.818 586.506 520.841 579.641 519.951C578.791 519.842 577.594 519.806 576.972 520.234C575.99 520.906 575.628 520.516 574.857 520.266C572.902 519.597 570.864 519.083 568.765 518.727C563.923 517.959 559.057 517.243 554.143 516.686C548.938 516.106 543.668 515.74 538.422 515.279C538.004 515.305 537.596 515.257 537.221 515.137C533.929 513.135 529.789 513.575 525.911 513.352C523.453 513.279 521.085 512.818 518.92 511.99C516.73 511.104 513.947 511.153 511.425 510.795C506.276 510.07 501.107 509.426 495.991 508.602C490.751 507.759 485.588 506.711 480.359 505.835C474.721 504.889 468.756 504.597 463.49 502.962C459.522 501.727 455.102 501.832 451.29 500.022C448.346 498.631 444.262 498.836 440.686 498.338C439.765 498.211 438.793 498.216 437.904 498.017C431.135 496.521 424.471 494.735 417.588 493.578C414.008 492.975 410.794 491.835 407.424 490.908C403.531 489.839 399.485 489.087 395.508 488.2C392.01 487.421 388.477 486.727 385.02 485.85C379.716 484.509 374.556 482.813 369.152 481.722C366.31 481.148 363.67 479.928 360.9 479.665C355.161 479.115 350.47 476.62 345.055 475.541C342.773 475.087 340.8 473.879 338.605 473.167C337.049 472.664 335.314 472.482 333.728 472.023C331.881 471.49 330.115 470.787 328.286 470.201C325.034 469.153 321.774 468.117 318.508 467.095C312.959 465.361 308.058 462.505 302.104 461.427C299.794 461.011 297.778 459.838 295.584 459.078C289.664 457.029 283.716 455.017 277.784 452.98C277.184 452.769 276.606 452.523 276.053 452.242C273.447 450.965 270.922 449.658 267.771 449.176C265.595 448.843 263.688 447.666 261.687 446.837C259.582 445.971 257.744 444.728 255.144 444.623C254.056 444.582 253.169 443.603 252.146 443.119C247.118 440.753 242.379 437.783 236.934 436.246C232.199 434.909 228.366 432.544 224.128 430.669C217.499 427.646 211.104 424.294 204.969 420.627C201.209 418.434 197.46 416.229 193.688 414.049C191.328 412.684 188.801 411.495 186.587 409.971C182.431 407.125 178.316 404.223 174.434 401.112C169.974 397.543 165.779 393.715 161.475 390.003C160.026 388.749 158.474 387.571 157.129 386.235C153.59 382.724 149.769 379.385 146.737 375.533C143.916 371.95 141.967 367.789 139.641 363.877C139.401 363.471 139.199 363.042 138.918 362.665C136.486 359.43 134.82 355.747 134.004 351.803C133.366 348.714 131.71 345.902 131.016 342.818C129.754 337.194 129.185 331.431 130.352 325.432C130.566 324.342 130.468 323.239 130.615 322.139C130.819 320.552 130.745 318.875 131.434 317.404C134.33 311.258 136.72 304.972 140.607 299.088C144.67 292.932 148.684 286.741 153.654 281.051C156.93 277.299 160.58 273.764 164.168 270.206C168.22 266.189 172.34 262.226 176.529 258.319C178.32 256.64 180.343 255.143 182.256 253.56C186.715 249.864 191.189 246.169 195.639 242.457C199.229 239.464 202.787 236.431 206.407 233.463C207.416 232.713 208.464 232.008 209.547 231.35C210.577 230.649 211.788 230.075 212.591 229.221C216.757 224.796 222.082 221.664 227.177 218.253C230.441 216.068 233.082 213.285 236.502 211.165C243.885 206.591 250.79 201.33 258.234 196.848C267.348 191.367 276.775 186.331 286.148 181.224C290.469 178.873 294.905 176.685 299.397 174.653C306.706 171.35 314.105 168.235 321.458 165.03C323.5 164.136 325.48 163.086 327.562 162.282C336.212 158.954 344.875 155.635 353.572 152.44C357.786 150.888 362.101 149.63 366.365 148.205C372.375 146.195 378.358 144.105 384.373 142.145C387.593 141.097 390.859 140.209 394.117 139.298C404.101 136.516 414.073 133.655 424.088 131.031C429.218 129.689 434.452 128.837 439.628 127.677C446.997 126.021 454.338 124.132 461.729 122.641C468.859 121.193 476.029 120.128 483.177 118.878C492.125 117.318 501.075 115.661 510.03 114.193C517.507 112.972 524.996 111.9 532.484 110.877C543.543 109.361 554.611 107.818 565.677 106.512C577.465 105.122 589.245 103.981 601.031 102.757C603.634 102.486 606.243 102.313 608.843 102.097C608.911 101.871 608.978 101.651 609.039 101.423L609.047 101.445ZM772.139 107.896C772.066 108.066 772 108.237 771.928 108.408C774.747 109.94 777.658 111.362 780.339 113.055C781.447 113.812 782.264 114.845 782.705 116.045C782.786 116.481 782.746 116.941 782.588 117.388C782.431 117.835 782.161 118.256 781.799 118.619C781.378 118.923 780.899 119.152 780.394 119.29C779.888 119.428 779.369 119.472 778.871 119.419C777.579 119.229 776.473 118.509 775.263 118.052C767.036 114.939 758.935 111.315 749.739 110.39C738.85 109.297 727.691 109.145 716.605 108.795C707.189 108.499 697.738 108.399 688.271 108.415C677.537 108.44 666.797 108.415 656.019 108.935C644.292 109.506 632.519 110.578 620.758 111.617C611.491 112.431 602.213 113.488 592.94 114.503C587.812 115.064 582.687 115.752 577.561 116.376C569.525 117.358 561.49 118.2 553.462 119.363C544.688 120.636 535.933 122.219 527.169 123.668C521.243 124.651 515.309 125.57 509.388 126.631C503.317 127.725 497.259 128.967 491.191 130.144C486.515 131.054 481.829 131.927 477.157 132.872C472.328 133.849 467.516 134.912 462.687 135.91C455.28 137.447 447.849 138.807 440.472 140.531C434.097 142.024 427.82 144.139 421.438 145.61C408.627 148.659 395.965 152.492 383.552 157.081C374.829 160.237 365.928 162.822 357.368 166.617C351.759 169.106 345.637 170.534 339.972 173.168C335.269 175.349 330.352 177.086 325.61 179.199C318.9 182.189 312.409 185.763 305.55 188.305C299.439 190.571 294.445 194.388 288.75 197.157C286.442 198.244 284.191 199.441 282.009 200.742C276.041 204.41 270.122 208.163 264.212 211.91C259.133 215.135 253.812 218.122 249.114 221.747C244.452 225.336 239.234 228.22 234.7 231.933C230.954 235 227.376 238.274 222.975 240.634C222.862 240.693 222.796 240.844 222.697 240.933C220.836 242.566 219.038 244.264 217.095 245.822C212.906 249.197 208.614 252.467 204.424 255.842C201.513 258.193 198.719 260.652 195.86 263.053C187.188 270.352 178.708 277.792 172.041 286.597C171.652 287.109 171.014 287.492 170.564 287.981C168.553 290.177 166.116 292.217 164.663 294.63C161.979 299.094 157.946 302.988 156.17 307.821C155.832 308.514 155.437 309.19 154.987 309.843C152.022 314.809 150.21 320.136 149.669 325.478C149.186 331.526 150.372 337.356 152.28 342.94C153.158 345.5 153.98 348.157 155.435 350.423C158.463 355.132 161.868 359.634 165.182 364.178C166.779 366.368 168.411 368.542 170.916 370.048C171.63 370.542 172.261 371.118 172.795 371.765C174.772 373.831 176.545 376.068 178.723 377.949C181.473 380.329 184.561 382.412 187.484 384.644C192.118 388.177 196.327 392.237 201.498 395.092C205.215 397.139 208.982 399.06 212.449 401.438C215.38 403.32 218.448 405.044 221.641 406.603C224.661 408.18 227.782 409.619 230.856 411.129C233.977 412.659 237.41 413.881 240.127 415.831C242.35 417.419 244.95 417.935 247.53 418.692C248.778 419.057 250.301 419.248 251.14 420.004C253.401 422.03 256.47 422.73 259.358 423.785C262.246 424.84 265.537 425.295 267.779 427.374C268.314 427.692 268.923 427.915 269.576 428.032C272.26 428.917 274.962 429.769 277.629 430.679C279.42 431.288 281.162 431.993 282.95 432.609C286.477 433.824 290.264 434.682 293.506 436.287C297.015 438.016 300.812 439.071 304.625 440.17C305.861 440.526 307.123 440.852 308.313 441.299C313.978 443.42 319.379 446.094 325.317 447.609C334.284 449.9 342.802 452.974 351.53 455.675C354.739 456.668 358.05 457.475 361.322 458.351C367.638 460.049 373.705 462.302 380.405 463.159C380.526 463.202 380.643 463.252 380.754 463.311C383.783 464.29 386.724 465.486 389.872 466.204C398.322 468.131 406.868 469.842 415.368 471.665C417.546 472.131 419.644 472.786 421.84 473.199C424.686 473.739 427.65 473.976 430.457 474.607C434.809 475.506 439.07 476.624 443.221 477.954C444.81 478.497 446.4 477.736 448.105 478.506C451.316 479.959 454.901 480.813 458.661 481.019C463.53 481.248 468.053 482.184 472.64 483.116C474.91 483.581 477.715 483.076 479.666 483.918C485.739 486.541 492.851 486.311 499.316 487.844C506.193 489.474 513.475 490.183 520.586 491.257C522.572 491.561 524.645 491.606 526.605 491.961C532.042 492.953 537.273 494.534 543.059 494.534C544.279 494.457 545.483 494.538 546.631 494.773C552.655 496.489 559.285 496.366 565.466 497.549C570.909 498.591 576.978 497.615 582.056 499.807C582.432 499.922 582.833 499.981 583.246 499.982C587.939 500.344 592.674 500.539 597.312 501.088C604.293 501.911 611.186 502.993 618.326 503.297C625.376 503.595 632.375 504.205 639.324 504.961C642.856 505.34 646.635 504.461 650 505.589C651.077 505.977 652.248 506.184 653.461 506.202C658.117 506.147 662.778 505.968 667.142 507.193C668.194 507.372 669.289 507.418 670.394 507.328C672.432 507.34 674.504 507.182 676.5 507.341C682.97 507.85 689.417 508.473 695.871 509.055C700.014 507.325 703.42 510.043 707.566 509.15C710.151 508.59 713.004 508.88 715.541 509.331C722.786 510.606 730.27 510.391 737.775 510.276C740.108 510.325 742.416 510.498 744.688 510.797C745.451 510.98 746.233 511.119 747.03 511.211C754.026 511.005 761.102 510.358 768.014 510.585C777.279 510.893 786.523 511.219 795.896 510.889C800.013 510.744 804.091 510.922 808.185 510.983C813.038 511.056 817.887 511.184 822.746 511.216C823.7 511.127 824.654 510.96 825.596 510.717C826.393 510.55 827.196 510.447 827.996 510.408C831.133 510.428 834.258 510.529 837.388 510.568C841.399 510.624 845.445 510.441 849.469 510.436C856.072 510.413 862.764 509.784 869.403 509.517C871.285 509.442 873.118 509.904 875.004 509.816C879.812 509.589 884.636 509.176 889.448 508.866C891.904 508.712 894.347 508.709 896.804 508.506C902.701 508.02 908.602 507.291 914.487 506.978C924.476 506.441 934.471 505.753 944.485 504.593C947.01 504.303 949.585 504.459 952.061 503.904C955.102 503.225 958.036 502.475 961.068 502.966C962.156 503.035 963.275 502.935 964.373 502.67C968.214 502.044 972.048 501.32 975.892 500.729C983.889 499.498 991.915 498.522 999.888 497.043C1003.93 496.294 1008.01 496.248 1012.09 494.6C1014.92 493.463 1018.31 493.794 1021.45 493.354C1022.5 493.208 1024.11 493.761 1024.39 491.921C1024.85 491.848 1025.31 491.8 1025.77 491.777C1028.64 491.49 1031.81 491.871 1034.34 490.785C1039.84 488.42 1045.94 488.795 1051.2 485.771C1051.51 485.589 1052.01 485.672 1052.42 485.65C1057.09 485.341 1061.77 484.246 1066.2 482.424C1068.26 481.617 1070.41 480.621 1072.88 480.692C1074.67 480.742 1076.66 479.875 1078.52 479.288C1080.38 478.701 1082.17 477.859 1084.03 477.307C1089.42 475.712 1094.86 474.257 1100.25 472.619C1101.67 472.188 1102.92 471.096 1104.34 470.636C1109.42 468.988 1114.55 467.485 1119.66 465.903C1120.87 465.53 1122.42 465.32 1123.15 464.568C1124.92 462.748 1127.24 462.809 1129.31 462.094C1130.23 461.781 1131.27 461.815 1132.15 461.447C1134.62 460.43 1136.97 458.894 1139.49 458.296C1142.14 457.669 1144.12 455.692 1146.83 455.381C1147.36 455.323 1147.87 454.564 1148.42 454.167C1149.01 453.663 1149.67 453.228 1150.38 452.877C1156.98 450.193 1163.42 447.14 1169.65 443.74C1171.86 442.55 1174.22 441.628 1176.5 440.569C1177.12 440.293 1177.71 439.965 1178.26 439.591C1180.33 438.156 1182.3 436.603 1184.42 435.261C1186.66 433.846 1189.09 432.697 1191.31 431.274C1192.53 430.491 1193.37 428.959 1194.62 428.516C1197.55 427.479 1199.83 425.798 1202.07 423.89C1204.06 422.213 1206.09 420.328 1208.45 419.322C1211.2 418.152 1212.77 416.238 1214.19 414.287C1215.73 412.2 1217.79 410.766 1219.84 409.232C1220.76 408.615 1221.65 407.959 1222.5 407.268C1224.96 405.056 1227.12 402.507 1229.84 400.615C1232.7 398.619 1233.74 395.536 1236.58 393.634C1237.61 392.952 1238.53 392.139 1239.31 391.227C1241 389.165 1242.57 387.02 1244.14 384.897C1246.45 381.799 1248.79 378.718 1251.02 375.581C1252.31 373.776 1253.16 371.696 1254.69 370.082C1257.1 367.53 1258.33 364.525 1259.52 361.715C1260.82 358.636 1262.98 355.969 1264.36 352.994C1265.48 350.592 1266.97 348.247 1267.71 345.801C1268.39 343.603 1268.95 341.402 1269.84 339.231C1270.16 338.542 1270.37 337.828 1270.45 337.113C1270.74 333.385 1270.65 329.656 1271.31 325.943C1271.68 323.872 1271.71 322.113 1270.73 320.394C1270.56 319.958 1270.48 319.491 1270.48 319.01C1270.24 316.324 1270.47 313.479 1269.68 310.981C1267.38 303.6 1264.57 296.393 1260.33 289.846C1259.32 288.282 1259.78 285.593 1256.64 285.447C1256.45 285.438 1256.19 284.848 1256.25 284.544C1256.5 283.396 1255.27 282.985 1255.03 282.321C1253.93 279.223 1251.69 276.957 1249.51 274.552C1247.76 272.64 1246.79 270.162 1245.12 268.178C1243.18 265.852 1240.03 264.394 1239.08 261.313C1238.78 260.799 1238.28 260.404 1237.67 260.184C1234.6 258.676 1233.05 255.907 1230.73 253.775C1228.96 252.145 1227.58 250.176 1225.76 248.587C1222.24 245.497 1218.53 242.579 1214.93 239.554C1212.53 237.534 1210.37 235.266 1207.81 233.423C1202.23 229.426 1196.45 225.648 1190.8 221.729C1189.17 220.601 1187.97 218.731 1186.09 218.207C1181.2 216.852 1179.22 211.953 1173.71 211.488C1173.39 211.46 1173.2 210.998 1172.9 210.779C1171.53 209.774 1170.24 208.676 1168.76 207.809C1166.17 206.297 1163.48 204.91 1160.8 203.516C1154.59 200.301 1148.21 197.304 1142.21 193.84C1138.79 191.874 1134.8 190.839 1131.49 188.597C1127.76 186.073 1122.96 184.691 1118.59 182.872C1117.42 182.387 1115.99 182.273 1114.88 181.727C1110.03 179.346 1105.52 176.516 1100.04 175.009C1096.22 173.956 1092.56 172.525 1088.9 171.142C1086.14 170.101 1083.53 168.822 1080.8 167.735C1076.77 166.136 1072.92 163.888 1068.55 163.283C1064.3 162.688 1061.45 160.188 1057.32 159.515C1053.63 158.908 1050.45 156.896 1046.89 155.813C1041.59 154.208 1036.2 152.785 1031.11 150.779C1028.85 149.89 1026.12 149.709 1023.99 148.679C1021.32 147.33 1018.31 146.499 1015.11 146.234C1013.3 146.096 1010.66 146.354 1009.44 144.411C1009.17 143.979 1007.99 144.077 1007.25 143.888C1005.64 143.46 1004.03 143.012 1002.43 142.558C1001.05 142.166 999.721 141.655 998.305 141.376C995.752 140.881 993.108 140.609 990.567 140.081C988.653 139.677 986.881 138.925 984.973 138.48C981.059 137.567 977.103 136.753 973.166 135.907C968.324 134.866 963.515 133.727 958.611 132.823C954.455 132.055 950.136 131.722 945.989 130.928C932.884 128.435 919.781 125.957 906.481 123.993C899.89 123.02 893.304 122.031 886.724 121.027C882.144 120.327 877.613 119.46 873.007 118.839C868.115 118.174 863.146 117.784 858.256 117.113C856.039 116.809 854.018 115.879 851.791 115.65C846.997 115.154 842.087 115.065 837.295 114.563C828.488 113.627 819.742 112.485 810.957 111.483C805.756 110.89 800.533 110.384 795.305 109.891C789.139 109.304 782.967 108.757 776.794 108.211C775.261 108.074 773.708 108.017 772.161 107.92L772.139 107.896Z" fill="#FFD8CB"/>
</g>
</svg>
