<svg width="1440" height="618" viewBox="0 0 1440 618" fill="none" xmlns="http://www.w3.org/2000/svg">
<g opacity="0.5">
<path d="M608.93 101.47C608.012 101.327 607.077 101.237 606.13 101.202C590.898 101.353 575.623 101.79 560.448 101.588C551.418 101.468 542.535 100.409 533.624 99.6381C531.572 99.4634 529.233 99.4054 528.06 97.5111C529.032 95.5407 531.107 95.2587 532.728 94.8862C540.152 93.1849 547.59 91.3255 555.054 90.2368C563.337 89.0293 571.672 88.3736 579.952 87.8837C589.71 87.3063 599.439 87.1567 609.178 86.8202C616.898 86.5514 624.614 86.2471 632.328 86.0402C635.89 85.9438 639.441 86.0409 642.987 86.0606C654.114 86.1248 665.244 86.1941 676.378 86.2687C684.051 86.3203 691.755 86.2582 699.4 86.4867C705.901 86.6797 712.337 87.2462 718.812 87.5607C720.846 87.6556 722.959 87.3307 724.992 87.4256C733.286 87.8092 741.556 88.2868 749.843 88.7113C753.662 88.9051 757.495 89.0106 761.303 89.2376C768.789 89.6858 776.214 90.4733 783.747 90.601C793.133 90.7614 802.214 92.0323 811.466 92.639C814.301 92.822 816.839 93.5239 819.559 93.8006C822.376 94.0852 825.223 94.235 828.069 94.4124C833.209 94.7318 838.369 94.9706 843.499 95.3441C845.251 95.4728 846.926 95.9241 848.652 96.1744C853.785 96.904 858.848 98.1177 864.088 98.1874C872.074 98.2939 879.319 100.49 887.067 101.166C891.109 101.52 895.196 101.671 899.216 102.091C900.937 102.331 902.592 102.752 904.149 103.348C906.132 104.027 908.019 104.762 910.412 104.041C911.076 103.966 911.731 104.028 912.324 104.222C923.888 106.151 935.334 108.502 947.058 109.891C955.565 110.9 963.514 113.315 972.08 114.124C973.909 114.299 975.711 115.084 977.662 115.445C985.755 116.927 993.687 118.845 1001.71 120.546C1003.38 120.899 1005.24 120.801 1006.86 121.243C1017.39 124.102 1027.9 126.979 1038.35 129.985C1043.45 131.455 1048.37 133.262 1053.4 134.861C1059.51 136.799 1065.7 138.59 1071.76 140.625C1076.88 142.342 1081.84 144.35 1086.9 146.176C1091.39 147.796 1095.94 149.309 1100.42 150.936C1101.47 151.401 1102.47 151.924 1103.42 152.503C1103.98 152.783 1104.56 153.255 1105.15 153.207C1108.56 152.948 1111.04 154.289 1113.64 155.684C1116.07 156.983 1118.91 157.745 1121.51 158.84C1123.73 159.772 1125.83 160.888 1128.04 161.832C1132.11 163.563 1136.24 165.226 1140.34 166.913C1141.62 167.437 1142.94 167.911 1144.19 168.492C1148.85 170.676 1153.52 172.861 1158.13 175.108C1161.75 176.868 1165.34 178.681 1168.9 180.547C1170.77 181.523 1172.5 182.68 1174.34 183.693C1177.72 185.57 1181.12 187.422 1184.53 189.248C1187.96 191.075 1191.83 192.407 1194.13 195.477C1200.18 197.518 1203.97 202.203 1209.62 204.804C1212.62 206.183 1214.74 208.814 1217.32 210.813C1220.87 213.559 1224.37 216.373 1228.12 218.906C1234.31 223.087 1240.12 227.58 1244.99 232.961C1247.19 235.329 1249.55 237.572 1252.06 239.681C1253.29 240.749 1255.38 241.179 1256.27 242.403C1260.5 248.216 1266.31 252.939 1270.38 258.804C1273.55 263.352 1277.2 267.599 1280.15 272.246C1283.4 277.544 1286.32 283.019 1288.9 288.649C1290.6 292.221 1292.03 295.906 1293.2 299.686C1296.47 310.168 1297.37 315.757 1296.74 326.487C1296.45 331.393 1296.31 336.285 1294.61 341.204C1294.24 342.277 1295.06 343.545 1294.67 344.608C1293.85 346.472 1292.89 348.298 1291.79 350.072C1291.22 350.959 1290.7 351.867 1290.24 352.791C1288.23 357.607 1286.39 362.463 1284.26 367.253C1283.56 368.82 1282.08 370.174 1281.12 371.695C1279.05 375.024 1277.26 378.472 1275.06 381.739C1272.11 386.112 1268.87 390.356 1265.79 394.675C1264.68 396.233 1263.88 397.965 1262.62 399.418C1258.84 403.78 1254.99 408.113 1250.97 412.329C1248.38 415.056 1245.48 417.568 1242.69 420.152C1241.19 421.54 1239.52 422.798 1238.09 424.231C1233.1 429.26 1226.95 433.073 1221.15 437.254C1216.98 440.275 1212.82 443.32 1208.64 446.339C1207.62 447.069 1206.56 447.736 1205.48 448.408C1202.28 450.407 1199.12 452.474 1195.85 454.365C1193.41 455.769 1190.78 456.887 1188.31 458.245C1185.53 459.778 1182.87 461.511 1180.09 463.052C1176.8 464.883 1173.48 466.697 1170.1 468.354C1165.2 470.749 1160.37 473.572 1155.23 475.128C1150.98 476.416 1147.27 478.518 1143.28 480.13C1137.1 482.621 1130.93 485.184 1124.67 487.419C1120.18 489.019 1115.53 490.077 1110.97 491.479C1108.33 492.288 1105.52 492.952 1103.2 494.305C1099.53 496.448 1095.48 496.373 1091.69 497.696C1088.12 498.947 1084.35 499.605 1080.68 500.542C1076.83 501.521 1072.83 502.129 1069.16 503.59C1065.02 505.242 1060.77 505.888 1056.58 507.046C1052.96 508.047 1049.28 509.707 1045.74 509.856C1042.66 509.984 1039.83 511.363 1036.83 511.26C1035.81 511.222 1034.66 511.779 1033.59 512.103C1032.95 512.384 1032.29 512.624 1031.62 512.82C1024.18 514.037 1016.72 515.19 1009.28 516.429C1007.66 516.703 1006.07 517.324 1004.45 517.703C1000.09 518.717 995.718 519.003 991.338 519.469C987.656 519.853 983.961 520.48 980.296 521.181C973.593 522.442 966.855 523.273 960.139 523.667C956.171 523.917 952.182 524.527 948.203 524.992C947.786 525.039 947.318 525.33 946.971 525.263C941.739 524.254 936.443 526.685 931.16 526.79C925.558 526.902 919.876 527.712 914.237 528.049C911.633 528.208 909.066 527.864 906.462 527.933C904.579 527.986 902.656 528.41 900.762 528.566C896.085 528.952 891.41 529.331 886.745 529.614C882.536 529.87 878.329 530.097 874.142 530.175C869.062 530.269 863.972 530.738 858.884 530.538C852.16 530.276 845.194 531.281 838.374 531.443C832.097 531.591 825.876 531.232 819.605 531.339C816.925 531.382 814.236 531.724 811.505 531.661C804.804 531.494 798.005 531.841 791.253 531.937C790.162 531.951 789.094 531.711 788.004 531.698C785.57 531.674 783.118 531.745 780.677 531.741C778.359 531.735 776.036 531.7 773.724 531.653C770.846 531.596 767.976 531.492 765.096 531.462C760.294 531.418 755.481 531.455 750.686 531.391C748.217 531.355 745.767 531.168 743.317 531.03C742.772 531.002 742.238 530.733 741.716 530.82C734.682 531.981 728.15 530.208 721.26 530.416C715.942 530.578 710.706 529.993 705.423 529.778C702.307 529.649 699.15 529.71 696.051 529.508C685.436 528.832 674.834 528.046 664.213 527.39C662.673 527.294 660.9 528.006 659.455 527.743C657.813 527.412 656.12 527.223 654.397 527.178C650.317 527.119 646.352 526.352 642.317 525.978C639.5 525.715 636.629 525.659 633.804 525.443C628.769 525.063 623.674 524.862 618.738 524.162C615.187 523.654 611.827 522.924 607.979 523.388C605.433 523.695 602.857 523.015 600.32 522.676C593.452 521.765 586.607 520.787 579.74 519.897C578.891 519.788 577.693 519.751 577.071 520.179C576.09 520.851 575.728 520.461 574.957 520.211C573 519.542 570.962 519.027 568.863 518.672C564.02 517.903 559.152 517.186 554.238 516.63C549.032 516.049 543.761 515.682 538.514 515.221C538.097 515.246 537.688 515.198 537.313 515.079C534.019 513.076 529.879 513.516 526.001 513.292C523.542 513.219 521.175 512.758 519.008 511.93C516.817 511.044 514.035 511.092 511.512 510.734C506.362 510.009 501.192 509.364 496.075 508.54C490.834 507.696 485.669 506.648 480.439 505.771C474.801 504.825 468.835 504.532 463.567 502.897C459.598 501.662 455.178 501.767 451.364 499.956C448.419 498.565 444.335 498.769 440.758 498.271C439.837 498.144 438.865 498.149 437.976 497.95C431.205 496.454 424.54 494.667 417.655 493.509C414.075 492.906 410.86 491.766 407.488 490.839C403.595 489.769 399.548 489.017 395.57 488.13C392.071 487.351 388.537 486.657 385.079 485.779C379.774 484.438 374.612 482.742 369.208 481.65C366.365 481.076 363.724 479.856 360.954 479.592C355.213 479.042 350.52 476.546 345.104 475.467C342.822 475.013 340.847 473.805 338.652 473.092C337.095 472.589 335.361 472.408 333.774 471.949C331.927 471.415 330.16 470.713 328.331 470.126C325.077 469.078 321.817 468.042 318.55 467.019C312.999 465.285 308.097 462.43 302.141 461.351C299.83 460.935 297.813 459.762 295.619 459.001C289.697 456.952 283.747 454.94 277.813 452.903C277.214 452.692 276.635 452.445 276.082 452.164C273.476 450.887 270.949 449.58 267.797 449.098C265.621 448.765 263.713 447.588 261.711 446.759C259.606 445.893 257.767 444.65 255.167 444.545C254.079 444.504 253.191 443.524 252.167 443.04C247.138 440.674 242.397 437.704 236.95 436.167C232.214 434.829 228.379 432.465 224.14 430.589C217.509 427.566 211.111 424.214 204.974 420.547C201.212 418.354 197.462 416.149 193.688 413.968C191.327 412.603 188.799 411.415 186.584 409.891C182.425 407.045 178.309 404.143 174.425 401.032C169.962 397.463 165.765 393.636 161.459 389.923C160.008 388.67 158.455 387.491 157.109 386.156C153.568 382.645 149.745 379.306 146.711 375.454C143.887 371.872 141.936 367.711 139.608 363.8C139.368 363.394 139.165 362.965 138.884 362.588C136.45 359.353 134.782 355.671 133.964 351.727C133.324 348.639 131.667 345.827 130.971 342.744C129.705 337.12 129.134 331.358 130.298 325.36C130.511 324.271 130.412 323.168 130.559 322.068C130.762 320.482 130.687 318.805 131.375 317.334C134.269 311.19 136.655 304.905 140.54 299.023C144.6 292.869 148.612 286.679 153.579 280.991C156.853 277.239 160.502 273.706 164.089 270.149C168.138 266.133 172.257 262.171 176.445 258.265C178.235 256.587 180.257 255.091 182.169 253.508C186.627 249.812 191.1 246.119 195.548 242.408C199.137 239.416 202.694 236.384 206.313 233.417C207.321 232.668 208.369 231.962 209.452 231.304C210.482 230.605 211.692 230.03 212.496 229.177C216.66 224.753 221.983 221.622 227.077 218.212C230.341 216.028 232.981 213.246 236.399 211.127C243.781 206.554 250.684 201.295 258.127 196.815C267.239 191.336 276.664 186.302 286.035 181.197C290.356 178.847 294.792 176.66 299.283 174.629C306.59 171.327 313.989 168.214 321.341 165.01C323.383 164.116 325.363 163.067 327.444 162.263C336.094 158.937 344.755 155.619 353.452 152.426C357.666 150.875 361.981 149.618 366.245 148.193C372.254 146.184 378.236 144.095 384.252 142.137C387.471 141.089 390.737 140.201 393.995 139.291C403.979 136.511 413.95 133.652 423.965 131.029C429.095 129.688 434.329 128.837 439.505 127.677C446.874 126.023 454.215 124.135 461.606 122.644C468.736 121.198 475.907 120.134 483.055 118.885C492.003 117.327 500.952 115.671 509.908 114.204C517.385 112.984 524.874 111.913 532.362 110.891C543.422 109.377 554.491 107.836 565.557 106.531C577.346 105.142 589.127 104.003 600.913 102.781C603.516 102.51 606.125 102.337 608.726 102.122C608.794 101.895 608.86 101.675 608.922 101.448L608.93 101.47ZM772.043 107.938C771.971 108.109 771.905 108.28 771.832 108.45C774.653 109.983 777.565 111.404 780.247 113.097C781.356 113.855 782.174 114.887 782.615 116.088C782.696 116.523 782.656 116.983 782.499 117.43C782.342 117.877 782.072 118.298 781.71 118.661C781.29 118.965 780.81 119.194 780.305 119.332C779.8 119.47 779.281 119.514 778.782 119.461C777.49 119.27 776.384 118.55 775.174 118.093C766.944 114.98 758.84 111.356 749.642 110.429C738.752 109.335 727.591 109.182 716.504 108.831C707.087 108.534 697.635 108.433 688.166 108.448C677.431 108.472 666.69 108.445 655.911 108.964C644.183 109.533 632.409 110.604 620.647 111.641C611.38 112.454 602.101 113.509 592.828 114.523C587.699 115.084 582.574 115.771 577.448 116.395C569.411 117.375 561.376 118.216 553.347 119.379C544.573 120.65 535.818 122.232 527.054 123.679C521.128 124.662 515.193 125.58 509.272 126.64C503.202 127.733 497.143 128.974 491.075 130.15C486.399 131.059 481.713 131.932 477.041 132.876C472.212 133.852 467.4 134.914 462.571 135.911C455.164 137.448 447.732 138.806 440.355 140.529C433.981 142.021 427.705 144.135 421.322 145.605C408.511 148.651 395.85 152.483 383.438 157.069C374.716 160.224 365.816 162.808 357.256 166.601C351.648 169.089 345.526 170.515 339.862 173.148C335.159 175.328 330.243 177.065 325.501 179.177C318.792 182.165 312.302 185.738 305.444 188.279C299.333 190.544 294.341 194.36 288.646 197.127C286.338 198.213 284.088 199.41 281.906 200.711C275.94 204.378 270.022 208.129 264.114 211.875C259.036 215.099 253.715 218.084 249.019 221.708C244.358 225.296 239.141 228.179 234.608 231.891C230.863 234.957 227.287 238.23 222.886 240.589C222.774 240.648 222.708 240.798 222.608 240.888C220.748 242.52 218.951 244.218 217.009 245.775C212.821 249.149 208.53 252.417 204.342 255.792C201.431 258.142 198.638 260.601 195.78 263C187.111 270.297 178.634 277.735 171.971 286.537C171.582 287.049 170.945 287.433 170.495 287.922C168.484 290.116 166.048 292.156 164.596 294.568C161.914 299.031 157.883 302.924 156.109 307.755C155.772 308.449 155.377 309.125 154.927 309.777C151.965 314.742 150.155 320.068 149.617 325.409C149.137 331.456 150.326 337.284 152.237 342.868C153.117 345.428 153.94 348.084 155.397 350.35C158.427 355.059 161.835 359.56 165.152 364.104C166.75 366.293 168.384 368.467 170.89 369.973C171.604 370.467 172.235 371.043 172.77 371.69C174.748 373.756 176.523 375.993 178.702 377.874C181.453 380.254 184.543 382.337 187.467 384.569C192.104 388.101 196.316 392.161 201.488 395.016C205.207 397.063 208.976 398.985 212.444 401.363C215.376 403.245 218.446 404.969 221.64 406.527C224.661 408.105 227.783 409.544 230.858 411.053C233.98 412.583 237.414 413.806 240.133 415.755C242.357 417.343 244.957 417.86 247.538 418.617C248.787 418.982 250.31 419.174 251.15 419.93C253.411 421.956 256.481 422.655 259.37 423.711C262.259 424.766 265.551 425.221 267.794 427.3C268.329 427.618 268.938 427.841 269.592 427.958C272.276 428.843 274.979 429.696 277.647 430.606C279.438 431.214 281.181 431.92 282.97 432.535C286.498 433.751 290.286 434.61 293.529 436.214C297.039 437.943 300.837 438.998 304.651 440.098C305.888 440.454 307.15 440.78 308.34 441.227C314.006 443.348 319.41 446.022 325.349 447.538C334.318 449.83 342.839 452.904 351.569 455.606C354.78 456.599 358.092 457.406 361.364 458.283C367.682 459.981 373.751 462.234 380.451 463.092C380.573 463.134 380.69 463.185 380.801 463.243C383.831 464.223 386.773 465.418 389.922 466.137C398.374 468.065 406.921 469.777 415.424 471.6C417.602 472.066 419.701 472.722 421.897 473.134C424.743 473.674 427.707 473.912 430.516 474.544C434.869 475.443 439.131 476.561 443.283 477.891C444.872 478.434 446.462 477.673 448.167 478.443C451.38 479.897 454.965 480.751 458.726 480.958C463.596 481.187 468.12 482.123 472.708 483.055C474.978 483.521 477.784 483.016 479.735 483.858C485.81 486.482 492.923 486.253 499.389 487.786C506.269 489.417 513.551 490.126 520.664 491.201C522.65 491.505 524.723 491.55 526.684 491.906C532.122 492.898 537.354 494.479 543.141 494.479C544.361 494.403 545.565 494.484 546.713 494.719C552.739 496.436 559.369 496.314 565.552 497.497C570.996 498.539 577.066 497.564 582.146 499.757C582.521 499.871 582.922 499.93 583.335 499.932C588.029 500.294 592.765 500.489 597.404 501.038C604.386 501.863 611.28 502.945 618.421 503.25C625.473 503.548 632.472 504.159 639.423 504.916C642.955 505.296 646.734 504.417 650.1 505.545C651.177 505.933 652.349 506.141 653.561 506.159C658.219 506.104 662.88 505.925 667.245 507.151C668.297 507.33 669.392 507.376 670.498 507.286C672.536 507.298 674.608 507.141 676.604 507.3C683.075 507.809 689.524 508.433 695.978 509.016C700.12 507.287 703.528 510.004 707.674 509.112C710.259 508.552 713.113 508.843 715.651 509.294C722.897 510.569 730.382 510.355 737.888 510.242C740.221 510.29 742.53 510.464 744.802 510.763C745.565 510.947 746.347 511.085 747.144 511.177C754.141 510.972 761.217 510.326 768.13 510.554C777.397 510.863 786.642 511.19 796.016 510.861C800.133 510.717 804.212 510.895 808.306 510.957C813.159 511.03 818.01 511.159 822.869 511.191C823.823 511.103 824.777 510.936 825.719 510.693C826.516 510.526 827.319 510.422 828.119 510.384C831.257 510.404 834.382 510.506 837.513 510.545C841.524 510.601 845.57 510.419 849.594 510.414C856.198 510.393 862.89 509.765 869.53 509.498C871.413 509.423 873.245 509.885 875.132 509.797C879.94 509.571 884.764 509.159 889.577 508.849C892.033 508.695 894.477 508.693 896.934 508.49C902.831 508.005 908.733 507.277 914.618 506.964C924.608 506.429 934.603 505.742 944.619 504.583C947.144 504.294 949.719 504.45 952.194 503.895C955.235 503.217 958.17 502.467 961.202 502.959C962.291 503.028 963.409 502.928 964.508 502.663C968.348 502.038 972.183 501.314 976.027 500.724C984.024 499.494 992.051 498.519 1000.02 497.041C1004.07 496.293 1008.14 496.248 1012.23 494.6C1015.05 493.464 1018.45 493.795 1021.59 493.355C1022.64 493.209 1024.25 493.762 1024.53 491.923C1024.99 491.85 1025.45 491.802 1025.91 491.779C1028.78 491.493 1031.95 491.874 1034.47 490.789C1039.98 488.424 1046.08 488.8 1051.33 485.777C1051.65 485.595 1052.15 485.678 1052.55 485.657C1057.23 485.348 1061.91 484.254 1066.33 482.432C1068.4 481.626 1070.55 480.63 1073.02 480.702C1074.8 480.752 1076.79 479.885 1078.65 479.298C1080.52 478.712 1082.3 477.87 1084.17 477.319C1089.56 475.725 1095 474.27 1100.38 472.633C1101.8 472.203 1103.05 471.111 1104.47 470.652C1109.56 469.004 1114.68 467.502 1119.79 465.921C1121 465.548 1122.55 465.339 1123.28 464.586C1125.06 462.767 1127.37 462.828 1129.45 462.114C1130.36 461.801 1131.4 461.835 1132.28 461.467C1134.75 460.451 1137.1 458.915 1139.63 458.317C1142.27 457.691 1144.25 455.715 1146.96 455.404C1147.49 455.346 1148 454.587 1148.55 454.19C1149.14 453.686 1149.8 453.252 1150.51 452.901C1157.11 450.218 1163.54 447.167 1169.78 443.768C1171.98 442.578 1174.34 441.657 1176.63 440.598C1177.24 440.322 1177.83 439.994 1178.39 439.62C1180.45 438.186 1182.42 436.633 1184.55 435.292C1186.78 433.877 1189.21 432.729 1191.44 431.307C1192.66 430.524 1193.49 428.992 1194.74 428.549C1197.67 427.513 1199.95 425.833 1202.19 423.925C1204.17 422.248 1206.21 420.364 1208.57 419.359C1211.31 418.189 1212.88 416.275 1214.31 414.326C1215.85 412.239 1217.91 410.805 1219.96 409.272C1220.88 408.655 1221.76 407.999 1222.62 407.308C1225.07 405.097 1227.23 402.549 1229.95 400.657C1232.81 398.662 1233.85 395.58 1236.68 393.678C1237.72 392.997 1238.64 392.184 1239.41 391.273C1241.11 389.211 1242.67 387.066 1244.25 384.944C1246.56 381.847 1248.89 378.767 1251.12 375.63C1252.41 373.826 1253.26 371.746 1254.79 370.133C1257.2 367.582 1258.43 364.577 1259.61 361.768C1260.91 358.69 1263.07 356.023 1264.45 353.049C1265.57 350.647 1267.06 348.303 1267.8 345.858C1268.47 343.66 1269.04 341.46 1269.93 339.289C1270.24 338.6 1270.45 337.887 1270.53 337.172C1270.82 333.444 1270.73 329.716 1271.39 326.003C1271.76 323.933 1271.78 322.174 1270.81 320.456C1270.63 320.02 1270.55 319.553 1270.56 319.072C1270.31 316.386 1270.54 313.542 1269.75 311.045C1267.45 303.665 1264.63 296.459 1260.39 289.912C1259.37 288.349 1259.84 285.66 1256.7 285.514C1256.5 285.504 1256.24 284.914 1256.31 284.611C1256.56 283.463 1255.32 283.052 1255.08 282.388C1253.98 279.291 1251.74 277.025 1249.55 274.62C1247.81 272.708 1246.83 270.23 1245.17 268.246C1243.22 265.92 1240.07 264.463 1239.12 261.381C1238.81 260.868 1238.32 260.473 1237.71 260.253C1234.64 258.745 1233.08 255.976 1230.77 253.844C1228.99 252.214 1227.61 250.245 1225.79 248.657C1222.27 245.567 1218.55 242.649 1214.96 239.624C1212.55 237.604 1210.4 235.336 1207.83 233.493C1202.25 229.496 1196.47 225.718 1190.81 221.8C1189.18 220.672 1187.98 218.802 1186.1 218.277C1181.21 216.922 1179.22 212.024 1173.72 211.558C1173.39 211.53 1173.2 211.068 1172.91 210.849C1171.53 209.844 1170.24 208.747 1168.76 207.879C1166.17 206.368 1163.48 204.98 1160.79 203.587C1154.59 200.371 1148.21 197.374 1142.2 193.91C1138.78 191.944 1134.79 190.909 1131.48 188.666C1127.74 186.143 1122.95 184.761 1118.57 182.941C1117.4 182.456 1115.98 182.342 1114.87 181.796C1110.01 179.415 1105.5 176.585 1100.02 175.077C1096.19 174.024 1092.54 172.593 1088.87 171.21C1086.12 170.168 1083.5 168.89 1080.77 167.803C1076.74 166.203 1072.89 163.955 1068.52 163.35C1064.27 162.755 1061.41 160.254 1057.28 159.581C1053.59 158.974 1050.41 156.961 1046.85 155.879C1041.55 154.274 1036.16 152.85 1031.07 150.844C1028.81 149.954 1026.08 149.774 1023.94 148.743C1021.28 147.394 1018.26 146.563 1015.07 146.297C1013.26 146.16 1010.61 146.417 1009.39 144.474C1009.12 144.042 1007.94 144.141 1007.2 143.951C1005.59 143.523 1003.98 143.075 1002.38 142.621C1001 142.228 999.67 141.718 998.253 141.439C995.7 140.943 993.056 140.671 990.513 140.143C988.6 139.739 986.826 138.986 984.919 138.541C981.003 137.628 977.046 136.814 973.109 135.968C968.265 134.927 963.455 133.787 958.55 132.883C954.393 132.114 950.074 131.781 945.926 130.986C932.817 128.493 919.712 126.014 906.41 124.048C899.818 123.075 893.23 122.085 886.648 121.081C882.068 120.38 877.536 119.512 872.929 118.891C868.036 118.226 863.066 117.835 858.175 117.164C855.958 116.859 853.936 115.93 851.709 115.7C846.914 115.204 842.004 115.115 837.211 114.611C828.402 113.675 819.655 112.532 810.868 111.529C805.666 110.935 800.442 110.429 795.214 109.936C789.047 109.348 782.873 108.801 776.7 108.254C775.166 108.116 773.613 108.06 772.066 107.963L772.043 107.938Z" fill="#BEFAFE"/>
</g>
</svg>
