<svg width="120" height="52" viewBox="0 0 120 52" fill="none" xmlns="http://www.w3.org/2000/svg">
<path fill-rule="evenodd" clip-rule="evenodd" d="M113.004 32.8071H117.607V31.9124H114.071V29.5522H116.799V28.6589H114.071V26.361H117.424V25.4663H113.004V32.8071V32.8071ZM105.209 32.8071H106.276V29.4386H107.408L109.435 32.8064H110.643L108.293 28.9704V28.9498L110.502 25.4663H109.327L107.408 28.5542H106.276V25.467H105.209V32.8071ZM100.778 32.8071H101.846V25.4663H100.778V32.8071ZM93.8567 28.9909V26.361H95.0858C95.6783 26.361 95.9268 26.4226 96.1311 26.5273C96.5193 26.7354 96.7358 27.1194 96.7358 27.6602C96.7358 28.4816 96.2176 28.9909 95.3875 28.9909H93.8567V28.9909ZM92.7889 32.8071H93.8567V29.8849H95.4842L97.0913 32.8071H98.2987L96.6814 29.9581C96.5411 29.7192 96.4546 29.6254 96.4546 29.6254V29.6049C97.2854 29.3448 97.824 28.5542 97.824 27.6184C97.824 26.6519 97.3174 25.914 96.5411 25.6333C96.2503 25.5286 95.9159 25.4663 95.1178 25.4663H92.7889V32.8071V32.8071ZM87.1613 32.8071H88.2291V26.361H90.8379V25.4663H84.5525V26.361H87.1613V32.8071V32.8071ZM77.7707 31.9651C77.7707 31.9651 78.6764 32.9317 80.2937 32.9317C81.8034 32.9317 82.7091 31.996 82.7091 30.8624C82.7091 28.4816 79.0223 28.8868 79.0223 27.3693C79.0223 26.7874 79.5936 26.2987 80.4019 26.2987C81.3723 26.2987 82.0731 26.9325 82.0731 26.9325L82.5579 26.0803C82.5579 26.0803 81.8143 25.3417 80.4019 25.3417C78.9678 25.3417 77.9436 26.246 77.9436 27.3898C77.9436 29.6467 81.6311 29.303 81.6311 30.8939C81.6311 31.5907 81.0271 31.9754 80.3155 31.9754C79.1837 31.9754 78.3747 31.1848 78.3747 31.1848L77.7713 31.9651H77.7707ZM69.8904 32.1623V26.1426H71.5179C73.3729 26.1426 74.6232 27.2029 74.6232 29.1476C74.6232 31.102 73.3838 32.1623 71.5179 32.1623H69.8904ZM69.1461 32.8071H71.5935C73.8687 32.8071 75.3995 31.4757 75.3995 29.147C75.3995 26.8387 73.8687 25.4978 71.5935 25.4978H69.1461V32.8071ZM61.7507 26.5684C61.7507 26.5684 61.8692 27.1926 61.9986 27.6602L63.4429 32.8071H64.3384L66.3541 25.4978H65.5778L64.0578 31.1745C63.9611 31.5483 63.8849 31.9542 63.8849 31.9542H63.8645C63.8529 31.9542 63.7991 31.5483 63.6908 31.1738L62.096 25.4978H61.3843L59.7881 31.1745C59.6805 31.5483 59.6267 31.9542 59.6158 31.9542H59.594C59.594 31.9542 59.5191 31.5483 59.4218 31.1738L57.9556 25.4978H57.1793L59.1412 32.8071H60.0367L61.481 27.6602C61.6104 27.1926 61.7289 26.5684 61.7289 26.5684H61.7507V26.5684ZM48.6188 29.1052C48.6188 27.359 49.9882 26.0385 51.7022 26.0385C53.406 26.0385 54.7857 27.359 54.7857 29.1052C54.7857 30.8939 53.406 32.2663 51.7022 32.2663C49.9882 32.2663 48.6188 30.8939 48.6188 29.1052V29.1052ZM47.8425 29.1052C47.8425 31.2471 49.5571 32.9317 51.7022 32.9317C53.848 32.9317 55.562 31.2471 55.562 29.1052C55.562 27.0058 53.848 25.3725 51.7022 25.3725C49.5571 25.3725 47.8431 27.0058 47.8431 29.1052H47.8425ZM41.4712 29.0847V26.1426H43.0021C43.5843 26.1426 43.854 26.2042 44.0801 26.3192C44.5227 26.5478 44.7706 26.9948 44.7706 27.5979C44.7706 28.5131 44.1883 29.0847 43.2717 29.0847H41.4712ZM40.7269 32.8071H41.4712V29.7288H43.3793L45.094 32.8071H45.9453L44.2959 29.865C44.1774 29.6665 44.1018 29.5734 44.1018 29.5734V29.5529C44.9531 29.3236 45.536 28.5644 45.536 27.5774C45.536 26.6929 45.1042 25.9961 44.3933 25.6949C44.091 25.5703 43.7464 25.4978 42.9701 25.4978H40.7269V32.8071V32.8071ZM31.0782 29.1052C31.0782 31.2368 32.6737 32.9317 34.9162 32.9317C36.782 32.9317 37.8171 31.7981 37.8171 31.7981L37.3854 31.2888C37.3854 31.2888 36.4579 32.2663 34.9271 32.2663C33.1266 32.2663 31.8545 30.8418 31.8545 29.0949C31.8545 27.3699 33.1266 26.0385 34.9053 26.0385C36.3285 26.0385 37.2124 26.849 37.2124 26.849L37.6115 26.3192C37.6115 26.3192 36.6956 25.3725 34.8842 25.3725C32.7173 25.3725 31.0782 26.9846 31.0782 29.1052V29.1052ZM27.5936 31.9412C27.0516 31.8864 26.0887 31.7516 24.8847 32.3622C23.6814 32.9735 23.2075 33.0001 22.6171 32.9372C22.7907 33.2562 23.1428 33.6949 24.2494 33.7737C25.3553 33.8517 25.8851 33.8866 25.3022 35.2741C25.3158 34.8552 25.2184 34.0447 24.12 34.1864C23.0222 34.3288 22.7648 35.3241 23.9429 35.8211C23.5602 35.8984 22.7485 35.9443 22.1683 34.4171C21.7665 34.593 21.1468 34.9456 20.0239 34.0721C20.4148 34.2145 20.899 34.2234 20.899 34.2234C19.902 33.7442 18.95 32.8543 18.3399 32.0124C18.8233 32.3752 19.3572 32.7359 19.8972 32.8037C19.2592 32.0206 17.7842 30.4544 15.9789 28.8451C17.14 29.607 18.5401 30.8131 20.8315 30.5427C23.1237 30.271 24.6634 29.7425 27.5936 31.9412V31.9412ZM17.7215 31.7646C16.2438 31.1567 15.9272 31.0342 14.0279 30.5762C12.128 30.1176 10.2601 29.1648 9.01049 27.6773C9.89167 28.2893 11.6901 29.5214 13.5369 29.3886C13.2564 28.9984 12.7388 28.6938 12.1198 28.3878C12.8192 28.5466 14.9323 29.0593 17.7215 31.7639V31.7646ZM14.237 26.5095C13.8652 25.393 13.1951 23.9637 10.0163 21.841C8.46843 20.7698 6.19601 19.426 3.20312 16C3.41695 16.9241 4.36283 19.3254 9.12761 22.4434C10.6925 23.5626 12.7123 24.2526 14.237 26.5095" fill="#0C1318"/>
<path fill-rule="evenodd" clip-rule="evenodd" d="M14.8172 27.6774C14.4195 26.7622 13.6208 25.5882 10.491 23.9118C9.04733 23.1048 6.58152 21.8637 4.36426 19.5035C4.56515 20.3557 5.59478 22.2279 10.0238 24.5648C11.251 25.2398 13.3245 25.8723 14.8172 27.6774ZM26.3584 30.0027C27.5086 30.1773 27.4507 30.4223 27.463 30.8454C26.9733 30.308 26.3584 30.0027 26.3584 30.0027ZM17.6079 22.8419C11.5445 21.0957 9.13177 18.8922 7.26794 16.584C8.11916 19.2399 10.1505 20.1901 12.3208 21.9726C14.491 23.7564 14.615 24.7141 15.2544 25.7676C16.6777 28.1148 16.9051 28.5022 18.3181 29.527C19.9838 30.6393 21.9988 29.887 24.2086 30.2354C26.419 30.5846 28.2454 32.2794 28.6424 32.9325C29.1062 32.1001 27.9996 30.9015 27.7006 30.6003C27.86 29.5105 25.3002 29.0321 24.3298 28.659C24.1405 28.5857 23.6692 28.4762 24.0778 27.498C24.6287 26.1482 25.2021 24.9742 17.6072 22.8419" fill="#0C1318"/>
</svg>
