<svg width="262" height="262" viewBox="0 0 262 262" fill="none" xmlns="http://www.w3.org/2000/svg">
<circle cx="87" cy="85" r="59.1372" stroke="#0C1318" stroke-width="1.72552"/>
<circle cx="180" cy="177" r="59.1372" stroke="#0C1318" stroke-width="1.72552"/>
<path d="M219.963 140.332L219.961 140.335C218.889 142.043 218.172 143.669 217.812 145.211H217.649C216.854 141.889 214.464 138.003 210.276 134.862C208.285 133.36 206.234 132.308 204.18 131.762V131.537C208.39 130.349 212.436 127.472 215.073 123.647C216.319 121.847 217.184 120.05 217.643 118.178H217.815C218.72 122.032 221.684 126.069 225.547 128.803C227.364 130.096 229.262 131.025 231.213 131.548V131.763C229.184 132.313 227.088 133.433 225.209 134.831C223.113 136.39 221.227 138.337 219.963 140.332Z" fill="#D8ADFB" stroke="#0C1318" stroke-width="1.72552"/>
<path d="M39.5303 121.277L39.528 121.281C38.4993 122.921 37.792 124.49 37.4133 125.986C36.5609 122.677 34.1628 118.862 30.0419 115.771C28.072 114.285 26.0404 113.234 24 112.676V112.66C28.2064 111.446 32.2352 108.565 34.8692 104.744C36.0804 102.995 36.9365 101.243 37.4109 99.4206C38.3776 103.256 41.3319 107.231 45.1512 109.934C46.948 111.212 48.826 112.14 50.7587 112.672V112.678C48.7403 113.243 46.6673 114.359 44.8101 115.74C42.7027 117.307 40.805 119.266 39.5303 121.277Z" fill="#3CFFA0" stroke="#0C1318" stroke-width="2"/>
<path d="M59.6934 92V85.15H67.0934V65.6H60.3934V58.75H67.2434C70.2101 58.75 72.3768 59.4 73.7434 60.7C75.1434 62 75.8434 63.7833 75.8434 66.05V85.15H82.2434V92H59.6934ZM100.093 92.8C96.2268 92.8 93.0601 92 90.5934 90.4C88.1268 88.8 86.3268 86.7 85.1934 84.1C84.0934 81.4667 83.5434 78.5667 83.5434 75.4C83.5434 72.2667 84.0934 69.3833 85.1934 66.75C86.3268 64.1167 88.1268 61.9833 90.5934 60.35C93.0934 58.7167 96.2601 57.9 100.093 57.9C103.927 57.9 107.077 58.7167 109.543 60.35C112.043 61.9833 113.843 64.1333 114.943 66.8C116.077 69.4333 116.643 72.3 116.643 75.4C116.643 78.5333 116.077 81.4167 114.943 84.05C113.843 86.6833 112.06 88.8 109.593 90.4C107.127 92 103.96 92.8 100.093 92.8ZM92.7434 75.4C92.7434 78.9 93.2601 81.4833 94.2934 83.15C95.3601 84.8167 97.2934 85.65 100.093 85.65C102.893 85.65 104.81 84.8167 105.843 83.15C106.91 81.4833 107.443 78.9 107.443 75.4C107.443 71.8667 106.91 69.2667 105.843 67.6C104.81 65.9333 102.893 65.1 100.093 65.1C97.2934 65.1 95.3601 65.9333 94.2934 67.6C93.2601 69.2667 92.7434 71.8667 92.7434 75.4Z" fill="#0C1318"/>
<path d="M73.148 106.647H74.57L70.34 117.141C70.124 117.693 69.926 118.107 69.746 118.383C69.578 118.671 69.344 118.887 69.044 119.031C68.744 119.175 68.33 119.247 67.802 119.247H66.092V118.077H68.594L69.584 115.647H69.08L65.516 106.647H67.028L69.782 113.577L70.088 114.441L70.358 113.577L73.148 106.647ZM79.8335 114.837C81.4175 114.837 82.3655 114.183 82.6775 112.875H83.9915C83.8835 113.703 83.4935 114.423 82.8215 115.035C82.1495 115.635 81.1355 115.935 79.7795 115.935C78.3035 115.935 77.1875 115.497 76.4315 114.621C75.6875 113.733 75.3155 112.569 75.3155 111.129C75.3155 110.217 75.4835 109.401 75.8195 108.681C76.1555 107.961 76.6595 107.397 77.3315 106.989C78.0035 106.569 78.8195 106.359 79.7795 106.359C80.6555 106.359 81.4115 106.551 82.0475 106.935C82.6955 107.307 83.1815 107.835 83.5055 108.519C83.8415 109.191 84.0095 109.965 84.0095 110.841C84.0095 111.117 83.9975 111.327 83.9735 111.471H76.7375C76.7855 112.659 77.0735 113.517 77.6015 114.045C78.1415 114.573 78.8855 114.837 79.8335 114.837ZM79.7975 107.457C78.9095 107.457 78.2075 107.691 77.6915 108.159C77.1755 108.627 76.8695 109.371 76.7735 110.391H82.6055C82.5335 108.435 81.5975 107.457 79.7975 107.457ZM88.6432 115.881C87.7552 115.881 87.0352 115.653 86.4832 115.197C85.9432 114.741 85.6732 114.099 85.6732 113.271C85.6732 112.527 85.8892 111.933 86.3212 111.489C86.7652 111.033 87.4612 110.727 88.4092 110.571L90.6952 110.193C91.1872 110.109 91.5352 109.989 91.7392 109.833C91.9432 109.677 92.0452 109.431 92.0452 109.095C92.0452 108.591 91.8772 108.195 91.5412 107.907C91.2172 107.619 90.6472 107.475 89.8312 107.475C88.2592 107.475 87.4192 108.141 87.3112 109.473H85.8892C85.9132 108.501 86.2612 107.739 86.9332 107.187C87.6052 106.623 88.5532 106.341 89.7772 106.341C90.9652 106.341 91.8592 106.593 92.4592 107.097C93.0592 107.589 93.3592 108.255 93.3592 109.095V113.415C93.3592 114.195 93.3952 114.939 93.4672 115.647H92.1532C92.0692 114.747 92.0272 114.045 92.0272 113.541C91.8232 114.189 91.4452 114.741 90.8932 115.197C90.3412 115.653 89.5912 115.881 88.6432 115.881ZM88.9312 114.747C89.6032 114.747 90.1732 114.591 90.6412 114.279C91.1092 113.967 91.4572 113.553 91.6852 113.037C91.9252 112.521 92.0452 111.969 92.0452 111.381V110.607C91.8292 110.763 91.5952 110.883 91.3432 110.967C91.1032 111.051 90.7972 111.135 90.4252 111.219L88.9312 111.525C88.3072 111.657 87.8512 111.855 87.5632 112.119C87.2752 112.371 87.1312 112.737 87.1312 113.217C87.1312 113.721 87.2932 114.105 87.6172 114.369C87.9412 114.621 88.3792 114.747 88.9312 114.747ZM100.792 106.521V107.943H100.414C99.1782 107.907 98.3262 108.273 97.8582 109.041C97.4022 109.809 97.1742 110.907 97.1742 112.335V115.647H95.7342V106.647H97.1742V109.023C97.4622 108.243 97.8762 107.631 98.4162 107.187C98.9682 106.743 99.6522 106.521 100.468 106.521H100.792ZM102.94 112.641C103.072 114.105 104.026 114.837 105.802 114.837C106.57 114.837 107.128 114.705 107.476 114.441C107.836 114.177 108.016 113.787 108.016 113.271C108.016 112.839 107.884 112.503 107.62 112.263C107.356 112.023 106.942 111.861 106.378 111.777L104.29 111.471C103.498 111.363 102.892 111.105 102.472 110.697C102.052 110.277 101.842 109.725 101.842 109.041C101.842 108.201 102.16 107.541 102.796 107.061C103.432 106.581 104.314 106.341 105.442 106.341C106.594 106.341 107.5 106.605 108.16 107.133C108.832 107.661 109.198 108.357 109.258 109.221H107.836C107.788 108.705 107.566 108.279 107.17 107.943C106.774 107.607 106.186 107.439 105.406 107.439C104.674 107.439 104.128 107.571 103.768 107.835C103.42 108.099 103.246 108.465 103.246 108.933C103.246 109.677 103.732 110.121 104.704 110.265L106.612 110.535C107.62 110.679 108.34 110.973 108.772 111.417C109.216 111.849 109.438 112.443 109.438 113.199C109.438 114.111 109.126 114.795 108.502 115.251C107.878 115.707 106.966 115.935 105.766 115.935C104.362 115.935 103.324 115.641 102.652 115.053C101.98 114.453 101.632 113.649 101.608 112.641H102.94Z" fill="#0C1318"/>
<path d="M166.319 162.55C169.419 162.55 172.035 163.4 174.169 165.1C176.302 166.767 177.369 169.3 177.369 172.7C177.369 175.1 176.769 177.217 175.569 179.05C174.369 180.883 172.669 182.3 170.469 183.3C168.302 184.3 165.785 184.8 162.919 184.8C152.652 184.8 147.519 179.083 147.519 167.65C147.519 163.583 148.202 160.233 149.569 157.6C150.969 154.933 152.852 152.983 155.219 151.75C157.585 150.517 160.269 149.9 163.269 149.9C167.469 149.9 170.752 150.8 173.119 152.6C175.485 154.367 176.852 156.8 177.219 159.9H168.469C168.235 158.833 167.702 157.983 166.869 157.35C166.069 156.683 164.902 156.35 163.369 156.35C160.869 156.35 159.069 157.15 157.969 158.75C156.869 160.317 156.319 162.55 156.319 165.45V166.3C157.419 165.1 158.835 164.183 160.569 163.55C162.335 162.883 164.252 162.55 166.319 162.55ZM162.569 178.4C164.635 178.4 166.119 177.95 167.019 177.05C167.952 176.15 168.419 174.867 168.419 173.2C168.419 169.7 166.519 167.95 162.719 167.95C160.685 167.95 159.185 168.417 158.219 169.35C157.252 170.283 156.769 171.567 156.769 173.2C156.769 176.667 158.702 178.4 162.569 178.4ZM197.268 184.8C193.402 184.8 190.235 184 187.768 182.4C185.302 180.8 183.502 178.7 182.368 176.1C181.268 173.467 180.718 170.567 180.718 167.4C180.718 164.267 181.268 161.383 182.368 158.75C183.502 156.117 185.302 153.983 187.768 152.35C190.268 150.717 193.435 149.9 197.268 149.9C201.102 149.9 204.252 150.717 206.718 152.35C209.218 153.983 211.018 156.133 212.118 158.8C213.252 161.433 213.818 164.3 213.818 167.4C213.818 170.533 213.252 173.417 212.118 176.05C211.018 178.683 209.235 180.8 206.768 182.4C204.302 184 201.135 184.8 197.268 184.8ZM189.918 167.4C189.918 170.9 190.435 173.483 191.468 175.15C192.535 176.817 194.468 177.65 197.268 177.65C200.068 177.65 201.985 176.817 203.018 175.15C204.085 173.483 204.618 170.9 204.618 167.4C204.618 163.867 204.085 161.267 203.018 159.6C201.985 157.933 200.068 157.1 197.268 157.1C194.468 157.1 192.535 157.933 191.468 159.6C190.435 161.267 189.918 163.867 189.918 167.4Z" fill="#0C1318"/>
<path d="M154.394 206.837C155.978 206.837 156.926 206.183 157.238 204.875H158.552C158.444 205.703 158.054 206.423 157.382 207.035C156.71 207.635 155.696 207.935 154.34 207.935C152.864 207.935 151.748 207.497 150.992 206.621C150.248 205.733 149.876 204.569 149.876 203.129C149.876 202.217 150.044 201.401 150.38 200.681C150.716 199.961 151.22 199.397 151.892 198.989C152.564 198.569 153.38 198.359 154.34 198.359C155.216 198.359 155.972 198.551 156.608 198.935C157.256 199.307 157.742 199.835 158.066 200.519C158.402 201.191 158.57 201.965 158.57 202.841C158.57 203.117 158.558 203.327 158.534 203.471H151.298C151.346 204.659 151.634 205.517 152.162 206.045C152.702 206.573 153.446 206.837 154.394 206.837ZM154.358 199.457C153.47 199.457 152.768 199.691 152.252 200.159C151.736 200.627 151.43 201.371 151.334 202.391H157.166C157.094 200.435 156.158 199.457 154.358 199.457ZM160.717 207.647H159.079L162.661 203.111L159.169 198.647H160.897L163.543 202.193L166.189 198.647H167.845L164.389 203.075L168.025 207.647H166.297L163.507 203.975L160.717 207.647ZM174.591 198.359C175.947 198.359 176.973 198.797 177.669 199.673C178.365 200.549 178.713 201.707 178.713 203.147C178.713 204.599 178.365 205.763 177.669 206.639C176.973 207.503 175.947 207.935 174.591 207.935C173.775 207.935 173.079 207.767 172.503 207.431C171.939 207.083 171.501 206.585 171.189 205.937V211.247H169.749V198.647H171.189V200.375C171.501 199.727 171.939 199.229 172.503 198.881C173.079 198.533 173.775 198.359 174.591 198.359ZM174.303 206.765C175.323 206.765 176.067 206.471 176.535 205.883C177.015 205.283 177.255 204.371 177.255 203.147C177.255 201.923 177.015 201.017 176.535 200.429C176.067 199.829 175.323 199.529 174.303 199.529C173.319 199.529 172.551 199.823 171.999 200.411C171.459 200.999 171.189 201.911 171.189 203.147C171.189 204.383 171.459 205.295 171.999 205.883C172.551 206.471 173.319 206.765 174.303 206.765ZM184.787 206.837C186.371 206.837 187.319 206.183 187.631 204.875H188.945C188.837 205.703 188.447 206.423 187.775 207.035C187.103 207.635 186.089 207.935 184.733 207.935C183.257 207.935 182.141 207.497 181.385 206.621C180.641 205.733 180.269 204.569 180.269 203.129C180.269 202.217 180.437 201.401 180.773 200.681C181.109 199.961 181.613 199.397 182.285 198.989C182.957 198.569 183.773 198.359 184.733 198.359C185.609 198.359 186.365 198.551 187.001 198.935C187.649 199.307 188.135 199.835 188.459 200.519C188.795 201.191 188.963 201.965 188.963 202.841C188.963 203.117 188.951 203.327 188.927 203.471H181.691C181.739 204.659 182.027 205.517 182.555 206.045C183.095 206.573 183.839 206.837 184.787 206.837ZM184.751 199.457C183.863 199.457 183.161 199.691 182.645 200.159C182.129 200.627 181.823 201.371 181.727 202.391H187.559C187.487 200.435 186.551 199.457 184.751 199.457ZM195.866 198.521V199.943H195.488C194.252 199.907 193.4 200.273 192.932 201.041C192.476 201.809 192.248 202.907 192.248 204.335V207.647H190.808V198.647H192.248V201.023C192.536 200.243 192.95 199.631 193.49 199.187C194.042 198.743 194.726 198.521 195.542 198.521H195.866ZM200.246 207.647C199.418 207.647 198.848 207.485 198.536 207.161C198.224 206.837 198.068 206.297 198.068 205.541V199.781H196.358V198.971L198.194 198.521L198.734 196.649H199.508V198.647H202.478V199.781H199.508V206.477H202.37V207.647H200.246ZM204.94 204.641C205.072 206.105 206.026 206.837 207.802 206.837C208.57 206.837 209.128 206.705 209.476 206.441C209.836 206.177 210.016 205.787 210.016 205.271C210.016 204.839 209.884 204.503 209.62 204.263C209.356 204.023 208.942 203.861 208.378 203.777L206.29 203.471C205.498 203.363 204.892 203.105 204.472 202.697C204.052 202.277 203.842 201.725 203.842 201.041C203.842 200.201 204.16 199.541 204.796 199.061C205.432 198.581 206.314 198.341 207.442 198.341C208.594 198.341 209.5 198.605 210.16 199.133C210.832 199.661 211.198 200.357 211.258 201.221H209.836C209.788 200.705 209.566 200.279 209.17 199.943C208.774 199.607 208.186 199.439 207.406 199.439C206.674 199.439 206.128 199.571 205.768 199.835C205.42 200.099 205.246 200.465 205.246 200.933C205.246 201.677 205.732 202.121 206.704 202.265L208.612 202.535C209.62 202.679 210.34 202.973 210.772 203.417C211.216 203.849 211.438 204.443 211.438 205.199C211.438 206.111 211.126 206.795 210.502 207.251C209.878 207.707 208.966 207.935 207.766 207.935C206.362 207.935 205.324 207.641 204.652 207.053C203.98 206.453 203.632 205.649 203.608 204.641H204.94Z" fill="#0C1318"/>
</svg>
