<svg width="32" height="32" viewBox="0 0 32 32" fill="none" xmlns="http://www.w3.org/2000/svg">
<rect width="32" height="32.0001" transform="translate(0 -0.000335693)" fill="#0C1318"/>
<path fill-rule="evenodd" clip-rule="evenodd" d="M6.93206 23.7014V8.29915L14.6328 16.0007L6.93206 23.7014ZM23.6991 25.0679H8.29845L15.9992 17.3671L23.6991 25.0679ZM25.0681 8.29915V23.7031L17.3657 16.0007L25.0681 8.29915ZM27 26.0342V5.96636L26.9999 5.95341V5.00025H26.0365L26.0337 5L26.0305 5.00025H26.0246V5.00173L26.0228 5.00235L26.0227 5.00235C26.0196 5.00341 26.0163 5.00451 26.0125 5.00489C25.8935 5.00733 25.7762 5.02852 25.6646 5.07496C25.5537 5.12059 25.456 5.18822 25.3712 5.26889C25.3682 5.27236 25.3642 5.27444 25.3603 5.2765C25.3569 5.2783 25.3535 5.28007 25.3509 5.28274L15.9993 14.6343L6.64857 5.28274C6.64619 5.27997 6.64286 5.27816 6.6394 5.27628C6.63574 5.2743 6.63195 5.27224 6.62901 5.26889C6.54346 5.18822 6.44568 5.12059 6.33568 5.07496C6.22324 5.02852 6.10509 5.00652 5.98613 5.00407C5.98246 5.00407 5.9792 5.00306 5.97594 5.00204L5.97541 5.00187V5.00034H5.96951C5.9683 5.00013 5.96705 5 5.96576 5C5.96461 5 5.96348 5.00013 5.96237 5.00034H5.00009V6.46699H5.00021V25.5333H5V27H6.46665V26.9998H25.5331V27H26.9997V26.0529C26.9999 26.0467 27 26.0405 27 26.0342Z" fill="#31F194"/>
</svg>
