<svg width="120" height="52" viewBox="0 0 120 52" fill="none" xmlns="http://www.w3.org/2000/svg">
<path d="M53.0232 27.6109C53.0232 31.8363 49.7348 34.9499 45.6992 34.9499C41.6636 34.9499 38.3752 31.8363 38.3752 27.6109C38.3752 23.3558 41.6636 20.272 45.6992 20.272C49.7348 20.272 53.0232 23.3558 53.0232 27.6109ZM49.8171 27.6109C49.8171 24.9705 47.9112 23.1639 45.6992 23.1639C43.4872 23.1639 41.5813 24.9705 41.5813 27.6109C41.5813 30.2249 43.4872 32.058 45.6992 32.058C47.9112 32.058 49.8171 30.2216 49.8171 27.6109Z" fill="#0C1318"/>
<path d="M68.8237 27.6109C68.8237 31.8363 65.5353 34.9499 61.4997 34.9499C57.4641 34.9499 54.1757 31.8363 54.1757 27.6109C54.1757 23.3591 57.4641 20.272 61.4997 20.272C65.5353 20.272 68.8237 23.3558 68.8237 27.6109ZM65.6176 27.6109C65.6176 24.9705 63.7117 23.1639 61.4997 23.1639C59.2877 23.1639 57.3818 24.9705 57.3818 27.6109C57.3818 30.2249 59.2877 32.058 61.4997 32.058C63.7117 32.058 65.6176 30.2216 65.6176 27.6109Z" fill="#0C1318"/>
<path d="M83.9646 20.7154V33.8911C83.9646 39.3109 80.7849 41.5246 77.0258 41.5246C73.4872 41.5246 71.3575 39.1455 70.5544 37.1999L73.3457 36.0319C73.8427 37.2264 75.0607 38.6359 77.0225 38.6359C79.4287 38.6359 80.9198 37.1437 80.9198 34.3345V33.279H80.8079C80.0903 34.169 78.7078 34.9466 76.9633 34.9466C73.3128 34.9466 69.9684 31.7503 69.9684 27.6374C69.9684 23.4948 73.3128 20.272 76.9633 20.272C78.7045 20.272 80.0871 21.0495 80.8079 21.9131H80.9198V20.7187H83.9646V20.7154ZM81.147 27.6374C81.147 25.0532 79.432 23.1639 77.2496 23.1639C75.0376 23.1639 73.1844 25.0532 73.1844 27.6374C73.1844 30.1951 75.0376 32.058 77.2496 32.058C79.432 32.058 81.147 30.1951 81.147 27.6374Z" fill="#0C1318"/>
<path d="M88.9845 12.9927V34.5H85.8574V12.9927H88.9845Z" fill="#0C1318"/>
<path d="M101.171 30.0265L103.659 31.6942C102.856 32.8887 100.92 34.9467 97.5761 34.9467C93.4286 34.9467 90.3311 31.7239 90.3311 27.6078C90.3311 23.2434 93.4549 20.2688 97.2173 20.2688C101.006 20.2688 102.859 23.2997 103.465 24.9375L103.797 25.7714L94.0375 29.8346C94.7848 31.307 95.9467 32.0581 97.5761 32.0581C99.2088 32.0581 100.341 31.2508 101.171 30.0265ZM93.5109 27.3861L100.035 24.6629C99.6762 23.7464 98.5965 23.1078 97.3259 23.1078C95.6965 23.1078 93.4286 24.5537 93.5109 27.3861Z" fill="#0C1318"/>
<path d="M26.5386 25.7018V22.5882H36.9765C37.0785 23.1309 37.1312 23.7728 37.1312 24.4677C37.1312 26.8037 36.4959 29.6923 34.4485 31.7504C32.457 33.8349 29.9126 34.9467 26.5419 34.9467C20.2943 34.9467 15.0408 29.8313 15.0408 23.5511C15.0408 17.271 20.2943 12.1555 26.5419 12.1555C29.9981 12.1555 32.4603 13.5188 34.3102 15.2956L32.1246 17.4927C30.798 16.2419 29.0008 15.2691 26.5386 15.2691C21.9763 15.2691 18.4082 18.9651 18.4082 23.5511C18.4082 28.1371 21.9763 31.8331 26.5386 31.8331C29.4978 31.8331 31.1831 30.6386 32.2628 29.5533C33.1384 28.6732 33.7144 27.4158 33.9416 25.6985L26.5386 25.7018Z" fill="#0C1318"/>
</svg>
