<svg width="120" height="52" viewBox="0 0 120 52" fill="none" xmlns="http://www.w3.org/2000/svg">
<g clip-path="url(#clip0_3703_39200)">
<path fill-rule="evenodd" clip-rule="evenodd" d="M77.8121 19.4645C74.3411 19.4645 71.5274 22.2929 71.5274 25.782C71.5274 29.2711 74.3411 32.0995 77.8121 32.0995C81.2831 32.0995 84.0969 29.2711 84.0969 25.782C84.0969 22.2929 81.2831 19.4645 77.8121 19.4645ZM66.2395 20.4779C68.244 16.0659 72.6719 13 77.8121 13C84.8349 13 90.5279 18.7227 90.5279 25.782C90.5279 32.8413 84.8349 38.564 77.8121 38.564C72.4177 38.564 67.8078 35.1873 65.9601 30.422C65.9691 30.5837 65.9738 30.7511 65.9738 30.9242C65.9738 38.564 59.3967 38.2702 59.3967 38.2702H48.4349V13.2645H58.9582C60.8583 13.2645 66.2661 14.3076 66.2661 19.6555C66.2661 19.9429 66.257 20.2168 66.2395 20.4779ZM65.2505 27.7777C65.1491 27.1274 65.0964 26.4609 65.0964 25.782C65.0964 25.1151 65.1472 24.4601 65.2452 23.8208C64.5094 24.913 63.4947 25.3709 62.6122 25.5322C62.3118 25.5889 62.3876 25.6164 62.6662 25.7175C63.1935 25.9088 64.447 26.3636 65.2505 27.7777ZM77.812 30.9242C80.6372 30.9242 82.9275 28.6219 82.9275 25.782C82.9275 22.942 80.6372 20.6398 77.812 20.6398C74.9868 20.6398 72.6965 22.942 72.6965 25.782C72.6965 28.6219 74.9868 30.9242 77.812 30.9242ZM54.5735 23.1375V19.3616H58.2274C58.2274 19.3616 59.689 19.3469 59.689 21.154C59.689 22.9611 58.2274 23.1375 58.2274 23.1375H54.5735ZM54.5735 32.3934V28.5735H58.2274C58.2274 28.5735 59.689 28.5735 59.689 30.3365C59.689 32.2465 58.2274 32.3934 58.2274 32.3934H54.5735ZM28.8497 38.2702V13.2645H35.7191V22.6967H40.1039V13.2645H46.9733V38.2702H40.1039V29.0142H35.7191V38.2702H28.8497Z" fill="#0C1318"/>
</g>
<defs>
<clipPath id="clip0_3703_39200">
<rect width="61.6786" height="25.564" fill="white" transform="translate(28.8497 13)"/>
</clipPath>
</defs>
</svg>
