<svg width="24" height="25" viewBox="0 0 24 25" fill="none" xmlns="http://www.w3.org/2000/svg">
<path d="M7.44432 2.07693C6.27391 2.13215 5.47464 2.31893 4.77592 2.5935C4.05277 2.87532 3.43984 3.2535 2.83 3.86555C2.22015 4.4776 1.84461 5.09096 1.56476 5.81521C1.29394 6.51548 1.11046 7.31541 1.05876 8.48648C1.00706 9.65755 0.995618 10.034 1.00134 13.0212C1.00706 16.0084 1.02026 16.3828 1.07702 17.5563C1.1329 18.7265 1.31902 19.5255 1.59358 20.2245C1.87585 20.9476 2.25359 21.5603 2.86586 22.1704C3.47812 22.7805 4.09105 23.1551 4.81706 23.4354C5.51666 23.7058 6.31681 23.8902 7.48766 23.9414C8.65852 23.9927 9.03538 24.0046 12.0217 23.9988C15.008 23.9931 15.384 23.9799 16.5573 23.9243C17.7305 23.8686 18.5254 23.6812 19.2246 23.4079C19.9477 23.125 20.5609 22.7479 21.1705 22.1354C21.7801 21.5229 22.1554 20.9091 22.4351 20.1844C22.7061 19.4848 22.8902 18.6847 22.9411 17.5147C22.9923 16.3406 23.0044 15.9657 22.9987 12.9789C22.993 9.99217 22.9796 9.61773 22.9239 8.44468C22.8682 7.27163 22.6819 6.475 22.4076 5.77561C22.1249 5.05246 21.7475 4.4402 21.1355 3.82969C20.5235 3.21918 19.9092 2.84408 19.1847 2.56512C18.4847 2.29429 17.685 2.10971 16.5141 2.05911C15.3433 2.00851 14.9664 1.99553 11.979 2.00125C8.9916 2.00697 8.6176 2.01973 7.44432 2.07693ZM7.57281 21.9625C6.50029 21.9159 5.91795 21.7377 5.52986 21.5885C5.01594 21.3905 4.64986 21.1511 4.26309 20.7681C3.87633 20.3851 3.63872 20.0177 3.43808 19.5049C3.28738 19.1168 3.10588 18.5351 3.05572 17.4626C3.00116 16.3034 2.98972 15.9553 2.98334 13.0185C2.97696 10.0817 2.98818 9.73411 3.039 8.57448C3.08476 7.50285 3.26406 6.91984 3.413 6.53198C3.611 6.01739 3.84949 5.65197 4.23339 5.26542C4.61729 4.87888 4.9836 4.64084 5.49686 4.4402C5.88451 4.28883 6.46619 4.10887 7.53826 4.05783C8.69834 4.00283 9.04594 3.99183 11.9823 3.98545C14.9187 3.97907 15.2672 3.99007 16.4277 4.04111C17.4993 4.08775 18.0825 4.26529 18.47 4.41512C18.9841 4.61312 19.35 4.85094 19.7365 5.2355C20.1231 5.62007 20.3613 5.98505 20.562 6.49942C20.7135 6.88596 20.8935 7.46743 20.9441 8.54016C20.9993 9.70023 21.0119 10.0481 21.0171 12.9842C21.0224 15.9204 21.0121 16.2691 20.9613 17.4283C20.9144 18.5008 20.7366 19.0833 20.5873 19.4719C20.3893 19.9856 20.1506 20.3519 19.7664 20.7382C19.3823 21.1245 19.0164 21.3625 18.503 21.5632C18.1158 21.7143 17.5334 21.8947 16.4622 21.9458C15.3021 22.0003 14.9545 22.0118 12.0171 22.0182C9.0796 22.0245 8.7331 22.0127 7.57302 21.9625M16.5403 7.12092C16.5408 7.38202 16.6186 7.63712 16.764 7.85396C16.9095 8.0708 17.1159 8.23964 17.3573 8.33914C17.5987 8.43863 17.8642 8.4643 18.1202 8.41291C18.3762 8.36151 18.6111 8.23536 18.7954 8.0504C18.9797 7.86544 19.105 7.62999 19.1555 7.37382C19.2059 7.11764 19.1793 6.85226 19.0789 6.61124C18.9785 6.37021 18.8089 6.16437 18.5915 6.01974C18.3742 5.87511 18.1188 5.79819 17.8577 5.79871C17.5077 5.79941 17.1723 5.93909 16.9252 6.18704C16.6782 6.43499 16.5397 6.77091 16.5403 7.12092ZM6.35201 13.011C6.35817 16.1307 8.89172 18.6539 12.0107 18.6479C15.1297 18.642 17.6546 16.1087 17.6487 12.989C17.6427 9.86941 15.1085 7.34555 11.9891 7.35171C8.86972 7.35787 6.34607 9.89185 6.35201 13.011ZM8.33335 13.0071C8.33192 12.2819 8.54557 11.5725 8.94728 10.9687C9.349 10.3649 9.92074 9.89381 10.5902 9.61495C11.2597 9.3361 11.9968 9.26203 12.7084 9.4021C13.4199 9.54218 14.074 9.89011 14.5878 10.4019C15.1016 10.9137 15.4521 11.5664 15.595 12.2774C15.7379 12.9884 15.6668 13.7258 15.3906 14.3963C15.1144 15.0669 14.6455 15.6405 14.0433 16.0446C13.4411 16.4487 12.7326 16.6652 12.0074 16.6666C11.5258 16.6676 11.0488 16.5738 10.6036 16.3904C10.1583 16.207 9.75351 15.9377 9.41233 15.5979C9.07115 15.2581 8.80026 14.8544 8.61513 14.4098C8.43 13.9653 8.33425 13.4886 8.33335 13.0071Z" fill="white"/>
</svg>
