<svg width="24" height="25" viewBox="0 0 24 25" fill="none" xmlns="http://www.w3.org/2000/svg">
<path d="M22.9981 22.9623H18.443V15.8286C18.443 14.1276 18.4127 11.9377 16.0739 11.9377C13.7015 11.9377 13.3385 13.7911 13.3385 15.7048V22.9618H8.78345V8.29214H13.1563V10.2969H13.2175C13.6552 9.54864 14.2875 8.93308 15.0473 8.51579C15.8071 8.09849 16.6658 7.89509 17.532 7.92725C22.1488 7.92725 23 10.9641 23 14.9148L22.9981 22.9623ZM3.64383 6.2869C3.12102 6.28699 2.60992 6.13205 2.17517 5.84166C1.74042 5.55127 1.40156 5.13848 1.20141 4.65549C1.00125 4.1725 0.948794 3.641 1.0507 3.1282C1.1526 2.61541 1.40428 2.14434 1.77389 1.77459C2.14351 1.40483 2.61447 1.15298 3.12721 1.05089C3.63995 0.948797 4.17144 1.00105 4.65449 1.20104C5.13753 1.40103 5.55043 1.73977 5.84096 2.17443C6.1315 2.60909 6.28663 3.12015 6.28672 3.64297C6.28678 3.99012 6.21846 4.33387 6.08568 4.65461C5.95289 4.97536 5.75826 5.2668 5.51284 5.51231C5.26743 5.75782 4.97604 5.95259 4.65536 6.08549C4.33467 6.2184 3.99096 6.28683 3.64383 6.2869ZM5.92136 22.9623H1.36156V8.29214H5.92136V22.9623Z" fill="white"/>
</svg>
