<svg width="120" height="52" viewBox="0 0 120 52" fill="none" xmlns="http://www.w3.org/2000/svg">
<path d="M30.3392 36.9334C29.0879 37.1521 27.8146 37.2177 26.4974 37.3924L22.4799 25.6802V37.895C21.2286 38.0261 20.087 38.2009 18.9015 38.3757V16H22.2385L26.8047 28.6958V16H30.3392V36.9334ZM37.2545 24.1942C38.6157 24.1942 40.7012 24.1287 41.9525 24.1287V27.6248C40.3938 27.6248 38.5717 27.6248 37.2545 27.6904V32.8911C39.3182 32.76 41.3818 32.585 43.4672 32.5195V35.8844L33.7419 36.6493V16H43.4672V19.4962H37.2545V24.1942ZM56.5294 19.4963H52.8852V35.5788C51.6997 35.5788 50.5142 35.5788 49.3729 35.6224V19.4963H45.7287V16H56.5296L56.5294 19.4963ZM62.2373 23.9539H67.0451V27.4501H62.2373V35.3822H58.7904V16H68.6038V19.4962H62.2373V23.9539ZM74.3116 32.3229C76.3094 32.3665 78.329 32.5197 80.2829 32.6288V36.0813C77.1437 35.8845 74.0043 35.6881 70.7992 35.6224V16H74.3116V32.3229ZM83.2466 36.3217C84.3662 36.3874 85.5517 36.4529 86.6932 36.5838V16H83.2466V36.3217ZM102.083 16L97.626 26.6416L102.083 38.3757C100.765 38.2009 99.4482 37.9605 98.1309 37.742L95.6064 31.2741L93.0381 37.2177C91.7645 36.999 90.5352 36.9334 89.2621 36.7586L93.7844 26.5104L89.701 16H93.4768L95.7819 21.878L98.2408 16H102.083Z" fill="#0C1318"/>
</svg>
