<svg width="120" height="52" viewBox="0 0 120 52" fill="none" xmlns="http://www.w3.org/2000/svg">
<path d="M92.4658 29.7836H92.3897L89.1516 18.4614H83.9282V32.7351H87.3884L87.1935 21.0217H87.2696L90.7466 32.7351H95.7583V18.4607H92.2751L92.4658 29.7836ZM26.0113 18.4607L23.4055 32.8854H27.208L29.1347 19.7921H29.2151L31.0908 32.8861H34.8709L32.277 18.4607H26.0113ZM47.2809 18.4621L45.5428 29.4908H45.4638L43.7341 18.4621H37.9937L37.6821 32.8854H41.2017L41.2897 19.9143H41.3693L43.7201 32.8854H47.29L49.6415 19.9185L49.7197 19.9143L49.8112 32.8854H53.3322L53.0213 18.4621H47.2809ZM14.6855 22.1713C14.6192 21.8764 14.6352 21.5814 14.6708 21.4185C14.7721 20.955 15.0767 20.4473 15.9577 20.4473C16.7834 20.4473 17.2641 20.9712 17.2641 21.7535V22.6446H20.7787V21.6376C20.7787 18.4909 18.0248 18 16.031 18C13.5293 18 11.4866 18.8518 11.1101 21.205C11.0074 21.8371 10.9948 22.4164 11.1443 23.1467C11.7556 26.0947 16.7555 26.9487 17.4813 28.8131C17.6176 29.1607 17.5735 29.6116 17.5065 29.884C17.3926 30.356 17.0761 30.8468 16.1365 30.8468C15.2577 30.8468 14.7211 30.3307 14.7211 29.5435L14.7191 28.1439H10.9452L10.9431 29.259C10.9431 32.4767 13.4134 33.4437 16.059 33.4437C18.6089 33.4437 20.6991 32.5603 21.0372 30.1523C21.2091 28.9037 21.0826 28.0849 21.0218 27.7794C20.4259 24.7577 15.0872 23.8644 14.6855 22.1713ZM60.4789 22.205C60.4097 21.9171 60.4293 21.625 60.4621 21.4656C60.5606 21.0049 60.8624 20.5028 61.7357 20.5028C62.5517 20.5028 63.0309 21.0189 63.0309 21.7907V22.6755H66.5078V21.6776C66.5078 18.5695 63.7791 18.0801 61.8111 18.0801C59.3311 18.0801 57.3059 18.9129 56.9377 21.2514C56.835 21.8806 56.8189 22.4557 56.9698 23.1755C57.5755 26.0926 62.5258 26.9402 63.2461 28.7843C63.3774 29.1319 63.3376 29.5751 63.2733 29.8454C63.1587 30.3208 62.8423 30.797 61.9159 30.797C61.0413 30.797 60.5145 30.2885 60.5145 29.5097L60.5117 28.1207H56.7714V29.226C56.7714 32.4107 59.22 33.3665 61.8398 33.3665C64.3582 33.3665 66.431 32.4908 66.7628 30.1081C66.9333 28.8756 66.8075 28.0638 66.7482 27.7598C66.1578 24.7703 60.8701 23.882 60.4789 22.205ZM76.4413 29.1284C76.4441 29.3117 76.4385 29.5238 76.4084 29.6783C76.3386 30.0371 76.0375 30.7162 75.0587 30.7162C74.0835 30.7162 73.7789 30.0371 73.709 29.6783C73.679 29.5238 73.672 29.3117 73.6734 29.1284V18.4593H70.1161V28.7977C70.1105 29.0652 70.1364 29.6067 70.149 29.7506C70.3907 32.4395 72.4697 33.3082 75.058 33.3082C77.6436 33.3082 79.7219 32.4395 79.9713 29.7506C79.9839 29.6067 80.0111 29.0645 80.0069 28.7977V18.4593H76.4406V29.1284H76.4413ZM104.448 24.7759V26.8883H105.889V28.9803C105.894 29.1621 105.887 29.363 105.857 29.528C105.794 29.9163 105.435 30.5715 104.42 30.5715C103.402 30.5715 103.044 29.9156 102.978 29.528C102.951 29.363 102.943 29.1621 102.947 28.9803V22.3806C102.947 22.146 102.962 21.8897 103.004 21.7036C103.079 21.3483 103.382 20.6566 104.406 20.6566C105.482 20.6566 105.748 21.3869 105.813 21.7036C105.854 21.9038 105.857 22.2486 105.857 22.2472V23.0597H109.404V22.5779C109.403 22.5779 109.417 22.0849 109.375 21.6348C109.115 18.922 106.928 18.0681 104.435 18.0681C101.941 18.0681 99.8053 18.9291 99.4958 21.6348C99.4658 21.8679 99.4344 22.3216 99.4344 22.5779L99.433 28.6467C99.4344 28.9185 99.4428 29.1193 99.4819 29.5996C99.7138 32.226 101.941 33.167 104.432 33.167C106.925 33.167 109.152 32.226 109.385 29.5996C109.424 29.1186 109.429 28.9178 109.43 28.6467V24.7759H104.448Z" fill="#0C1318"/>
</svg>
