<svg width="89" height="52" viewBox="0 0 89 52" fill="none" xmlns="http://www.w3.org/2000/svg">
<path d="M67.0118 24.4289H72.4708V29.9163H67.0118V24.4289ZM50.6359 24.4289H56.0939V29.9163H50.6359V24.4289ZM34.259 24.4289H39.718V29.9163H34.259V24.4289ZM30.7842 33.2333C30.7842 34.9741 31.0369 36.1041 31.5442 36.625C31.973 37.0689 32.7039 37.3422 33.7285 37.444C34.0324 37.4697 34.5533 37.4816 35.2888 37.4816V39.0068H22.1354V37.4816C23.192 37.4816 23.9703 37.4312 24.4739 37.3293C25.4931 37.1138 26.1354 36.5167 26.3991 35.5381C26.5369 35.0309 26.6072 34.2624 26.6072 33.2333V13.2969C24.3754 13.3602 22.63 14.1031 21.3699 15.5265C20.1728 16.8885 19.4429 18.9732 19.1774 21.7816L17.7559 21.5348L18.0205 12H39.4037L39.6692 21.5348L38.2459 21.7816C37.9813 18.9732 37.245 16.8885 36.0433 15.5265C34.7769 14.1031 33.0232 13.3601 30.7842 13.2969V33.2333V33.2333ZM17.7818 24.4289H23.2407V29.9163H17.7818V24.4289Z" fill="#0C1318"/>
</svg>
