<svg width="1286" height="495" viewBox="0 0 1286 495" fill="none" xmlns="http://www.w3.org/2000/svg">
<g opacity="0.6">
<path d="M504.169 28.3292C503.196 28.1519 502.21 28.0299 501.218 27.964C485.333 27.6513 469.435 27.635 453.573 26.956C444.134 26.5527 434.747 25.1766 425.362 24.0997C423.2 23.8547 420.753 23.7221 419.325 21.7153C420.127 19.6954 422.264 19.4662 423.915 19.1287C431.482 17.5879 439.047 15.883 446.722 14.9808C455.238 13.9803 463.869 13.5554 472.459 13.3013C482.583 13.0017 492.723 13.1463 502.853 13.0969C510.883 13.0554 518.905 12.977 526.935 12.9998C530.643 13.0094 534.36 13.22 538.064 13.35C549.686 13.7601 561.312 14.1757 572.942 14.5968C580.958 14.8874 588.994 15.0605 596.998 15.5342C603.805 15.9355 610.585 16.7235 617.378 17.2505C619.511 17.412 621.682 17.1391 623.815 17.3007C632.514 17.9557 641.198 18.7077 649.895 19.405C653.902 19.7246 657.915 19.9526 661.914 20.3062C669.776 21.0035 677.612 22.052 685.489 22.4172C695.304 22.8737 704.921 24.4761 714.643 25.3928C717.624 25.6706 720.348 26.4792 723.217 26.851C726.188 27.234 729.176 27.4777 732.166 27.7501C737.566 28.241 742.978 28.6485 748.373 29.1955C750.216 29.3834 752.013 29.9046 753.842 30.2182C759.279 31.1356 764.694 32.5545 770.172 32.7888C778.52 33.146 786.318 35.6539 794.479 36.5968C798.737 37.0893 803.02 37.3729 807.261 37.9337C809.083 38.236 810.857 38.7258 812.546 39.3932C814.689 40.1615 816.738 40.9842 819.158 40.3077C819.843 40.2502 820.533 40.3349 821.173 40.5549C833.453 42.9192 845.654 45.7178 858.041 47.5249C867.03 48.8369 875.587 51.5946 884.617 52.7003C886.545 52.9391 888.509 53.8107 890.585 54.2468C899.193 56.0385 907.679 58.278 916.233 60.295C918.013 60.7137 919.952 60.6696 921.686 61.1797C932.983 64.4782 944.267 67.7958 955.495 71.2457C960.977 72.9327 966.312 74.9635 971.738 76.7828C978.32 78.9873 984.978 81.0417 991.52 83.3458C997.046 85.2898 1002.44 87.5314 1007.92 89.5873C1012.78 91.4115 1017.69 93.1253 1022.55 94.9564C1023.69 95.4726 1024.79 96.0481 1025.85 96.6798C1026.46 96.9879 1027.12 97.4971 1027.73 97.465C1031.26 97.3005 1033.99 98.7719 1036.86 100.304C1039.54 101.73 1042.58 102.611 1045.41 103.83C1047.83 104.868 1050.14 106.094 1052.55 107.144C1056.99 109.071 1061.47 110.928 1065.94 112.81C1067.33 113.394 1068.76 113.928 1070.12 114.57C1075.23 116.987 1080.33 119.404 1085.39 121.884C1089.36 123.826 1093.3 125.823 1097.22 127.875C1099.27 128.947 1101.2 130.204 1103.23 131.315C1106.96 133.372 1110.71 135.403 1114.47 137.408C1118.24 139.415 1122.43 140.92 1125.16 144.184C1131.7 146.495 1136.15 151.486 1142.33 154.365C1145.61 155.893 1148.1 158.695 1151.02 160.854C1155.02 163.821 1158.97 166.856 1163.16 169.607C1170.07 174.148 1176.62 179.001 1182.28 184.749C1184.83 187.28 1187.53 189.687 1190.38 191.959C1191.78 193.107 1194 193.619 1195.06 194.919C1200.11 201.098 1206.68 206.19 1211.57 212.418C1215.36 217.246 1219.63 221.777 1223.2 226.702C1227.17 232.314 1230.81 238.1 1234.11 244.037C1236.26 247.805 1238.15 251.683 1239.78 255.651C1244.32 266.657 1245.86 272.499 1246.36 283.642C1246.59 288.736 1246.96 293.821 1245.71 298.886C1245.44 299.99 1246.43 301.336 1246.14 302.429C1245.49 304.343 1244.68 306.213 1243.72 308.024C1243.23 308.93 1242.78 309.858 1242.4 310.805C1240.82 315.754 1239.42 320.748 1237.71 325.666C1237.15 327.274 1235.75 328.637 1234.92 330.19C1233.11 333.589 1231.61 337.121 1229.67 340.452C1227.06 344.91 1224.13 349.225 1221.38 353.623C1220.39 355.21 1219.74 356.987 1218.59 358.459C1215.1 362.881 1211.55 367.269 1207.81 371.532C1205.4 374.288 1202.64 376.813 1200 379.414C1198.59 380.811 1196.98 382.069 1195.64 383.515C1190.97 388.593 1184.96 392.369 1179.36 396.541C1175.33 399.554 1171.32 402.594 1167.27 405.606C1166.29 406.334 1165.25 406.994 1164.2 407.661C1161.08 409.641 1158 411.694 1154.79 413.56C1152.39 414.946 1149.77 416.028 1147.34 417.364C1144.6 418.873 1142 420.594 1139.27 422.111C1136.03 423.915 1132.77 425.7 1129.41 427.319C1124.55 429.659 1119.82 432.447 1114.62 433.907C1110.32 435.116 1106.67 437.187 1102.68 438.742C1096.49 441.142 1090.33 443.619 1084.04 445.75C1079.53 447.276 1074.78 448.234 1070.18 449.551C1067.51 450.311 1064.64 450.915 1062.37 452.251C1058.76 454.367 1054.53 454.164 1050.72 455.423C1047.12 456.615 1043.26 457.183 1039.53 458.044C1035.61 458.944 1031.5 459.453 1027.83 460.86C1023.68 462.45 1019.32 462.992 1015.07 464.067C1011.4 464.996 1007.73 466.61 1004.05 466.655C1000.85 466.693 998.047 468.041 994.903 467.841C993.834 467.77 992.7 468.314 991.616 468.618C990.978 468.891 990.317 469.12 989.639 469.303C981.997 470.339 974.339 471.309 966.708 472.368C965.04 472.603 963.449 473.2 961.796 473.545C957.357 474.465 952.823 474.627 948.301 474.977C944.498 475.263 940.709 475.802 936.958 476.418C930.097 477.523 923.153 478.179 916.184 478.382C912.069 478.52 907.97 479.031 903.867 479.391C903.437 479.428 902.98 479.716 902.61 479.636C897.04 478.424 891.773 480.79 886.269 480.736C880.434 480.68 874.589 481.347 868.739 481.523C866.037 481.608 863.322 481.172 860.61 481.163C858.65 481.16 856.688 481.542 854.728 481.646C849.887 481.903 845.049 482.153 840.209 482.304C835.843 482.439 831.476 482.546 827.113 482.498C821.821 482.439 816.558 482.77 811.225 482.405C804.177 481.925 797.014 482.755 789.911 482.714C783.375 482.674 776.842 482.108 770.308 482.026C767.514 481.988 764.744 482.26 761.887 482.111C754.873 481.73 747.814 481.881 740.776 481.773C739.638 481.754 738.498 481.471 737.359 481.424C734.815 481.324 732.263 481.322 729.714 481.243C727.294 481.165 724.865 481.057 722.447 480.937C719.437 480.789 716.429 480.591 713.42 480.472C708.403 480.278 703.382 480.168 698.37 479.953C695.789 479.839 693.212 479.569 690.639 479.35C690.066 479.305 689.481 479.007 688.945 479.082C681.727 480.073 674.718 478.027 667.548 478.031C662.014 478.036 656.486 477.265 650.947 476.878C647.68 476.648 644.392 476.614 641.135 476.308C629.981 475.277 618.83 474.133 607.672 473.123C606.054 472.975 604.28 473.661 602.743 473.342C600.994 472.948 599.206 472.699 597.402 472.599C593.137 472.411 588.916 471.491 584.663 470.978C581.695 470.617 578.692 470.47 575.72 470.158C570.423 469.607 565.082 469.241 559.855 468.361C556.093 467.723 552.507 466.859 548.54 467.223C545.915 467.465 543.153 466.678 540.468 466.246C533.201 465.087 525.95 463.858 518.686 462.72C517.788 462.581 516.534 462.505 515.931 462.931C514.978 463.6 514.559 463.183 513.727 462.899C511.613 462.143 509.43 461.545 507.2 461.11C502.062 460.161 496.904 459.265 491.714 458.534C486.217 457.77 480.675 457.225 475.149 456.583C474.716 456.597 474.284 456.534 473.88 456.399C470.226 454.214 465.951 454.544 461.879 454.191C459.305 454.039 456.783 453.486 454.433 452.558C452.051 451.569 449.151 451.533 446.479 451.083C441.025 450.169 435.559 449.339 430.129 448.323C424.567 447.284 419.063 446.034 413.509 444.961C407.522 443.802 401.262 443.314 395.588 441.45C391.312 440.043 386.709 440.015 382.533 438.014C379.309 436.476 375.068 436.563 371.28 435.934C370.305 435.773 369.291 435.748 368.342 435.514C361.113 433.749 353.963 431.684 346.651 430.267C342.849 429.529 339.37 428.244 335.751 427.175C331.572 425.942 327.266 425.035 323.018 423.989C319.283 423.071 315.518 422.24 311.815 421.22C306.133 419.661 300.562 417.737 294.803 416.435C291.774 415.75 288.886 414.399 285.965 414.04C279.914 413.29 274.747 410.549 268.977 409.259C266.545 408.716 264.355 407.398 261.986 406.589C260.307 406.018 258.477 405.775 256.771 405.249C254.786 404.637 252.865 403.852 250.893 403.185C247.384 401.994 243.869 400.816 240.349 399.651C234.368 397.676 228.943 394.554 222.61 393.248C220.154 392.744 217.922 391.461 215.55 390.602C209.147 388.287 202.72 386.011 196.307 383.709C195.658 383.471 195.028 383.196 194.42 382.887C191.562 381.478 188.784 380.04 185.442 379.441C183.134 379.028 181.016 377.744 178.838 376.82C176.547 375.854 174.493 374.504 171.768 374.315C170.628 374.238 169.596 373.192 168.475 372.657C162.971 370.041 157.702 366.805 151.851 365.037C146.764 363.499 142.506 360.921 137.879 358.839C130.632 355.49 123.593 351.805 116.792 347.801C112.629 345.403 108.477 342.994 104.304 340.609C101.692 339.116 98.9255 337.802 96.4496 336.148C91.8026 333.059 87.1935 329.913 82.8042 326.557C77.7624 322.706 72.9689 318.595 68.0747 314.6C66.4258 313.251 64.6781 311.977 63.1296 310.547C59.0553 306.784 54.7054 303.194 51.1245 299.093C47.7915 295.278 45.3075 290.89 42.4569 286.749C42.1619 286.319 41.9044 285.867 41.5702 285.466C38.6818 282.026 36.5449 278.144 35.2671 274.016C34.2671 270.783 32.2342 267.807 31.1766 264.578C29.2508 258.688 28.0344 252.677 28.6052 246.473C28.7102 245.346 28.4886 244.196 28.5237 243.056C28.5649 241.412 28.3065 239.665 28.8664 238.157C31.2267 231.854 33.042 225.389 36.4644 219.39C40.0417 213.113 43.5634 206.798 48.1371 201.034C51.1521 197.232 54.5807 193.669 57.9425 190.079C61.7381 186.026 65.6116 182.032 69.5628 178.097C71.2514 176.407 73.2012 174.913 75.0274 173.326C79.2838 169.619 83.5557 165.914 87.7998 162.191C91.2249 159.189 94.6114 156.145 98.0705 153.17C99.0425 152.421 100.061 151.72 101.12 151.069C102.12 150.373 103.322 149.812 104.069 148.95C107.94 144.476 113.16 141.383 118.111 137.993C121.283 135.821 123.74 133.009 127.08 130.91C134.294 126.38 140.935 121.122 148.223 116.691C157.146 111.273 166.443 106.327 175.677 101.305C179.935 98.9935 184.33 96.8558 188.799 94.881C196.073 91.6719 203.461 88.6614 210.791 85.5551C212.827 84.6886 214.781 83.6579 216.867 82.886C225.539 79.6925 234.224 76.5087 242.959 73.4549C247.191 71.9713 251.56 70.797 255.858 69.4461C261.914 67.5422 267.935 65.5535 274.004 63.7015C277.252 62.7107 280.566 61.8881 283.869 61.0423C293.991 58.4578 304.093 55.7912 314.266 53.3722C319.476 52.1351 324.848 51.411 330.127 50.3641C337.642 48.871 345.101 47.133 352.657 45.8108C359.944 44.526 367.315 43.6405 374.643 42.5622C383.816 41.2167 392.98 39.7701 402.171 38.5203C409.845 37.4828 417.548 36.5998 425.254 35.7673C436.637 34.5331 448.026 33.2716 459.437 32.2561C471.594 31.1748 483.77 30.3532 495.941 29.4456C498.63 29.2441 501.335 29.1452 504.026 29.0011C504.073 28.7676 504.119 28.5409 504.158 28.306L504.169 28.3292ZM675.136 40.0923C675.079 40.267 675.029 40.4432 674.971 40.6179C678.08 42.2996 681.273 43.8682 684.255 45.7122C685.494 46.5344 686.458 47.6338 687.048 48.8961C687.179 49.352 687.187 49.8289 687.071 50.2888C686.955 50.7487 686.719 51.1789 686.38 51.5451C685.974 51.8484 685.498 52.0716 684.986 52.1996C684.473 52.3276 683.936 52.3573 683.41 52.2868C682.04 52.0485 680.808 51.2654 679.496 50.7527C670.57 47.2598 661.721 43.2398 652.02 41.9924C640.534 40.5177 628.867 40.014 617.256 39.3069C607.393 38.7068 597.515 38.3102 587.633 38.0339C576.429 37.7272 565.214 37.3685 554.018 37.5757C541.836 37.8055 529.661 38.556 517.494 39.2724C507.908 39.8321 498.335 40.6432 488.764 41.412C483.471 41.8371 478.195 42.3934 472.91 42.8841C464.627 43.6559 456.329 44.2827 448.073 45.2445C439.05 46.2967 430.081 47.6715 421.088 48.9069C415.008 49.7461 408.911 50.5184 402.845 51.4383C396.625 52.3878 390.434 53.4918 384.226 54.5287C379.443 55.33 374.644 56.0929 369.869 56.931C364.933 57.7973 360.024 58.7539 355.091 59.6421C347.524 61.0121 339.912 62.196 332.397 63.7602C325.902 65.116 319.578 67.1215 313.074 68.4541C300.028 71.2276 287.224 74.8225 274.76 79.2108C265.994 82.2235 256.981 84.6368 248.453 88.3186C242.867 90.7338 236.63 92.029 231 94.593C226.325 96.7161 221.38 98.3709 216.657 100.421C209.975 103.324 203.585 106.84 196.698 109.272C190.563 111.439 185.762 115.255 180.115 117.958C177.822 119.017 175.602 120.192 173.465 121.478C167.63 125.109 161.856 128.829 156.091 132.543C151.137 135.741 145.904 138.682 141.392 142.307C136.912 145.896 131.776 148.734 127.443 152.455C123.863 155.529 120.483 158.824 116.142 161.142C116.031 161.2 115.978 161.355 115.884 161.444C114.118 163.085 112.425 164.796 110.565 166.356C106.555 169.737 102.427 173.005 98.4184 176.386C95.6327 178.741 92.9814 181.212 90.2559 183.62C81.9914 190.944 73.9419 198.419 67.9325 207.371C67.5822 207.892 66.9577 208.271 66.5408 208.766C64.6778 210.987 62.3541 213.033 61.0976 215.499C58.7778 220.058 54.988 223.984 53.6561 228.955C53.3785 229.666 53.0387 230.357 52.6398 231.022C50.0811 236.095 48.765 241.58 48.7768 247.12C48.9261 253.396 50.794 259.496 53.3894 265.363C54.5826 268.054 55.7282 270.843 57.4922 273.244C61.1617 278.236 65.2035 283.025 69.1547 287.854C71.0579 290.181 72.997 292.493 75.775 294.136C76.5732 294.673 77.2942 295.292 77.9222 295.98C80.2094 298.191 82.302 300.573 84.7792 302.597C87.907 305.158 91.3565 307.42 94.6491 309.832C99.8686 313.65 104.702 318.004 110.409 321.133C114.511 323.377 118.651 325.493 122.527 328.074C125.791 330.122 129.181 332.01 132.682 333.73C136.006 335.464 139.419 337.058 142.792 338.723C146.215 340.411 149.931 341.789 152.979 343.901C155.471 345.622 158.241 346.239 161.017 347.107C162.36 347.525 163.97 347.771 164.928 348.583C167.506 350.761 170.787 351.584 173.916 352.771C177.045 353.958 180.53 354.532 183.096 356.765C183.688 357.112 184.348 357.363 185.043 357.505C187.94 358.508 190.853 359.479 193.736 360.508C195.671 361.196 197.566 361.984 199.5 362.679C203.314 364.053 207.36 365.063 210.918 366.832C214.768 368.739 218.846 369.954 222.946 371.216C224.275 371.625 225.627 372.002 226.918 372.504C233.061 374.886 238.989 377.834 245.352 379.594C254.961 382.256 264.186 385.717 273.59 388.797C277.048 389.929 280.592 390.87 284.103 391.884C290.88 393.846 297.458 396.377 304.545 397.476C304.676 397.524 304.804 397.58 304.926 397.644C308.194 398.756 311.394 400.091 314.758 400.936C323.788 403.202 332.895 405.247 341.967 407.406C344.29 407.958 346.552 408.705 348.888 409.202C351.918 409.852 355.038 410.19 358.037 410.934C362.678 412.004 367.248 413.298 371.724 414.81C373.442 415.424 375.019 414.682 376.883 415.536C380.393 417.147 384.227 418.146 388.175 418.477C393.284 418.866 398.107 419.98 402.996 421.091C405.416 421.645 408.291 421.207 410.418 422.143C417.042 425.06 424.443 425.041 431.357 426.835C438.714 428.744 446.392 429.707 453.933 431.045C456.039 431.422 458.208 431.533 460.293 431.964C466.076 433.164 471.707 434.97 477.749 435.149C479.014 435.107 480.279 435.228 481.503 435.509C487.978 437.48 494.886 437.558 501.467 438.979C507.263 440.232 513.493 439.405 519.032 441.843C519.436 441.973 519.862 442.047 520.293 442.061C525.232 442.583 530.196 442.932 535.098 443.647C542.475 444.72 549.788 446.059 557.276 446.596C564.668 447.124 572.041 447.975 579.378 448.977C583.106 449.482 586.956 448.684 590.591 449.962C591.757 450.398 593.002 450.65 594.27 450.707C599.126 450.794 603.972 450.751 608.661 452.161C609.779 452.38 610.926 452.461 612.071 452.402C614.2 452.477 616.346 452.378 618.447 452.605C625.257 453.334 632.055 454.182 638.855 454.988C642.994 453.317 646.843 456.249 651.075 455.449C653.714 454.946 656.724 455.336 659.421 455.884C667.122 457.435 674.913 457.443 682.736 457.557C685.177 457.679 687.606 457.931 690.01 458.312C690.826 458.527 691.658 458.695 692.499 458.815C699.781 458.818 707.098 458.364 714.339 458.814C724.046 459.422 733.732 460.048 743.482 459.994C747.764 459.972 752.041 460.283 756.321 460.473C761.396 460.699 766.473 460.983 771.549 461.166C772.535 461.104 773.513 460.96 774.47 460.736C775.284 460.587 776.112 460.504 776.942 460.489C780.22 460.607 783.493 460.809 786.765 460.947C790.959 461.129 795.163 461.064 799.363 461.183C806.254 461.365 813.173 460.918 820.076 460.845C822.033 460.826 823.996 461.362 825.956 461.329C830.95 461.242 835.942 460.962 840.932 460.789C843.48 460.705 846.031 460.777 848.574 460.643C854.677 460.32 860.76 459.744 866.869 459.601C877.24 459.353 887.601 458.946 897.931 458.05C900.536 457.826 903.24 458.069 905.765 457.568C908.867 456.956 911.849 456.267 915.068 456.872C916.211 456.977 917.368 456.908 918.486 456.666C922.428 456.134 926.353 455.499 930.302 455.004C938.518 453.971 946.793 453.205 954.956 451.913C959.097 451.26 963.347 451.339 967.434 449.751C970.261 448.656 973.84 449.105 977.069 448.744C978.151 448.625 979.89 449.25 979.985 447.345C980.458 447.283 980.934 447.248 981.412 447.238C984.378 447.029 987.728 447.523 990.245 446.472C995.737 444.182 1002.15 444.761 1007.31 441.779C1007.62 441.599 1008.14 441.701 1008.57 441.691C1013.41 441.515 1018.18 440.52 1022.6 438.762C1024.67 437.987 1026.81 437.017 1029.4 437.168C1031.27 437.275 1033.25 436.435 1035.13 435.882C1037.01 435.329 1038.78 434.509 1040.67 433.993C1046.13 432.501 1051.65 431.156 1057.09 429.619C1058.53 429.215 1059.72 428.117 1061.15 427.683C1066.28 426.126 1071.47 424.722 1076.64 423.235C1077.85 422.884 1079.45 422.714 1080.13 421.954C1081.79 420.116 1084.21 420.251 1086.3 419.572C1087.22 419.275 1088.32 419.343 1089.2 418.987C1091.66 418.006 1093.95 416.481 1096.52 415.937C1099.22 415.367 1101.07 413.372 1103.87 413.133C1104.41 413.088 1104.86 412.315 1105.4 411.919C1105.96 411.413 1106.6 410.982 1107.3 410.638C1113.9 408.051 1120.29 405.075 1126.43 401.732C1128.61 400.562 1130.97 399.676 1133.24 398.645C1133.85 398.377 1134.44 398.054 1134.97 397.682C1136.97 396.254 1138.87 394.7 1140.94 393.37C1143.12 391.967 1145.53 390.848 1147.7 389.436C1148.89 388.66 1149.59 387.092 1150.85 386.67C1153.8 385.682 1156 384.005 1158.14 382.089C1160.03 380.406 1161.95 378.509 1164.3 377.536C1167.04 376.404 1168.47 374.461 1169.75 372.477C1171.13 370.354 1173.13 368.926 1175.11 367.393C1176 366.78 1176.85 366.126 1177.67 365.433C1179.99 363.209 1181.98 360.624 1184.61 358.74C1187.38 356.753 1188.13 353.578 1190.89 351.688C1191.9 351.011 1192.77 350.194 1193.48 349.27C1195.03 347.177 1196.43 344.994 1197.85 342.835C1199.92 339.684 1202.03 336.552 1204.02 333.358C1205.17 331.521 1205.83 329.383 1207.25 327.752C1209.5 325.173 1210.46 322.085 1211.39 319.199C1212.42 316.037 1214.39 313.33 1215.51 310.278C1216.42 307.814 1217.72 305.421 1218.23 302.9C1218.69 300.635 1219.05 298.363 1219.74 296.133C1220 295.426 1220.14 294.69 1220.15 293.949C1220.04 290.08 1219.55 286.198 1219.84 282.356C1220 280.214 1219.84 278.385 1218.64 276.567C1218.41 276.109 1218.27 275.62 1218.23 275.12C1217.68 272.318 1217.61 269.366 1216.53 266.744C1213.32 258.996 1209.61 251.412 1204.48 244.471C1203.25 242.813 1203.45 240.03 1200.15 239.781C1199.94 239.765 1199.61 239.144 1199.65 238.83C1199.78 237.644 1198.45 237.177 1198.13 236.479C1196.64 233.223 1194.07 230.797 1191.52 228.228C1189.5 226.185 1188.21 223.577 1186.26 221.462C1183.98 218.982 1180.54 217.369 1179.2 214.134C1178.83 213.591 1178.28 213.164 1177.61 212.916C1174.25 211.253 1172.33 208.325 1169.68 206.035C1167.65 204.284 1165.99 202.193 1163.93 200.485C1159.92 197.162 1155.72 194.011 1151.64 190.753C1148.92 188.578 1146.42 186.152 1143.54 184.156C1137.29 179.826 1130.85 175.717 1124.52 171.466C1122.7 170.242 1121.25 168.26 1119.23 167.656C1113.98 166.096 1111.37 160.939 1105.58 160.284C1105.24 160.245 1104.99 159.759 1104.66 159.521C1103.11 158.434 1101.64 157.252 1100.01 156.304C1097.14 154.651 1094.18 153.125 1091.23 151.592C1084.41 148.056 1077.42 144.741 1070.78 140.952C1066.99 138.801 1062.73 137.601 1059.03 135.166C1054.86 132.426 1049.7 130.84 1044.94 128.812C1043.66 128.271 1042.16 128.109 1040.95 127.506C1035.62 124.879 1030.61 121.796 1024.73 120.058C1020.62 118.845 1016.64 117.244 1012.67 115.691C1009.68 114.523 1006.82 113.112 1003.85 111.897C999.469 110.109 995.207 107.651 990.584 106.886C986.079 106.136 982.828 103.447 978.447 102.619C974.525 101.873 970.994 99.6818 967.155 98.4458C961.45 96.6119 955.675 94.965 950.14 92.7203C947.686 91.7254 944.818 91.4534 942.479 90.3154C939.549 88.8298 936.309 87.8718 932.948 87.497C931.043 87.2979 928.309 87.4842 926.828 85.4253C926.499 84.9677 925.277 85.0333 924.486 84.8134C922.757 84.3184 921.032 83.8029 919.309 83.2805C917.828 82.83 916.384 82.2581 914.875 81.9237C912.156 81.3297 909.367 80.965 906.656 80.3369C904.615 79.8572 902.683 79.0199 900.644 78.4978C896.458 77.4275 892.24 76.4581 888.039 75.456C882.871 74.2238 877.727 72.8892 872.509 71.7976C868.087 70.8699 863.543 70.3901 859.128 69.4351C845.176 66.4366 831.228 63.4531 817.131 60.998C810.145 59.7816 803.162 58.5492 796.184 57.3009C791.327 56.4306 786.503 55.3881 781.627 54.5997C776.447 53.7569 771.217 53.1969 766.04 52.3473C763.693 51.9623 761.482 50.9327 759.133 50.6255C754.073 49.9608 748.938 49.7168 743.881 49.0453C734.585 47.7993 725.331 46.3402 716.051 45.0259C710.557 44.2477 705.049 43.5597 699.538 42.8853C693.037 42.0832 686.534 41.3235 680.031 40.5637C678.415 40.3738 676.788 40.2673 675.162 40.1183L675.136 40.0923Z" fill="#F4E8FF"/>
</g>
</svg>
