<svg width="1311" height="813" viewBox="0 0 1311 813" fill="none" xmlns="http://www.w3.org/2000/svg">
<g opacity="0.5">
<path d="M506.709 175.137C505.709 174.892 504.699 174.702 503.683 174.568C487.449 173.181 471.211 172.093 454.987 170.336C445.333 169.292 435.702 167.265 426.082 165.542C423.866 165.148 421.362 164.848 419.839 162.719C420.594 160.726 422.768 160.638 424.444 160.407C432.123 159.356 439.795 158.138 447.605 157.741C456.271 157.301 465.073 157.452 473.839 157.774C484.17 158.152 494.532 158.982 504.876 159.615C513.076 160.114 521.267 160.575 529.471 161.139C533.258 161.399 537.061 161.862 540.848 162.244C552.732 163.442 564.62 164.647 576.512 165.857C584.709 166.692 592.922 167.409 601.113 168.428C608.078 169.293 615.028 170.548 621.984 171.54C624.167 171.847 626.376 171.717 628.559 172.025C637.465 173.274 646.359 174.621 655.264 175.914C659.367 176.508 663.473 177.009 667.569 177.637C675.622 178.873 683.66 180.464 691.716 181.364C701.756 182.488 711.63 184.76 721.59 186.344C724.642 186.826 727.451 187.829 730.393 188.399C733.44 188.987 736.5 189.435 739.562 189.913C745.094 190.774 750.635 191.552 756.163 192.47C758.051 192.784 759.903 193.433 761.781 193.874C767.364 195.17 772.941 196.973 778.543 197.579C787.081 198.504 795.126 201.57 803.492 203.075C807.857 203.861 812.24 204.437 816.59 205.291C818.461 205.72 820.288 206.336 822.035 207.126C824.248 208.049 826.367 209.021 828.818 208.498C829.516 208.486 830.223 208.618 830.884 208.884C843.502 212.107 856.054 215.765 868.764 218.431C877.987 220.366 886.815 223.737 896.074 225.465C898.051 225.837 900.085 226.853 902.219 227.434C911.069 229.83 919.808 232.671 928.61 235.291C930.441 235.835 932.42 235.921 934.208 236.555C945.852 240.658 957.484 244.78 969.063 249.032C974.716 251.11 980.23 253.528 985.83 255.736C992.624 258.414 999.49 260.944 1006.25 263.719C1011.95 266.061 1017.54 268.696 1023.2 271.148C1028.22 273.324 1033.29 275.392 1038.31 277.574C1039.49 278.174 1040.64 278.831 1041.74 279.543C1042.37 279.896 1043.06 280.456 1043.68 280.465C1047.29 280.536 1050.12 282.211 1053.1 283.956C1055.88 285.582 1059.02 286.679 1061.95 288.105C1064.45 289.32 1066.85 290.718 1069.35 291.945C1073.94 294.196 1078.58 296.38 1083.2 298.587C1084.64 299.273 1086.12 299.91 1087.53 300.653C1092.82 303.445 1098.11 306.238 1103.36 309.091C1107.48 311.327 1111.57 313.616 1115.63 315.958C1117.76 317.184 1119.78 318.587 1121.88 319.85C1125.76 322.186 1129.66 324.496 1133.56 326.781C1137.48 329.068 1141.8 330.875 1144.69 334.366C1151.45 337.148 1156.16 342.505 1162.56 345.839C1165.96 347.609 1168.59 350.615 1171.64 352.999C1175.82 356.275 1179.95 359.616 1184.32 362.686C1191.53 367.753 1198.37 373.111 1204.34 379.316C1207.02 382.052 1209.86 384.673 1212.84 387.167C1214.32 388.425 1216.6 389.093 1217.72 390.482C1223.08 397.083 1229.95 402.685 1235.14 409.324C1239.17 414.472 1243.68 419.351 1247.48 424.581C1251.71 430.535 1255.62 436.642 1259.18 442.88C1261.5 446.843 1263.56 450.9 1265.34 455.03C1270.33 466.487 1272.09 472.51 1272.96 483.834C1273.36 489.011 1273.9 494.188 1272.79 499.236C1272.55 500.337 1273.61 501.767 1273.35 502.855C1272.74 504.75 1271.98 506.591 1271.05 508.361C1270.57 509.245 1270.15 510.156 1269.79 511.09C1268.34 515.997 1267.07 520.963 1265.48 525.831C1264.96 527.423 1263.57 528.709 1262.77 530.226C1261.04 533.549 1259.62 537.027 1257.74 540.27C1255.22 544.612 1252.36 548.786 1249.7 553.057C1248.74 554.599 1248.13 556.355 1247 557.769C1243.58 562.014 1240.09 566.221 1236.41 570.288C1234.04 572.918 1231.3 575.291 1228.69 577.749C1227.29 579.069 1225.69 580.235 1224.37 581.611C1219.76 586.441 1213.74 589.862 1208.16 593.711C1204.13 596.492 1200.14 599.302 1196.1 602.081C1195.12 602.753 1194.08 603.352 1193.03 603.956C1189.9 605.753 1186.82 607.625 1183.6 609.299C1181.2 610.542 1178.56 611.462 1176.12 612.652C1173.37 613.997 1170.77 615.564 1168.03 616.918C1164.78 618.527 1161.5 620.116 1158.13 621.53C1153.24 623.574 1148.49 626.08 1143.23 627.209C1138.88 628.144 1135.22 629.997 1131.19 631.302C1124.95 633.318 1118.74 635.412 1112.37 637.147C1107.82 638.39 1103 639.04 1098.34 640.064C1095.64 640.655 1092.73 641.074 1090.45 642.274C1086.84 644.175 1082.51 643.684 1078.65 644.704C1075.02 645.669 1071.09 645.984 1067.31 646.605C1063.34 647.253 1059.16 647.492 1055.45 648.67C1051.27 650.002 1046.82 650.256 1042.52 651.059C1038.8 651.753 1035.11 653.142 1031.35 652.939C1028.08 652.763 1025.26 653.939 1022.04 653.524C1020.95 653.381 1019.81 653.856 1018.71 654.091C1018.07 654.324 1017.4 654.512 1016.71 654.651C1008.94 655.186 1001.15 655.652 993.391 656.212C991.696 656.337 990.089 656.835 988.412 657.073C983.908 657.706 979.282 657.565 974.674 657.615C970.8 657.649 966.947 657.939 963.136 658.31C956.162 658.968 949.091 659.165 941.98 658.9C937.781 658.763 933.611 659.004 929.432 659.093C928.994 659.102 928.536 659.363 928.156 659.256C922.428 657.653 917.124 659.696 911.501 659.27C905.539 658.82 899.591 659.103 893.621 658.887C890.865 658.791 888.077 658.165 885.307 657.973C883.305 657.839 881.314 658.093 879.314 658.067C874.379 658.001 869.445 657.929 864.507 657.755C860.051 657.598 855.594 657.412 851.136 657.069C845.729 656.653 840.364 656.634 834.906 655.905C827.692 654.943 820.402 655.302 813.147 654.781C806.469 654.301 799.779 653.287 793.102 652.764C790.247 652.537 787.427 652.626 784.504 652.283C777.328 651.424 770.123 651.101 762.93 650.517C761.768 650.421 760.594 650.058 759.429 649.933C756.827 649.661 754.221 649.487 751.615 649.235C749.141 648.993 746.657 648.72 744.183 648.435C741.103 648.082 738.025 647.68 734.948 647.356C729.817 646.821 724.686 646.371 719.559 645.816C716.919 645.526 714.278 645.08 711.644 644.684C711.057 644.599 710.45 644.259 709.904 644.299C702.564 644.817 695.34 642.271 688.017 641.791C682.365 641.423 676.693 640.271 671.024 639.505C667.68 639.052 664.32 638.796 660.983 638.266C649.558 636.47 638.132 634.559 626.703 632.784C625.046 632.525 623.255 633.1 621.675 632.675C619.876 632.157 618.042 631.784 616.197 631.561C611.835 631.084 607.494 629.867 603.133 629.06C600.09 628.495 597.018 628.144 593.972 627.627C588.544 626.712 583.078 625.981 577.71 624.738C573.848 623.837 570.157 622.721 566.118 622.822C563.444 622.89 560.597 621.906 557.842 621.289C550.382 619.624 542.937 617.891 535.481 616.248C534.559 616.046 533.275 615.885 532.673 616.276C531.722 616.89 531.28 616.439 530.421 616.095C528.238 615.187 525.988 614.433 523.697 613.843C518.419 612.535 513.122 611.279 507.798 610.189C502.158 609.044 496.481 608.119 490.815 607.096C490.373 607.081 489.931 606.988 489.514 606.824C485.711 604.364 481.356 604.41 477.185 603.779C474.551 603.451 471.958 602.721 469.527 601.622C467.062 600.459 464.1 600.227 461.356 599.591C455.756 598.298 450.147 597.089 444.568 595.694C438.854 594.266 433.192 592.629 427.485 591.167C421.332 589.59 414.923 588.673 409.067 586.402C404.655 584.689 399.953 584.35 395.623 582.042C392.281 580.265 387.952 580.068 384.063 579.175C383.062 578.947 382.025 578.853 381.048 578.552C373.608 576.276 366.239 573.703 358.726 571.774C354.818 570.77 351.224 569.233 347.494 567.907C343.185 566.376 338.759 565.167 334.386 563.821C330.541 562.639 326.67 561.543 322.854 560.26C317.001 558.298 311.249 555.973 305.325 554.265C302.209 553.367 299.216 551.804 296.222 551.243C290.016 550.075 284.651 546.95 278.716 545.254C276.216 544.54 273.935 543.058 271.491 542.079C269.757 541.386 267.88 541.017 266.121 540.369C264.073 539.615 262.087 538.69 260.051 537.882C256.429 536.438 252.801 535.008 249.168 533.591C242.996 531.186 237.355 527.657 230.844 525.908C228.319 525.231 225.999 523.781 223.548 522.751C216.935 519.974 210.297 517.235 203.673 514.47C203.003 514.185 202.35 513.864 201.719 513.51C198.755 511.89 195.871 510.246 192.439 509.414C190.068 508.84 187.864 507.396 185.609 506.313C183.238 505.18 181.097 503.674 178.307 503.298C177.14 503.144 176.052 502.015 174.891 501.397C169.185 498.375 163.7 494.741 157.667 492.556C152.421 490.655 147.99 487.756 143.197 485.335C135.687 481.453 128.38 477.245 121.305 472.729C116.976 470.02 112.658 467.299 108.319 464.601C105.604 462.912 102.735 461.394 100.154 459.552C95.308 456.109 90.4993 452.61 85.9084 448.914C80.6353 444.673 75.6073 440.184 70.4802 435.807C68.7528 434.329 66.9269 432.921 65.2993 431.367C61.0171 427.281 56.459 423.349 52.6698 418.953C49.1432 414.863 46.4652 410.25 43.4208 405.862C43.1056 405.407 42.8281 404.931 42.4739 404.502C39.4133 400.822 37.106 396.745 35.6684 392.476C34.5433 389.133 32.3715 385.981 31.1876 382.638C29.0315 376.541 27.5961 370.368 27.98 364.12C28.0511 362.985 27.7878 361.805 27.7871 360.653C27.7764 358.99 27.4564 357.202 27.9799 355.712C30.1883 349.484 31.8349 343.056 35.1379 337.209C38.5902 331.09 41.9845 324.928 46.4709 319.396C49.4284 315.748 52.8159 312.368 56.1343 308.957C59.881 305.107 63.7091 301.321 67.6185 297.6C69.2889 296.001 71.2325 294.619 73.0468 293.134C77.2752 289.665 81.5195 286.199 85.7349 282.713C89.1368 279.902 92.498 277.045 95.9356 274.265C96.9043 273.571 97.9217 272.929 98.9829 272.341C99.9813 271.703 101.191 271.216 101.927 270.393C105.737 266.121 110.97 263.339 115.918 260.237C119.088 258.25 121.506 255.566 124.851 253.665C132.074 249.562 138.688 244.681 145.989 240.683C154.929 235.794 164.266 231.409 173.536 226.943C177.811 224.888 182.231 223.018 186.733 221.318C194.059 218.557 201.509 216.005 208.896 213.351C210.948 212.61 212.91 211.698 215.016 211.056C223.77 208.405 232.539 205.764 241.363 203.259C245.638 202.04 250.063 201.145 254.409 200.066C260.534 198.545 266.619 196.936 272.758 195.468C276.044 194.683 279.402 194.073 282.749 193.438C293.005 191.502 303.237 189.481 313.55 187.715C318.832 186.813 324.296 186.441 329.654 185.736C337.281 184.729 344.844 183.471 352.519 182.641C359.921 181.83 367.421 181.429 374.87 180.83C384.196 180.085 393.51 179.237 402.858 178.59C410.663 178.056 418.502 177.68 426.346 177.356C437.933 176.873 449.524 176.362 461.147 176.102C473.529 175.825 485.939 175.813 498.342 175.714C501.081 175.691 503.841 175.773 506.585 175.808C506.626 175.575 506.665 175.348 506.698 175.113L506.709 175.137ZM681.709 198.576C681.656 198.749 681.611 198.924 681.558 199.097C684.787 201.01 688.099 202.815 691.203 204.884C692.495 205.801 693.516 206.98 694.159 208.298C694.308 208.769 694.331 209.253 694.227 209.711C694.123 210.169 693.896 210.589 693.561 210.937C693.156 211.217 692.677 211.411 692.158 211.507C691.639 211.602 691.091 211.596 690.551 211.489C689.145 211.155 687.861 210.279 686.505 209.671C677.276 205.53 668.108 200.861 658.16 198.943C646.381 196.675 634.448 195.379 622.566 193.88C612.474 192.607 602.372 191.54 592.269 190.594C580.816 189.528 569.349 188.409 557.921 187.865C545.486 187.277 533.075 187.217 520.671 187.123C510.897 187.044 501.146 187.221 491.395 187.355C486.002 187.429 480.631 187.637 475.249 187.778C466.813 188.002 458.358 188.078 449.957 188.496C440.775 188.954 431.658 189.743 422.512 190.389C416.329 190.829 410.127 191.201 403.96 191.724C397.638 192.267 391.35 192.969 385.043 193.601C380.183 194.09 375.307 194.54 370.456 195.068C365.442 195.613 360.459 196.251 355.449 196.819C347.764 197.697 340.028 198.384 332.402 199.462C325.812 200.398 319.417 202.004 312.816 202.916C299.581 204.847 286.618 207.627 274.029 211.233C265.172 213.695 256.044 215.533 247.452 218.689C241.823 220.76 235.495 221.652 229.827 223.87C225.12 225.706 220.123 227.05 215.365 228.809C208.633 231.3 202.219 234.432 195.263 236.432C189.066 238.214 184.285 241.757 178.604 244.116C176.296 245.034 174.066 246.075 171.924 247.234C166.082 250.52 160.304 253.899 154.535 257.274C149.578 260.18 144.327 262.808 139.834 266.177C135.374 269.512 130.219 272.041 125.913 275.52C122.356 278.393 119.008 281.503 114.649 283.559C114.538 283.611 114.489 283.764 114.396 283.849C112.645 285.392 110.97 287.011 109.12 288.467C105.134 291.622 101.022 294.655 97.0361 297.811C94.2664 300.009 91.6377 302.334 88.9313 304.591C80.7252 311.454 72.7436 318.486 66.893 327.151C66.552 327.655 65.9263 327.998 65.5163 328.471C63.6848 330.596 61.3771 332.512 60.1728 334.926C57.9498 339.389 54.205 343.111 53.0042 348.059C52.7435 348.76 52.4186 349.437 52.0325 350.085C49.582 355.052 48.4137 360.521 48.6037 366.135C48.9577 372.504 51.0613 378.81 53.9004 384.93C55.2055 387.737 56.4652 390.64 58.344 393.192C62.2522 398.497 66.5341 403.621 70.7248 408.78C72.7434 411.266 74.7982 413.739 77.6883 415.592C78.5208 416.189 79.277 416.865 79.9406 417.605C82.3477 419.999 84.5615 422.554 87.1566 424.771C90.4335 427.576 94.0294 430.101 97.4698 432.767C102.923 436.987 108 441.724 113.929 445.279C118.191 447.829 122.488 450.252 126.53 453.128C129.928 455.423 133.452 457.565 137.083 459.543C140.533 461.525 144.071 463.37 147.569 465.284C151.12 467.225 154.96 468.871 158.14 471.217C160.741 473.128 163.59 473.94 166.453 475.006C167.838 475.521 169.491 475.878 170.495 476.766C173.199 479.146 176.576 480.2 179.81 481.614C183.044 483.028 186.622 483.845 189.314 486.279C189.93 486.671 190.612 486.97 191.326 487.161C194.318 488.372 197.324 489.552 200.302 490.789C202.3 491.617 204.261 492.543 206.259 493.378C210.198 495.027 214.363 496.322 218.054 498.355C222.047 500.547 226.252 502.052 230.48 503.607C231.85 504.111 233.244 504.584 234.578 505.18C240.929 508.007 247.078 511.394 253.634 513.606C263.534 516.95 273.067 521.078 282.772 524.833C286.34 526.213 289.99 527.405 293.608 528.669C300.593 531.113 307.392 534.121 314.666 535.712C314.802 535.769 314.934 535.835 315.061 535.908C318.435 537.255 321.746 538.824 325.209 539.906C334.505 542.811 343.872 545.496 353.207 548.295C355.598 549.011 357.932 549.92 360.335 550.581C363.45 551.444 366.647 551.997 369.734 552.953C374.509 554.349 379.218 555.968 383.839 557.802C385.613 558.54 387.2 557.894 389.131 558.885C392.767 560.754 396.716 562.024 400.759 562.626C405.989 563.365 410.952 564.818 415.981 566.273C418.47 566.998 421.392 566.747 423.595 567.839C430.454 571.241 438.013 571.72 445.132 574.004C452.708 576.434 460.581 577.928 468.326 579.79C470.489 580.315 472.708 580.573 474.851 581.15C480.797 582.756 486.607 584.966 492.783 585.554C494.074 585.597 495.37 585.805 496.629 586.171C503.306 588.605 510.364 589.15 517.132 591.033C523.091 592.692 529.429 592.275 535.164 595.118C535.581 595.277 536.018 595.381 536.458 595.424C541.52 596.286 546.601 596.974 551.631 598.028C559.2 599.613 566.713 601.462 574.378 602.511C581.945 603.544 589.503 604.903 597.029 606.413C600.853 607.175 604.76 606.626 608.513 608.166C609.718 608.687 610.998 609.026 612.295 609.169C617.258 609.584 622.206 609.868 627.04 611.612C628.189 611.909 629.364 612.069 630.531 612.086C632.708 612.306 634.896 612.349 637.05 612.721C644.029 613.919 650.999 615.236 657.971 616.511C662.144 615.097 666.17 618.327 670.467 617.801C673.146 617.47 676.233 618.068 679.006 618.804C686.921 620.895 694.879 621.428 702.872 622.07C705.369 622.358 707.858 622.778 710.326 623.326C711.167 623.598 712.021 623.824 712.885 624.003C720.322 624.496 727.782 624.53 735.191 625.474C745.125 626.744 755.038 628.03 764.995 628.633C769.368 628.899 773.746 629.502 778.125 629.984C783.315 630.554 788.509 631.184 793.7 631.712C794.705 631.715 795.7 631.635 796.669 631.473C797.496 631.377 798.339 631.349 799.187 631.389C802.538 631.729 805.888 632.154 809.235 632.515C813.524 632.982 817.815 633.199 822.109 633.603C829.154 634.251 836.206 634.264 843.254 634.656C845.252 634.768 847.274 635.444 849.275 635.543C854.374 635.791 859.463 635.844 864.555 636.005C867.154 636.091 869.762 636.336 872.355 636.371C878.578 636.455 884.772 636.282 891.008 636.548C901.593 636.996 912.162 637.282 922.684 637.07C925.337 637.019 928.108 637.447 930.67 637.109C933.819 636.699 936.843 636.201 940.149 637.031C941.321 637.215 942.5 637.222 943.635 637.053C947.643 636.779 951.632 636.401 955.65 636.165C964.008 635.672 972.435 635.453 980.732 634.695C984.94 634.312 989.284 634.678 993.406 633.344C996.259 632.426 999.929 633.122 1003.22 632.974C1004.32 632.926 1006.11 633.676 1006.15 631.753C1006.63 631.722 1007.12 631.718 1007.6 631.74C1010.63 631.728 1014.06 632.454 1016.6 631.559C1022.14 629.609 1028.7 630.628 1033.88 627.954C1034.19 627.793 1034.73 627.931 1035.16 627.95C1040.1 628.097 1044.94 627.411 1049.4 625.928C1051.49 625.282 1053.64 624.443 1056.29 624.77C1058.2 625.005 1060.2 624.287 1062.1 623.854C1064.01 623.421 1065.79 622.708 1067.71 622.313C1073.23 621.169 1078.83 620.178 1084.34 618.987C1085.79 618.675 1086.97 617.643 1088.42 617.3C1093.61 616.068 1098.87 614.995 1104.09 613.836C1105.33 613.563 1106.95 613.498 1107.62 612.774C1109.26 611.023 1111.74 611.324 1113.85 610.776C1114.78 610.537 1115.9 610.679 1116.78 610.379C1119.27 609.551 1121.56 608.159 1124.17 607.782C1126.9 607.385 1128.74 605.49 1131.58 605.435C1132.14 605.427 1132.57 604.674 1133.1 604.308C1133.66 603.834 1134.3 603.44 1135.01 603.139C1141.66 600.962 1148.1 598.378 1154.26 595.404C1156.45 594.366 1158.83 593.627 1161.12 592.736C1161.74 592.505 1162.32 592.217 1162.86 591.877C1164.85 590.564 1166.74 589.117 1168.81 587.909C1170.99 586.635 1173.42 585.663 1175.59 584.379C1176.78 583.673 1177.45 582.132 1178.72 581.789C1181.7 580.987 1183.89 579.435 1186.01 577.638C1187.89 576.06 1189.79 574.268 1192.17 573.44C1194.93 572.477 1196.33 570.606 1197.57 568.682C1198.91 566.623 1200.91 565.311 1202.88 563.892C1203.77 563.33 1204.62 562.725 1205.43 562.078C1207.73 559.981 1209.67 557.496 1212.3 555.765C1215.07 553.938 1215.74 550.772 1218.49 549.042C1219.5 548.424 1220.37 547.655 1221.06 546.766C1222.57 544.75 1223.93 542.633 1225.31 540.541C1227.33 537.488 1229.38 534.456 1231.32 531.355C1232.43 529.571 1233.04 527.449 1234.44 525.892C1236.65 523.43 1237.53 520.366 1238.39 517.505C1239.34 514.371 1241.26 511.76 1242.31 508.743C1243.16 506.308 1244.41 503.972 1244.85 501.452C1245.25 499.188 1245.54 496.91 1246.18 494.697C1246.42 493.998 1246.53 493.261 1246.52 492.511C1246.29 488.584 1245.67 484.618 1245.84 480.745C1245.93 478.585 1245.71 476.721 1244.42 474.798C1244.17 474.318 1244.02 473.813 1243.96 473.304C1243.31 470.429 1243.14 467.433 1241.95 464.703C1238.43 456.636 1234.39 448.702 1228.93 441.323C1227.62 439.561 1227.73 436.754 1224.36 436.28C1224.15 436.25 1223.79 435.598 1223.81 435.282C1223.91 434.09 1222.54 433.527 1222.19 432.799C1220.56 429.399 1217.86 426.767 1215.18 423.993C1213.04 421.786 1211.64 419.057 1209.58 416.782C1207.17 414.116 1203.6 412.25 1202.14 408.882C1201.74 408.307 1201.16 407.838 1200.48 407.541C1196.99 405.629 1194.93 402.533 1192.15 400.034C1190.03 398.124 1188.26 395.894 1186.1 394.024C1181.9 390.386 1177.51 386.912 1173.24 383.336C1170.39 380.948 1167.76 378.322 1164.76 376.105C1158.23 371.297 1151.52 366.699 1144.92 361.966C1143.02 360.603 1141.47 358.497 1139.39 357.749C1133.98 355.814 1131.15 350.414 1125.21 349.36C1124.86 349.297 1124.59 348.788 1124.25 348.525C1122.64 347.319 1121.1 346.023 1119.39 344.951C1116.41 343.084 1113.34 341.338 1110.28 339.587C1103.2 335.544 1095.96 331.714 1089.05 327.427C1085.12 324.993 1080.72 323.49 1076.86 320.773C1072.51 317.716 1067.19 315.761 1062.27 313.386C1060.95 312.752 1059.41 312.486 1058.15 311.793C1052.62 308.773 1047.41 305.311 1041.34 303.155C1037.1 301.648 1033 299.758 1028.89 297.918C1025.8 296.532 1022.83 294.91 1019.75 293.478C1015.22 291.371 1010.79 288.594 1006.05 287.508C1001.42 286.444 998.014 283.5 993.513 282.366C989.483 281.346 985.806 278.888 981.845 277.377C975.959 275.134 970.008 273.077 964.282 270.429C961.744 269.256 958.806 268.787 956.38 267.476C953.34 265.774 950 264.585 946.555 263.979C944.603 263.648 941.817 263.653 940.238 261.467C939.887 260.981 938.641 260.965 937.827 260.689C936.044 260.071 934.266 259.433 932.489 258.787C930.962 258.231 929.468 257.554 927.917 257.114C925.121 256.329 922.26 255.771 919.471 254.952C917.371 254.329 915.371 253.35 913.271 252.684C908.962 251.317 904.623 250.051 900.299 248.752C894.981 247.156 889.685 245.457 884.32 243.999C879.774 242.761 875.117 241.969 870.577 240.704C856.23 236.726 841.889 232.763 827.412 229.325C820.237 227.622 813.066 225.903 805.897 224.168C800.909 222.959 795.948 221.578 790.943 220.45C785.625 219.247 780.266 218.327 774.95 217.118C772.54 216.569 770.249 215.377 767.84 214.908C762.651 213.893 757.399 213.3 752.211 212.279C742.676 210.39 733.178 208.288 723.657 206.331C718.021 205.173 712.373 204.104 706.723 203.05C700.057 201.799 693.39 200.591 686.724 199.383C685.068 199.082 683.402 198.864 681.737 198.604L681.709 198.576Z" fill="#BDFFDF"/>
</g>
</svg>
