<svg width="134" height="52" viewBox="0 0 134 52" fill="none" xmlns="http://www.w3.org/2000/svg">
<path d="M69.3327 25.2532C69.9169 25.2532 70.4422 25.1592 70.9087 24.9712C71.3752 24.7832 71.7724 24.5213 72.1002 24.1855C72.428 23.8496 72.6791 23.4504 72.8535 22.9878C73.0279 22.5252 73.1151 22.0214 73.1151 21.4765V15.9888H71.4194V21.4765C71.4194 21.8271 71.3721 22.144 71.2775 22.427C71.183 22.71 71.0464 22.9508 70.8678 23.1494C70.6891 23.3479 70.4706 23.5021 70.2121 23.612C69.9537 23.7218 69.6605 23.7767 69.3327 23.7767C69.0049 23.7767 68.7118 23.7218 68.4533 23.612C68.1949 23.5021 67.9774 23.3469 67.8009 23.1462C67.6243 22.9456 67.4888 22.7037 67.3943 22.4207C67.2997 22.1376 67.2524 21.8208 67.2524 21.4701V15.9888H65.5566V21.4765C65.5566 22.0214 65.6438 22.5252 65.8183 22.9878C65.9927 23.4504 66.2427 23.8496 66.5684 24.1855C66.8941 24.5213 67.2902 24.7832 67.7567 24.9712C68.2232 25.1592 68.7486 25.2532 69.3327 25.2532ZM76.8408 25.1518V19.5247C76.8408 19.4149 76.8376 19.2934 76.8313 19.1604C76.825 19.0273 76.8156 18.8932 76.803 18.758L81.5688 24.8603C81.6528 24.9702 81.739 25.0462 81.8272 25.0885C81.9155 25.1307 82.0269 25.1518 82.1614 25.1518H83.0376V15.9888H81.5436V21.5588C81.5436 21.6814 81.5467 21.8134 81.553 21.9549C81.5593 22.0964 81.5709 22.2411 81.5877 22.389L76.803 16.2613C76.7567 16.2021 76.7147 16.1546 76.6769 16.1187C76.6391 16.0828 76.6002 16.0553 76.5603 16.0363C76.5203 16.0173 76.4752 16.0046 76.4247 15.9983C76.3743 15.9919 76.3113 15.9888 76.2356 15.9888H75.3467V25.1518H76.8408ZM87.2928 25.1518V15.9888H85.5907V25.1518H87.2928ZM93.5275 25.1518V17.3892H96.2697V15.9888H89.0768V17.3892H91.8317V25.1518H93.5275ZM103.601 25.1518V23.7894H99.5604V21.1976H102.744V19.8859H99.5604V17.3449H103.601V15.9888H97.852V25.1518H103.601ZM109.054 25.1518C109.743 25.1518 110.372 25.0399 110.939 24.816C111.506 24.5921 111.992 24.2774 112.395 23.8718C112.799 23.4662 113.112 22.9825 113.335 22.4207C113.557 21.8588 113.669 21.242 113.669 20.5703C113.669 19.8986 113.557 19.2818 113.335 18.7199C113.112 18.1581 112.799 17.6754 112.395 17.272C111.992 16.8685 111.506 16.5538 110.939 16.3278C110.372 16.1018 109.743 15.9888 109.054 15.9888H105.574V25.1518H109.054ZM109.054 23.7958H107.283V17.3449H109.054C109.5 17.3449 109.9 17.4188 110.255 17.5666C110.61 17.7145 110.912 17.9268 111.16 18.2035C111.408 18.4802 111.599 18.8182 111.733 19.2174C111.868 19.6166 111.935 20.0676 111.935 20.5703C111.935 21.073 111.868 21.524 111.733 21.9232C111.599 22.3224 111.408 22.6604 111.16 22.9371C110.912 23.2138 110.61 23.4261 110.255 23.574C109.9 23.7218 109.5 23.7958 109.054 23.7958ZM67.1579 39.6715V34.0444C67.1579 33.9346 67.1547 33.8131 67.1484 33.6801C67.1421 33.547 67.1326 33.4129 67.12 33.2777L71.8859 39.38C71.9699 39.4899 72.0561 39.5659 72.1443 39.6082C72.2326 39.6504 72.3439 39.6715 72.4784 39.6715H73.3547V30.5085H71.8606V36.0785C71.8606 36.2011 71.8638 36.3331 71.8701 36.4746C71.8764 36.6161 71.8879 36.7608 71.9048 36.9087L67.12 30.781C67.0738 30.7218 67.0318 30.6743 66.994 30.6384C66.9561 30.6025 66.9173 30.575 66.8773 30.556C66.8374 30.537 66.7922 30.5243 66.7418 30.518C66.6914 30.5116 66.6283 30.5085 66.5527 30.5085H65.6638V39.6715H67.1579ZM76.1347 39.6715C76.2776 39.6715 76.3985 39.6314 76.4972 39.5511C76.596 39.4709 76.6622 39.3822 76.6958 39.285L77.3766 37.4156H81.1527L81.8336 39.285C81.8756 39.3948 81.9439 39.4867 82.0384 39.5606C82.133 39.6346 82.2538 39.6715 82.4009 39.6715H83.7121L80.1315 30.5085H78.3979L74.8172 39.6715H76.1347ZM80.7177 36.2116H77.8116L78.9211 33.1763C78.9757 33.0369 79.0314 32.8742 79.0882 32.6883C79.1449 32.5025 79.2027 32.3018 79.2615 32.0863C79.3204 32.3018 79.3802 32.5014 79.4412 32.6852C79.5021 32.8689 79.5578 33.0284 79.6082 33.1636L80.7177 36.2116ZM87.9106 39.6715V31.9089H90.6528V30.5085H83.46V31.9089H86.2148V39.6715H87.9106ZM94.1453 39.6715V30.5085H92.4432V39.6715H94.1453ZM100.827 39.7729C101.517 39.7729 102.145 39.6557 102.712 39.4212C103.28 39.1868 103.765 38.8604 104.169 38.4422C104.572 38.024 104.885 37.5286 105.108 36.9562C105.331 36.3838 105.442 35.7617 105.442 35.09C105.442 34.4183 105.331 33.7962 105.108 33.2238C104.885 32.6514 104.572 32.1571 104.169 31.741C103.765 31.3249 103.28 30.9985 102.712 30.7619C102.145 30.5254 101.517 30.4071 100.827 30.4071C100.138 30.4071 99.5089 30.5243 98.9394 30.7588C98.37 30.9932 97.8825 31.3196 97.4769 31.7378C97.0713 32.156 96.7572 32.6514 96.5345 33.2238C96.3117 33.7962 96.2003 34.4183 96.2003 35.09C96.2003 35.7617 96.3117 36.3838 96.5345 36.9562C96.7572 37.5286 97.0713 38.024 97.4769 38.4422C97.8825 38.8604 98.37 39.1868 98.9394 39.4212C99.5089 39.6557 100.138 39.7729 100.827 39.7729ZM100.827 38.3155C100.382 38.3155 99.9806 38.2415 99.6234 38.0937C99.2662 37.9458 98.9626 37.7335 98.7125 37.4568C98.4624 37.1801 98.2702 36.8421 98.1357 36.4429C98.0012 36.0437 97.9339 35.5927 97.9339 35.09C97.9339 34.5873 98.0012 34.1363 98.1357 33.7371C98.2702 33.3379 98.4624 32.9988 98.7125 32.72C98.9626 32.4412 99.2662 32.2279 99.6234 32.08C99.9806 31.9321 100.382 31.8582 100.827 31.8582C101.273 31.8582 101.673 31.9321 102.028 32.08C102.384 32.2279 102.685 32.4412 102.933 32.72C103.181 32.9988 103.371 33.3379 103.504 33.7371C103.636 34.1363 103.702 34.5873 103.702 35.09C103.702 35.5927 103.636 36.0437 103.504 36.4429C103.371 36.8421 103.181 37.1801 102.933 37.4568C102.685 37.7335 102.384 37.9458 102.028 38.0937C101.673 38.2415 101.273 38.3155 100.827 38.3155ZM108.777 39.6715V34.0444C108.777 33.9346 108.774 33.8131 108.767 33.6801C108.761 33.547 108.752 33.4129 108.739 33.2777L113.505 39.38C113.589 39.4899 113.675 39.5659 113.763 39.6082C113.852 39.6504 113.963 39.6715 114.097 39.6715H114.974V30.5085H113.48V36.0785C113.48 36.2011 113.483 36.3331 113.489 36.4746C113.495 36.6161 113.507 36.7608 113.524 36.9087L108.739 30.781C108.693 30.7218 108.651 30.6743 108.613 30.6384C108.575 30.6025 108.536 30.575 108.496 30.556C108.456 30.537 108.411 30.5243 108.361 30.518C108.31 30.5116 108.247 30.5085 108.172 30.5085H107.283V39.6715H108.777ZM119.62 39.7729C120.124 39.7729 120.572 39.6958 120.962 39.5416C121.353 39.3874 121.684 39.1762 121.955 38.9079C122.226 38.6397 122.432 38.325 122.573 37.9638C122.714 37.6026 122.784 37.215 122.784 36.8009C122.784 36.4207 122.724 36.0976 122.605 35.8314C122.485 35.5653 122.326 35.3403 122.129 35.1565C121.931 34.9728 121.706 34.8207 121.454 34.7003C121.202 34.5799 120.945 34.4743 120.682 34.3834C120.419 34.2926 120.162 34.2071 119.91 34.1268C119.658 34.0465 119.433 33.9557 119.235 33.8543C119.038 33.7529 118.879 33.6304 118.759 33.4868C118.639 33.3431 118.58 33.1636 118.58 32.9481C118.58 32.7792 118.609 32.6239 118.668 32.4824C118.727 32.3409 118.816 32.2194 118.936 32.118C119.055 32.0166 119.203 31.9374 119.377 31.8804C119.551 31.8234 119.756 31.7948 119.992 31.7948C120.252 31.7948 120.478 31.8276 120.669 31.8931C120.861 31.9585 121.028 32.0314 121.17 32.1117C121.313 32.192 121.437 32.2648 121.542 32.3303C121.647 32.3958 121.742 32.4285 121.826 32.4285C121.91 32.4285 121.983 32.4095 122.044 32.3715C122.105 32.3335 122.158 32.268 122.204 32.1751L122.62 31.3703C122.301 31.0661 121.914 30.8295 121.46 30.6606C121.007 30.4916 120.511 30.4071 119.973 30.4071C119.498 30.4071 119.075 30.481 118.706 30.6289C118.336 30.7767 118.024 30.9732 117.769 31.2182C117.515 31.4632 117.322 31.7441 117.189 32.061C117.057 32.3778 116.991 32.7031 116.991 33.0369C116.991 33.4551 117.051 33.8068 117.171 34.0919C117.29 34.3771 117.449 34.6147 117.647 34.8048C117.844 34.9949 118.069 35.1491 118.321 35.2674C118.573 35.3857 118.83 35.4871 119.09 35.5716C119.351 35.6561 119.607 35.7342 119.859 35.8061C120.111 35.8779 120.336 35.9655 120.534 36.069C120.731 36.1725 120.89 36.3003 121.01 36.4524C121.129 36.6045 121.189 36.8009 121.189 37.0417C121.189 37.4727 121.057 37.8032 120.792 38.0335C120.527 38.2637 120.153 38.3788 119.67 38.3788C119.355 38.3788 119.085 38.3355 118.86 38.2489C118.635 38.1623 118.44 38.0662 118.274 37.9606C118.108 37.855 117.964 37.7589 117.842 37.6723C117.72 37.5857 117.607 37.5424 117.502 37.5424C117.422 37.5424 117.349 37.5624 117.284 37.6026C117.219 37.6427 117.163 37.6923 117.117 37.7515L116.625 38.5689C116.802 38.7506 117.002 38.9153 117.227 39.0632C117.452 39.2111 117.694 39.3378 117.952 39.4434C118.211 39.549 118.481 39.6303 118.762 39.6874C119.044 39.7444 119.33 39.7729 119.62 39.7729Z" fill="#0C1318"/>
<path d="M41.0246 44.204C40.7768 44.4887 40.4561 44.7547 40.1538 45C38.2006 42.9709 35.9075 40.722 33.7278 40.722C32.3765 40.722 31.4032 41.7561 30.2677 42.4857C28.6919 43.4981 26.5304 44.0683 24.6781 43.3252C23.6818 42.945 22.7165 42.3849 21.9952 41.475C23.4531 42.4857 25.6363 42.6215 27.2821 41.9352C29.1014 41.1765 30.953 40.1691 33.0262 40.1691C36.0824 40.1691 38.987 42.2472 41.0246 44.204ZM18.4366 37.8222C20.4601 40.1375 23.7603 39.3926 26.4615 39.9709C26.8374 40.0514 27.1907 40.1769 27.5942 40.1146C27.2731 39.9099 26.8474 39.8868 26.4764 39.7463C24.3806 38.9527 24.0538 36.6979 22.9068 35.1461C24.3718 36.1251 25.5856 37.4655 26.9555 38.7251C27.909 39.6017 29.0969 39.9768 30.3289 40.2288C30.0329 40.3376 29.6456 40.3119 29.3268 40.3914C27.1138 40.9433 24.6602 41.8143 22.3055 41.0332C20.7859 40.5291 19.2045 39.3353 18.4366 37.8222ZM15.1932 32.4634C16.4553 35.3359 19.6264 35.5608 21.7348 37.323C22.1358 37.6581 22.5332 37.9664 22.9736 38.1729L22.9963 38.1498C22.5098 37.7073 21.9833 37.1799 21.6064 36.6295C20.4013 34.8694 20.8023 32.4635 19.8732 30.5974C20.7173 31.6135 21.5092 32.6598 21.9953 33.8231C22.7775 35.6953 23.0432 37.831 24.7976 39.2536C22.8988 38.6239 20.7084 38.7492 18.9985 37.6235C17.2012 36.4401 15.5355 34.5723 15.1932 32.4634ZM13.8411 26.6519C14.0236 29.1827 16.704 30.5346 17.9821 32.6149C18.2551 33.0592 18.536 33.5179 18.9324 33.8767C18.8706 33.6072 18.65 33.3685 18.5286 33.1041C18.1187 32.2115 17.9331 31.1786 18.0355 30.1164C18.1599 28.824 18.6959 27.624 18.4902 26.2645C19.5918 28.6547 19.2365 31.6428 19.8732 34.2273C20.014 34.799 20.3604 35.2993 20.5738 35.8408C19.4914 35.0131 18.073 34.2784 16.8849 33.3371C15.7359 32.4267 14.7386 31.3597 14.2202 29.9712C13.8466 28.9708 13.7495 27.7774 13.8411 26.6519ZM13.916 21.989C14.0453 21.4242 14.1442 20.8396 14.3887 20.3214C13.9258 22.7087 15.5058 24.4333 16.0453 26.4987C16.2485 27.2771 16.3181 28.1041 16.6312 28.8304C16.6604 28.8461 16.6857 28.8156 16.7038 28.7921C15.9243 26.5939 17.067 24.5625 18.1801 22.8298C18.4727 22.3744 18.6136 21.844 18.7502 21.3079C18.8706 22.303 18.6599 23.4549 18.4767 24.4817C18.241 25.8037 17.7915 27.0427 17.4342 28.3182C17.199 29.115 17.261 30.0142 17.3817 30.8491L17.2683 30.7581C16.4395 29.2201 14.8043 28.0186 14.3105 26.34C13.9158 24.9985 13.6428 23.4486 13.916 21.989ZM14.7902 19.4209C14.7902 17.6143 15.49 16.1406 16.5396 14.7951C16.5701 14.7799 16.5918 14.7492 16.6311 14.7564C15.4755 16.5233 16.5273 18.7537 16.3788 20.7579L16.2264 22.8148C16.249 22.8298 16.249 22.8915 16.3027 22.8679C16.371 22.6386 16.3917 22.3946 16.4314 22.1578C16.7096 20.4996 18.1582 19.3454 19.3867 18.1746C19.6773 17.8977 19.8901 17.5703 20.0271 17.2184C19.9249 18.0444 19.6957 18.8911 19.3268 19.6418C18.3812 21.5661 16.5549 23.1195 16.2264 25.3064C16.0671 23.2105 14.7902 21.6524 14.7902 19.4209ZM17.8362 13.3267C18.4173 12.6791 19.0685 12.1746 19.8438 11.9751C18.3383 13.0157 18.42 14.8756 17.9591 16.4307C17.7905 16.9993 17.5428 17.532 17.4111 18.1196L17.4492 18.1503C17.6997 17.4859 18.1295 16.8473 18.6894 16.3162C19.7484 15.3119 21.3404 14.704 21.8644 13.235C21.8405 15.2764 20.1093 16.8283 18.5282 18.0288C17.8191 18.5673 17.2164 19.2903 16.8487 20.0481C16.9101 19.4841 16.938 19.0148 16.8879 18.4643C16.7256 16.6809 16.6204 14.6817 17.8362 13.3267ZM23.9471 9.89453C22.8297 10.8801 22.0841 12.1486 21.2258 13.289C20.5118 14.2375 19.5323 14.8252 18.6898 15.6211C19.1445 14.6726 19.2285 13.5859 19.806 12.6684C20.7936 11.0995 22.4257 10.4905 23.9471 9.89453Z" fill="#0C1318"/>
<path d="M29.4756 44.204C29.7234 44.4887 30.0441 44.7547 30.3464 45C32.2996 42.9709 34.5927 40.722 36.7724 40.722C38.1237 40.722 39.097 41.7561 40.2325 42.4857C41.8083 43.4981 43.9698 44.0683 45.8221 43.3252C46.8184 42.945 47.7837 42.3849 48.505 41.475C47.0471 42.4857 44.8639 42.6215 43.2181 41.9352C41.3988 41.1765 39.5472 40.1691 37.474 40.1691C34.4178 40.1691 31.5132 42.2472 29.4756 44.204ZM52.0636 37.8222C50.0401 40.1375 46.7399 39.3926 44.0387 39.9709C43.6628 40.0514 43.3095 40.1769 42.906 40.1146C43.2271 39.9099 43.6528 39.8868 44.0237 39.7463C46.1196 38.9527 46.4464 36.6979 47.5933 35.1461C46.1284 36.1251 44.9146 37.4655 43.5447 38.7251C42.5912 39.6017 41.4033 39.9768 40.1713 40.2288C40.4673 40.3376 40.8546 40.3119 41.1734 40.3914C43.3864 40.9433 45.8399 41.8143 48.1947 41.0332C49.7143 40.5291 51.2957 39.3353 52.0636 37.8222ZM55.307 32.4634C54.0449 35.3359 50.8738 35.5608 48.7654 37.323C48.3644 37.6581 47.967 37.9664 47.5266 38.1729L47.5039 38.1498C47.9904 37.7073 48.5169 37.1799 48.8938 36.6295C50.0989 34.8694 49.6979 32.4635 50.627 30.5974C49.7829 31.6135 48.991 32.6598 48.5049 33.8231C47.7227 35.6953 47.457 37.831 45.7025 39.2536C47.6014 38.6239 49.7918 38.7492 51.5017 37.6235C53.299 36.4401 54.9647 34.5723 55.307 32.4634ZM56.6591 26.6519C56.4766 29.1827 53.7962 30.5346 52.5181 32.6149C52.2451 33.0592 51.9642 33.5179 51.5678 33.8767C51.6296 33.6072 51.8502 33.3685 51.9716 33.1041C52.3815 32.2115 52.567 31.1786 52.4647 30.1164C52.3402 28.824 51.8043 27.624 52.01 26.2645C50.9084 28.6547 51.2637 31.6428 50.627 34.2273C50.4862 34.799 50.1398 35.2993 49.9264 35.8408C51.0088 35.0131 52.4272 34.2784 53.6153 33.3371C54.7643 32.4267 55.7616 31.3597 56.28 29.9712C56.6536 28.9708 56.7507 27.7774 56.6591 26.6519ZM56.5842 21.989C56.4549 21.4242 56.356 20.8396 56.1115 20.3214C56.5744 22.7087 54.9944 24.4333 54.4549 26.4987C54.2517 27.2771 54.1821 28.1041 53.869 28.8304C53.8398 28.8461 53.8145 28.8156 53.7964 28.7921C54.5759 26.5939 53.4332 24.5625 52.3201 22.8298C52.0275 22.3744 51.8866 21.844 51.75 21.3079C51.6296 22.303 51.8403 23.4549 52.0234 24.4817C52.2592 25.8037 52.7087 27.0427 53.066 28.3182C53.3012 29.115 53.2392 30.0142 53.1185 30.8491L53.2319 30.7581C54.0607 29.2201 55.6959 28.0186 56.1897 26.34C56.5844 24.9985 56.8574 23.4486 56.5842 21.989ZM55.71 19.4209C55.71 17.6143 55.0102 16.1406 53.9606 14.7951C53.9301 14.7799 53.9084 14.7492 53.8691 14.7564C55.0247 16.5233 53.9729 18.7537 54.1214 20.7579L54.2738 22.8148C54.2512 22.8298 54.2512 22.8915 54.1975 22.8679C54.1292 22.6386 54.1085 22.3946 54.0688 22.1578C53.7906 20.4996 52.342 19.3454 51.1135 18.1746C50.8229 17.8977 50.6101 17.5703 50.4731 17.2184C50.5753 18.0444 50.8045 18.8911 51.1734 19.6418C52.119 21.5661 53.9453 23.1195 54.2738 25.3064C54.4331 23.2105 55.71 21.6524 55.71 19.4209ZM52.664 13.3267C52.0829 12.6791 51.4317 12.1746 50.6563 11.9751C52.1619 13.0157 52.0802 14.8756 52.5411 16.4307C52.7097 16.9993 52.9574 17.532 53.0891 18.1196L53.051 18.1503C52.8005 17.4859 52.3707 16.8473 51.8108 16.3162C50.7518 15.3119 49.1597 14.704 48.6358 13.235C48.6597 15.2764 50.3908 16.8283 51.972 18.0288C52.6811 18.5673 53.2838 19.2903 53.6515 20.0481C53.5901 19.4841 53.5622 19.0148 53.6123 18.4643C53.7746 16.6809 53.8798 14.6817 52.664 13.3267ZM46.5531 9.89453C47.6705 10.8801 48.4161 12.1486 49.2744 13.289C49.9884 14.2375 50.9679 14.8252 51.8104 15.6211C51.3556 14.6726 51.2717 13.5859 50.6942 12.6684C49.7066 11.0995 48.0744 10.4905 46.5531 9.89453Z" fill="#0C1318"/>
<path d="M48.8971 30.3007L48.5671 30.1197C47.8673 31.5702 46.9408 32.8902 45.8325 34.0319L43.9044 32.0938C44.849 31.1154 45.6106 30.0048 46.1717 28.8045L45.8432 28.624C45.2885 29.8142 44.5423 30.8971 43.6423 31.8302L41.8958 30.0745C42.6455 29.291 43.2405 28.397 43.6699 27.4308L43.344 27.2521C42.9234 28.2042 42.3433 29.0701 41.6344 29.8123L39.7042 27.8721C40.241 27.3003 40.6554 26.6424 40.9375 25.9305L40.6114 25.7517C40.3419 26.4459 39.9436 27.0761 39.4445 27.6107L37.6926 25.85C38.1917 25.2901 38.4811 24.5877 38.5221 23.8373H41.0018C40.9807 24.5108 40.8435 25.1551 40.6115 25.7518L40.9375 25.9305C41.1985 25.2709 41.3458 24.5654 41.3669 23.8373H44.1005C44.0759 25.0504 43.8068 26.204 43.3439 27.2522L43.6698 27.4309C44.1669 26.3119 44.4416 25.0959 44.4659 23.8371H46.9409C46.9149 25.5455 46.5228 27.1655 45.843 28.624L46.1715 28.8045C46.8902 27.2673 47.2808 25.5823 47.3065 23.8371H50.0399C50.0126 26.0859 49.4856 28.2152 48.5669 30.1197L48.8971 30.3006C49.8854 28.2545 50.41 25.9949 50.41 23.6535C50.41 21.6623 50.0305 19.7305 49.3094 17.9384L48.9707 18.0848C49.6498 19.7759 50.0179 21.5945 50.0406 23.4698H47.3068C47.2847 21.9738 46.9922 20.5231 46.4572 19.1707L46.121 19.3156C46.6371 20.6229 46.9196 22.0244 46.9414 23.4698H44.4661C44.445 22.3681 44.2312 21.2991 43.8454 20.2989L43.5092 20.4441C43.8761 21.3986 44.0796 22.4187 44.101 23.4698H41.3671C41.3478 22.7981 41.2212 22.1449 40.9967 21.5295L40.6606 21.6745C40.8668 22.2444 40.9827 22.8484 41.002 23.4698H38.5223C38.4813 22.7192 38.1919 22.0169 37.6928 21.4571L39.4465 19.6946C39.988 20.2735 40.3976 20.9458 40.6607 21.6746L40.9968 21.5296C40.7153 20.7588 40.2795 20.0476 39.7045 19.435L41.6375 17.492C42.4624 18.3551 43.092 19.3571 43.5093 20.4441L43.8455 20.2989C43.4098 19.1698 42.754 18.1288 41.8959 17.2324L43.6462 15.4727C44.7301 16.5964 45.5629 17.9004 46.121 19.3157L46.4572 19.1708C45.8806 17.7133 45.0217 16.3703 43.9045 15.2134L45.8373 13.2702C47.2042 14.6778 48.2586 16.3112 48.9706 18.0849L49.3093 17.9385C48.557 16.067 47.4322 14.348 45.9695 12.8777C44.5014 11.4018 42.7838 10.2686 40.9138 9.51222L40.7792 9.85688C42.5475 10.5729 44.176 11.634 45.5789 13.0106L43.6461 14.9537C42.5146 13.8515 41.2037 12.997 39.7806 12.4182L39.6472 12.7599C41.0233 13.3211 42.2918 14.1475 43.3879 15.2163L41.6377 16.9756C40.7869 16.1529 39.8058 15.5139 38.7423 15.0766L38.6087 15.4183C39.6263 15.8374 40.5648 16.4489 41.3795 17.2354L39.4467 19.1782C38.903 18.6631 38.2814 18.2588 37.6096 17.9769L37.476 18.3188C38.102 18.5825 38.6809 18.9588 39.1884 19.438L37.435 21.2005C36.8777 20.6988 36.1792 20.4079 35.4324 20.367V17.8744C36.1451 17.8965 36.835 18.0486 37.476 18.3189L37.6096 17.9769C36.9267 17.6901 36.1913 17.5295 35.4324 17.507V14.7591C36.5393 14.7815 37.6117 15.0076 38.6088 15.4183L38.7424 15.0766C37.7034 14.6493 36.5855 14.4145 35.4324 14.3921V11.9028C36.9002 11.9253 38.3234 12.2196 39.6471 12.759L39.7805 12.4173C38.4147 11.8611 36.9469 11.5582 35.4323 11.5357V8.78749C37.2942 8.81013 39.1001 9.17901 40.7794 9.85868L40.914 9.51402C39.1373 8.79494 37.2227 8.41602 35.2499 8.41602C32.8125 8.41602 30.5096 9.00058 28.4674 10.0321L28.634 10.3526C30.6101 9.35728 32.7965 8.81503 35.0673 8.78747V11.5357C33.2154 11.5634 31.4655 12.0151 29.9049 12.7941L30.071 13.1137C31.6084 12.3486 33.3056 11.9295 35.0672 11.9025V14.3909C33.6902 14.4181 32.3872 14.751 31.221 15.3232L31.3881 15.6442C32.5233 15.0903 33.7717 14.7841 35.0673 14.7579V17.5061C34.2082 17.5316 33.3933 17.7362 32.6576 18.0832L32.8254 18.4055C33.5214 18.0803 34.2808 17.8975 35.0673 17.8731V20.366C34.6826 20.3875 34.3157 20.4757 33.9776 20.6191L34.1452 20.9413C34.491 20.7989 34.8647 20.7239 35.2499 20.7239C36.0288 20.7239 36.761 21.0288 37.3118 21.5824C37.8626 22.136 38.1659 22.8723 38.1659 23.6553C38.1659 25.2715 36.858 26.5868 35.2499 26.5868C34.4708 26.5868 33.7385 26.2818 33.1877 25.7282C32.6369 25.1743 32.3336 24.4383 32.3336 23.6552C32.3336 22.8722 32.6369 22.1359 33.1877 21.5823C33.4663 21.3024 33.7913 21.0868 34.1451 20.9412L33.9775 20.6191C33.6414 20.7617 33.3339 20.9589 33.0658 21.2002L31.3114 19.4367C31.7647 19.0086 32.2751 18.6624 32.8253 18.4054L32.6574 18.0831C32.0657 18.3623 31.5252 18.7333 31.0549 19.179L29.1201 17.2341C29.7986 16.5789 30.5638 16.0466 31.388 15.6441L31.2209 15.323C30.3505 15.75 29.556 16.3095 28.8649 16.9774L27.1116 15.215C27.9965 14.3519 28.9952 13.6487 30.0708 13.1136L29.9048 12.794C28.7789 13.3561 27.7506 14.0878 26.857 14.9594L24.9202 13.0124C26.0306 11.9228 27.2834 11.033 28.6338 10.3526L28.4672 10.0321C25.5154 11.5232 23.1123 13.9532 21.649 16.9321L21.9666 17.1044C22.649 15.7092 23.5516 14.4156 24.662 13.2719L26.599 15.219C25.6979 16.1521 24.9451 17.2301 24.3782 18.4144L24.6946 18.5862C25.2346 17.4522 25.9587 16.4019 26.8531 15.4747L28.6066 17.2371C27.8998 17.9761 27.3151 18.833 26.8816 19.7741L27.1987 19.9461C27.607 19.0515 28.1649 18.2229 28.8619 17.4937L30.7967 19.4387C30.3021 19.9661 29.8993 20.5811 29.6134 21.2579L29.9331 21.4317C30.1958 20.7969 30.5725 20.2099 31.0529 19.6962L32.8073 21.4596C32.3256 22.0008 32.0198 22.7004 31.9774 23.4714H29.4971C29.5191 22.7605 29.6682 22.0718 29.933 21.4316L29.6133 21.2578C29.3245 21.9414 29.1551 22.6882 29.1319 23.4713H26.3984C26.423 22.2347 26.6989 21.0406 27.1986 19.946L26.8815 19.774C26.3614 20.9028 26.0591 22.1534 26.0336 23.4714H23.5578C23.5837 21.7529 23.9759 20.0951 24.6946 18.586L24.3782 18.4142C23.6428 19.9493 23.2199 21.6627 23.1931 23.4714H20.459C20.4858 21.2271 21.0076 19.0644 21.9664 17.1043L21.6488 16.932C20.6521 18.9614 20.0894 21.2429 20.0894 23.6551C20.0894 25.1305 20.299 26.5726 20.6994 27.9502L21.0575 27.8596C20.681 26.5687 20.4755 25.2193 20.459 23.8388H23.1926C23.2095 24.9899 23.3859 26.1146 23.7098 27.1884L24.0642 27.0986C23.7472 26.0539 23.5749 24.9591 23.5577 23.8388H26.033C26.0509 24.7513 26.2006 25.6418 26.4702 26.4892L26.8253 26.3991C26.5624 25.5811 26.4162 24.7206 26.3984 23.8388H29.132C29.1511 24.4914 29.2711 25.1265 29.4838 25.7263L29.839 25.6361C29.633 25.0657 29.5164 24.4607 29.4971 23.8389H31.9771C32.0181 24.5893 32.3073 25.2917 32.8064 25.8515L31.0529 27.6142C30.5119 27.0355 30.1024 26.3641 29.839 25.6361L29.4837 25.7263C29.7643 26.5173 30.2066 27.2472 30.7946 27.8737L28.8618 29.8167C27.9217 28.8328 27.2335 27.6667 26.826 26.3999L26.471 26.4899C26.8942 27.8202 27.6157 29.044 28.6044 30.0769L26.8538 31.8366C25.5448 30.4797 24.5993 28.861 24.0651 27.0991L23.7106 27.1889C24.2611 29.0141 25.2392 30.6915 26.5955 32.0961L24.6626 34.0392C22.9519 32.2772 21.7301 30.1625 21.0584 27.8603L20.7003 27.9508C21.4049 30.3746 22.7048 32.5963 24.5307 34.4313C25.7671 35.6745 27.1804 36.6752 28.7126 37.4125L28.894 37.0891C27.4439 36.3944 26.1026 35.4583 24.9209 34.2986L26.8537 32.3558C27.8583 33.3359 29.0037 34.1175 30.2423 34.6868L30.4227 34.3653C29.2123 33.8131 28.093 33.052 27.1122 32.0963L28.8626 30.3367C29.6829 31.1301 30.6249 31.752 31.6449 32.1876L31.8251 31.8666C30.8344 31.4486 29.9181 30.8476 29.1215 30.0782L31.0545 28.1352C31.6756 28.7242 32.3987 29.1678 33.1826 29.4501L33.3652 29.1249C32.6086 28.8615 31.9108 28.4404 31.3129 27.8757L33.0663 26.1129C33.6233 26.615 34.3217 26.9056 35.0685 26.9468V29.4397C34.4803 29.4214 33.9076 29.3135 33.3652 29.125L33.1826 29.4502C33.7817 29.6663 34.416 29.7874 35.0686 29.8068V32.5544C33.9374 32.5317 32.8414 32.2962 31.8259 31.868L31.6457 32.189C32.7166 32.6466 33.8733 32.8984 35.0686 32.9217V35.41C33.4398 35.3847 31.8667 35.0249 30.4235 34.3666L30.2432 34.6882C31.7412 35.3763 33.376 35.7517 35.0686 35.7772V38.5247C32.8974 38.4984 30.802 38.0037 28.8949 37.0904L28.7135 37.4139C30.7289 38.3837 32.9506 38.8963 35.2513 38.8963C37.6646 38.8963 39.9898 38.3295 42.0825 37.2651L41.9097 36.9282C39.9581 37.9217 37.761 38.4959 35.4337 38.5247V35.7771C37.279 35.7497 39.0553 35.3051 40.6602 34.4936L40.4896 34.1611C38.9641 34.9334 37.2494 35.3814 35.4338 35.4098V32.9214C36.8182 32.8946 38.1508 32.5607 39.3579 31.9555L39.1883 31.6246C38.0526 32.1939 36.7804 32.5266 35.4338 32.5542V29.8066C36.3155 29.7806 37.1643 29.5673 37.9369 29.1872L37.7684 28.8583C37.0589 29.2064 36.2689 29.4128 35.4337 29.4394V26.9468C36.1804 26.9056 36.879 26.615 37.4363 26.1129L39.1879 27.8738C38.7685 28.2695 38.2904 28.6021 37.7684 28.8584L37.9369 29.1873C38.4842 28.9179 38.9937 28.566 39.448 28.1353L41.3778 30.0752C40.7335 30.6974 39.9952 31.2203 39.1882 31.6247L39.3578 31.9556C40.1855 31.5408 40.955 30.9995 41.6391 30.338L43.3857 32.0935C42.5348 32.923 41.5582 33.621 40.4896 34.1613L40.6602 34.4938C41.7454 33.9452 42.7528 33.2306 43.6477 32.3571L45.5758 34.2952C44.5001 35.3506 43.2634 36.2393 41.9098 36.9282L42.0826 37.2651C43.5011 36.5436 44.8142 35.5958 45.9712 34.4327C47.1875 33.2103 48.1689 31.8153 48.8988 30.3043L48.8971 30.3007Z" fill="#0C1318"/>
<path d="M36.1322 20.1265L36.0269 20.1301L36.0318 20.2404L36.138 20.236L36.1322 20.1265Z" fill="#0C1318"/>
<path d="M37.0027 19.98H35.8916V21.0969H37.0027V19.98Z" fill="#0C1318"/>
<path d="M35.6719 19.9504L35.7793 19.9672L35.7922 19.8714L35.6848 19.8555L35.6719 19.9504Z" fill="#0C1318"/>
<path d="M35.582 19.9155L35.4752 19.9005L35.4882 19.8076L35.595 19.8227L35.582 19.9155Z" fill="#0C1318"/>
<path d="M35.8108 19.792H34.6997V20.9089H35.8108V19.792Z" fill="#0C1318"/>
<path d="M34.4331 19.982L34.5398 19.9979L34.5527 19.9022L34.4461 19.8862L34.4331 19.982Z" fill="#0C1318"/>
<path d="M34.4443 20.1196L34.3216 20.0891L34.3439 19.9983L34.4667 20.0288L34.4443 20.1196Z" fill="#0C1318"/>
<path d="M34.2261 20.2354L34.2109 20.1417L34.3015 20.1268L34.3167 20.2205L34.2261 20.2354Z" fill="#0C1318"/>
<path d="M22.2212 29.8077V30.0107H22.3134L22.2975 29.7769L22.175 29.7298V29.6519H22.0986V29.8077H22.2212Z" fill="#0C1318"/>
<path d="M22.8633 30.3696L23.0925 30.4784L23.1696 30.6968L23.2762 30.7755L23.3836 31.0093L23.3224 31.1181L23.1544 30.9622L23.0319 30.7909L22.9707 30.6505L22.8633 30.3696Z" fill="#0C1318"/>
<path d="M26.7321 35.1741L26.8092 35.3771L26.7018 35.4395L26.6405 35.3462L26.4878 35.2991L26.4726 35.1587L26.3501 34.9712L26.5339 35.0028L26.7321 35.1741Z" fill="#0C1318"/>
<path d="M34.7758 21.134H34.6076L34.577 20.7908L34.6687 20.7282V20.5566H34.1335L34.1182 20.3852L34.1949 20.3383L34.0724 20.2915L33.9805 20.4162L33.9502 20.5566L33.7972 20.588V20.6658H33.6902V20.8686L33.2619 21.2274L32.4057 21.1964C32.3443 21.3367 32.1913 21.1806 32.1913 21.1806C32.1609 21.0871 31.9469 21.1806 31.9469 21.1806C31.9469 21.3524 31.6564 21.1027 31.6564 21.1027L31.121 20.7126C30.8152 20.4318 30.3565 20.7907 30.3413 20.8686C30.3565 21.0871 29.9896 20.9154 29.9896 20.9154C29.9896 20.9154 29.6838 20.8219 29.6378 20.9468C29.592 21.0715 29.3929 21.0404 29.3929 21.0404L29.3623 21.1028L29.2093 21.134L29.1789 21.2275L28.9953 21.2588L29.454 21.2431C29.5764 21.2276 29.408 21.5084 29.3317 21.4928L29.1178 21.5084L29.0411 21.5863H28.8424L28.7507 21.7114L28.4603 21.6957C28.4603 21.6957 28.2919 21.8361 28.3074 21.8828C28.3227 21.9297 28.2768 22.0701 28.2308 22.0701C28.1849 22.0701 28.0931 22.2105 28.1238 22.2572C28.1545 22.3041 28.0321 22.4601 28.0321 22.4601L28.0016 22.6162L27.9099 22.6473V23.0686L27.7263 23.1934V23.3805L27.4508 23.677L27.4816 23.9265L27.2524 24.1762L27.2827 24.4258L27.1451 24.4726L27.1147 24.5818L27.0536 24.9093L27.2065 24.9251C27.2827 24.8938 27.2676 25.1279 27.2065 25.1589C27.145 25.1902 26.9768 25.2525 27.0688 25.3148C27.1606 25.3775 26.824 25.3617 26.824 25.2681C26.824 25.1747 26.6405 25.0965 26.5948 25.1279C26.5488 25.1589 26.4723 24.9874 26.4723 24.9874C26.3041 24.8159 25.7842 25.0029 25.7842 25.0029L25.7075 25.2526C25.5395 25.2839 25.4324 25.5647 25.4324 25.5647C25.2948 25.6115 25.1878 25.783 25.2337 25.8298C25.2794 25.8766 25.157 25.8921 25.157 25.8921V26.2355L25.0807 26.3447L25.0958 26.719C25.1877 26.719 25.1725 26.8908 25.1725 26.8908C25.0195 26.9063 25.0499 27.1092 25.0499 27.1092L24.7289 27.2183L24.6678 27.3119L24.2703 27.2962L24.1632 27.4055L24.0559 27.2962H23.2913L23.261 27.2183L23.108 27.1869L23.0926 27.0154L22.8633 27.0309L22.8175 27.1245L22.5727 27.14C22.5879 27.2961 22.328 27.5302 22.2976 27.468C22.2666 27.4055 22.0986 27.2336 22.1752 27.2027C22.2517 27.1713 22.4506 27.14 22.4506 27.14V27.0309L21.8846 27.0154L21.8236 27.1091L21.5939 27.1245V27.3742L21.4871 27.4055C21.4105 27.4521 21.5022 27.6239 21.5022 27.6239C21.6092 27.7329 21.4871 27.9045 21.4871 27.9045C21.3952 27.9981 21.5633 28.17 21.5633 28.17C21.6858 28.2009 21.4871 28.2946 21.4871 28.2946C21.5174 28.4505 21.6093 28.4974 21.6093 28.4974C21.5174 28.6533 21.6707 28.7312 21.6707 28.7312L21.6858 28.9967L21.7929 29.0592V29.2304L21.854 29.3398H22.0987L22.0834 28.9498C21.8692 28.7001 22.2667 28.6377 22.2823 28.7311C22.2977 28.8248 22.4659 28.8716 22.4659 28.8716C22.4965 29.1057 22.7565 29.2459 22.8328 29.0122C22.9093 28.7779 22.9704 28.9185 23.0163 29.0276C23.0622 29.1369 23.3525 29.4022 23.3525 29.4022H23.582L23.6128 29.6206C23.8727 29.605 23.9489 29.6365 24.0559 29.9949C24.1632 30.3536 24.4536 30.4473 24.4536 30.4473L24.6678 30.4317C24.6678 30.2448 24.8819 30.4632 24.8819 30.5569C24.8819 30.6501 25.2948 31.009 25.2948 31.009L25.7075 31.1024L26.0903 31.4149L26.3806 31.3836H26.5031C26.5793 31.1181 26.9465 31.399 26.9769 31.4926C27.0077 31.5863 27.2523 31.7423 27.2827 31.6642C27.3134 31.5863 27.4816 31.6332 27.5123 31.867C27.5428 32.1013 27.6496 32.0544 27.6496 32.0544L28.5215 32.0388L28.8273 31.7733L29.6073 31.7579C30.0048 31.7423 29.7601 31.1962 29.6839 31.1962C29.5462 31.0871 29.7296 30.6347 29.7296 30.6347L28.6132 29.5895C28.3534 29.5895 28.5826 29.2149 28.5826 29.2149C28.7814 29.0899 28.5366 28.8874 28.5366 28.8874C28.5674 28.7 28.4296 28.4816 28.4296 28.4816C28.1546 28.2944 28.2308 27.9354 28.2308 27.9354V27.6857C28.0016 27.4676 28.3227 27.4361 28.3227 27.4361C28.4295 27.2492 28.246 27.1087 28.246 27.1087L28.2308 26.9059L27.9861 26.8745L27.9557 26.1413L27.4053 25.3458C27.298 25.3143 27.3745 25.1274 27.3745 25.1274C27.5121 25.0493 27.3437 24.8623 27.3437 24.8623L27.3285 24.519L27.6495 24.4876L27.7261 24.363H27.879L27.8638 23.9573C27.9401 23.7545 28.1236 23.8636 28.1236 23.8636L28.3377 23.8793L28.4602 23.6452L28.4905 23.458L28.3225 23.4425C28.1389 23.3332 28.2307 22.9277 28.2307 22.9277C28.5213 22.4907 28.8575 22.7404 28.8575 22.7404L29.0718 22.7249C29.3928 22.9432 29.1022 23.3489 29.1022 23.3489C29.041 23.4425 29.0718 23.7389 29.0718 23.7389L29.1481 24.2379L28.9494 24.4098C28.7812 24.5034 28.7812 24.7217 28.9648 24.7686C29.087 24.784 29.0411 25.0805 28.8575 24.8777C28.5825 24.8777 29.0108 25.1273 28.8883 25.0647C29.1637 25.2052 29.1022 24.94 29.1022 24.94L29.4696 24.6435C29.6072 24.5344 29.852 24.8777 29.852 24.9245C29.852 24.9713 30.4636 24.94 30.4636 24.94C30.6317 25.0491 30.6928 25.3301 30.6928 25.3301C30.8612 25.1115 31.2128 25.3143 30.9529 25.4392C31.1974 25.5952 31.1974 25.7356 31.1974 25.7356C31.3964 25.6732 31.3964 25.8292 31.3964 25.876C31.3964 25.9229 31.4575 25.6421 31.4575 25.6421C31.2281 25.4704 31.7633 25.408 31.6105 25.7201L31.5186 25.8606L31.6716 25.9853L31.6868 26.3442C32.0233 26.3129 31.9315 25.8916 31.9315 25.8916L32.0845 25.8606C32.0845 25.7201 32.1913 25.7981 32.1913 25.7981C32.0845 25.2675 32.4362 25.1742 32.4362 25.1742C32.6349 25.1273 32.6501 24.7059 32.6501 24.7059C32.5128 24.6435 32.589 24.4252 32.742 24.6126C32.8947 24.7995 32.6501 24.2379 32.6501 24.2379L32.5279 24.1288L32.3598 24.1132L32.3443 23.9416H32.0693L32.0233 24.1601L31.9163 24.1913L31.8855 24.1288L31.8398 24.3004H31.5646L31.5494 24.1132L31.7175 24.0664L31.7787 23.9728L31.8245 23.7231H32.0234L32.2833 23.6453C32.2984 23.38 32.4362 23.4425 32.4362 23.4425L32.5279 23.5204L32.6656 23.6296L32.6809 23.723L32.589 23.7698L32.5739 23.8948L32.6198 24.0663H32.742C32.7879 23.8167 33.1092 23.8167 33.2009 23.9727L33.2927 23.7544C33.0787 23.6452 33.2887 23.4734 33.3499 23.5515C33.411 23.6296 33.5526 23.3487 33.5526 23.3487C33.5526 23.3487 33.6596 23.4892 33.5526 23.3019C33.4456 23.1146 33.6289 23.0211 33.6289 23.0211C33.5985 22.834 33.8278 22.8651 33.8278 22.8651L33.8433 22.6156L33.6289 22.5998C33.5834 22.8182 33.3997 22.6311 33.4915 22.5844C33.5834 22.5375 33.6748 22.4439 33.6748 22.4439V22.2878L33.7667 22.2567L33.7819 22.1006H34.0114L34.2102 22.0071L34.2561 21.929L34.47 21.9135L34.7758 21.6326L34.7455 21.5079C34.5619 21.5079 34.7455 21.3674 34.7455 21.3674L34.7757 21.1339L34.7758 21.134Z" fill="#0C1318"/>
<path d="M28.6133 24.2226L28.338 24.1914L28.3535 24.3005H28.4298C28.552 24.519 28.4451 25.0494 28.4451 25.0494C28.4451 25.0494 28.2618 25.0648 28.231 24.9714C28.2007 24.8778 28.124 25.1743 28.1851 25.2211C28.2462 25.2677 28.4605 25.2211 28.4757 25.3928C28.4908 25.5643 28.6133 25.2835 28.6133 25.2835V24.2226V24.2226Z" fill="#0C1318"/>
<path d="M28.3379 25.4866V25.8608L28.5829 26.188L28.6745 25.9696L28.7055 25.8292L28.5981 25.7829L28.6132 25.5491L28.7055 25.5329L28.7206 25.4233L28.4907 25.5799L28.3379 25.4866Z" fill="#0C1318"/>
<path d="M28.7358 26.5314V26.3755L28.6291 26.3909L28.6133 26.5159L28.7358 26.5314Z" fill="#0C1318"/>
<path d="M28.598 27.2805V27.1709L28.4683 27.1863V27.2959L28.598 27.2805Z" fill="#0C1318"/>
<path d="M28.7782 26.8007C28.8141 26.8007 28.8429 26.7712 28.8429 26.7348C28.8429 26.698 28.8141 26.6685 28.7782 26.6685C28.7424 26.6685 28.7134 26.6979 28.7134 26.7348C28.7134 26.7712 28.7424 26.8007 28.7782 26.8007Z" fill="#0C1318"/>
<path d="M28.8855 28.1791C29.4992 28.1791 29.9966 27.6791 29.9966 27.0622C29.9966 26.4454 29.4992 25.9453 28.8855 25.9453C28.2719 25.9453 27.7744 26.4454 27.7744 27.0622C27.7744 27.6791 28.2719 28.1791 28.8855 28.1791Z" fill="#0C1318"/>
<path d="M28.8894 26.3969C29.5031 26.3969 30.0005 25.8968 30.0005 25.28C30.0005 24.6631 29.5031 24.1631 28.8894 24.1631C28.2758 24.1631 27.7783 24.6631 27.7783 25.28C27.7783 25.8968 28.2758 26.3969 28.8894 26.3969Z" fill="#0C1318"/>
<path d="M33.7973 23.1619H33.8896L33.9047 23.2553L33.8435 23.3178L33.8132 23.3957L33.6907 23.4273L33.4154 23.6928L33.4002 23.817L33.3238 23.9266L33.2323 24.1604L32.9109 24.1758L32.8496 24.4567L32.895 24.6905L33.1703 24.8001L33.2013 24.6442L33.2928 24.5971L33.3087 24.4413L33.3692 24.3317L33.4615 24.2229L33.4918 24.0979L33.6445 24.0045L33.8283 23.9729L33.9047 23.8795L33.9357 23.6928L33.9465 23.5523L34.0121 23.4582L34.1952 23.3803V23.084H34.1036L34.0885 22.9744L33.9199 22.959L33.8896 23.0369H33.8132L33.7973 23.1619Z" fill="#0C1318"/>
<path d="M34.5164 24.0358V23.8173L34.4856 23.6145L34.2565 23.5054L34.0884 23.6614L34.0576 23.8798V24.0201L33.9047 24.0514L33.874 24.4726L33.7518 24.5195L33.7671 24.6755L33.5989 24.7223L33.4308 24.7691L33.4002 24.9719L33.278 25.0498L33.2165 25.2371L33.1401 25.6895C33.1401 25.6895 33.2779 25.9547 33.3543 25.8299C33.4308 25.7052 33.553 25.6895 33.553 25.6895L33.5989 25.5803L34.0118 25.5958C34.0425 25.4241 34.2412 25.4867 34.2412 25.5647C34.2412 25.6427 34.3942 25.5802 34.3942 25.5802L34.5012 25.4086H34.6692L34.6845 25.2215L34.7611 25.1747V24.8937C35.0059 24.8158 34.975 24.5818 34.975 24.5818L35.0366 24.5039L35.0059 24.3948C34.8834 24.3478 34.9444 24.2385 35.021 24.2697C35.0977 24.3009 34.914 24.1293 34.914 24.1293C34.8223 24.2075 34.746 24.0358 34.746 24.0358H34.5164L34.5164 24.0358Z" fill="#0C1318"/>
<path d="M34.7611 25.9231C34.7459 26.1102 34.5164 26.1727 34.5164 26.1727L34.3482 26.1259L34.2566 26.0479L34.2412 25.8294L34.3787 25.814L34.4094 25.9076L34.7611 25.9231H34.7611Z" fill="#0C1318"/>
<path d="M35.5873 24.9251C35.6204 25.0611 35.6176 24.7064 35.6788 24.7222C35.7399 24.7377 35.6943 24.5039 35.6943 24.5039L35.4189 24.7064C35.5565 24.7222 35.5717 24.8627 35.5873 24.9251H35.5873Z" fill="#0C1318"/>
<path d="M36.3969 24.1134C36.4581 24.2539 36.4429 24.4568 36.672 24.6128C36.7494 24.6654 36.6261 24.7688 36.5495 24.7219C36.4732 24.6752 36.2593 24.3318 36.2593 24.3318V24.129C36.3051 24.0043 36.3704 24.053 36.3969 24.1134V24.1134Z" fill="#0C1318"/>
<path d="M36.397 28.856L36.4424 28.9023L36.4878 28.9803L36.5952 28.809L36.5036 28.7773L36.397 28.856Z" fill="#0C1318"/>
<path d="M38.226 28.3807L38.3485 28.3028L38.2995 28.2241L38.1777 28.3013L38.226 28.3807Z" fill="#0C1318"/>
<path d="M42.652 31.6334L42.7898 31.6956L42.8049 31.9608C42.9886 32.148 43.5849 31.992 43.5849 31.9452C43.5849 31.8983 43.5542 31.368 43.5542 31.368L43.4776 31.2899L43.4624 30.8997C43.5235 30.6969 43.1718 30.4004 43.1413 30.4631C43.1106 30.5253 42.9119 30.4784 42.9119 30.541C42.9119 30.6032 42.7897 30.9153 42.8508 31.0246C42.9119 31.1339 42.8048 31.1339 42.7896 31.243C42.7744 31.3522 42.6214 31.5397 42.652 31.6334L42.652 31.6334Z" fill="#0C1318"/>
<path d="M42.3147 31.009C42.2858 31.1272 42.1774 31.1962 42.1163 31.1493C42.0547 31.1024 42.1923 31.2271 42.2231 31.2898C42.2536 31.352 42.3453 31.352 42.3761 31.2898C42.4064 31.2271 42.3913 31.0871 42.422 31.0246C42.4524 30.9621 42.3301 30.9466 42.3147 31.009L42.3147 31.009Z" fill="#0C1318"/>
<path d="M42.7151 28.147H41.604V29.2639H42.7151V28.147Z" fill="#0C1318"/>
<path d="M43.1867 25.1438C43.1199 25.0529 43.4925 24.8942 43.5536 25.0814C43.6147 25.2684 43.5536 25.2374 43.4925 25.2219C43.4311 25.2061 43.2785 25.2685 43.1867 25.1438L43.1867 25.1438Z" fill="#0C1318"/>
<path d="M43.5154 23.0537L43.4995 23.1456L43.6674 23.1765L43.684 23.0846L43.5154 23.0537Z" fill="#0C1318"/>
<path d="M43.0871 23.322L43.0986 23.3507L43.1836 23.3162L43.1526 23.2382L43.1332 23.189L43.0878 23.2147L42.9739 23.2794L42.8745 23.2162L42.8262 23.2948L42.9487 23.3728L42.9718 23.3875L42.9948 23.3742L43.0871 23.322Z" fill="#0C1318"/>
<path d="M43.6606 19.527H43.431C43.431 19.527 43.5076 19.5581 43.2937 19.3553C43.0793 19.1525 42.9419 19.4021 42.9419 19.4021L42.6972 19.4333V19.6829L42.5747 19.7297L42.5902 19.8858L42.7583 19.8702C42.7583 19.8702 42.7583 20.0574 42.8043 19.9794C42.8502 19.9013 43.2326 19.9949 43.2019 20.1822C43.1894 20.2591 43.5843 20.4629 43.5384 20.7125C43.7372 20.7438 43.6914 20.9466 43.6914 20.9466L43.9512 20.9778L44.0278 20.8218L44.1041 20.8375V20.7438L43.9357 20.697L43.9053 20.1977L43.7983 20.1197L43.8288 19.9949L43.7066 19.948L43.7677 19.7452L43.6606 19.5269L43.6606 19.527Z" fill="#0C1318"/>
<path d="M44.3334 21.1185L44.2112 21.103L43.9355 21.1498L43.783 21.4462C43.783 21.4462 43.8593 21.493 43.9203 21.6022C43.9814 21.7115 44.0121 22.351 43.8287 22.4603C43.6453 22.5696 43.8441 22.5069 43.8441 22.5069L43.8133 22.8502C43.8593 23.0062 43.9355 22.9284 43.9814 22.8502C44.0277 22.7724 44.0736 22.7568 44.1347 22.6788C44.1959 22.6006 44.2875 22.4603 44.3029 22.351C44.318 22.2419 44.3946 22.0703 44.3486 22.0235C44.3029 21.9767 44.3946 21.7584 44.3946 21.7584C44.3946 21.7584 44.4557 21.6334 44.3946 21.5087C44.3335 21.3838 44.4098 21.2434 44.4557 21.1809L44.3334 21.1185L44.3334 21.1185Z" fill="#0C1318"/>
<path d="M44.5181 21.7549L44.5337 21.63L44.625 21.6416L44.6093 21.7664L44.5181 21.7549Z" fill="#0C1318"/>
<path d="M44.5132 22.1855L44.431 22.1445L44.4771 22.0511L44.5593 22.0921L44.5132 22.1855Z" fill="#0C1318"/>
<path d="M44.3795 20.9471L44.3181 20.8066C44.3181 20.8066 44.3181 20.682 44.3487 20.6193C44.3795 20.557 44.2876 20.4947 44.2419 20.4791C44.1959 20.4634 44.2114 20.3387 44.1959 20.2762C44.1807 20.2138 44.0738 20.1671 44.0738 20.1671C44.0738 20.1671 44.0429 19.9331 44.0429 19.8863C44.0429 19.8395 43.9054 19.7771 43.9513 19.7302C43.9973 19.6834 44.0279 19.6211 44.0738 19.5898C44.1197 19.5586 44.0278 19.3401 44.1041 19.3869C44.1807 19.4338 44.1807 19.5118 44.2114 19.5742C44.2419 19.6365 44.196 19.855 44.2726 19.9019C44.3488 19.9486 44.2571 20.1045 44.3795 20.1045C44.5017 20.1045 44.4255 20.401 44.4255 20.401C44.4255 20.401 44.3947 20.6193 44.471 20.6351C44.5477 20.6507 44.5018 21.0251 44.5018 21.0251L44.3795 20.9471L44.3795 20.9471Z" fill="#0C1318"/>
<path d="M43.3857 18.4189C43.4314 18.4813 43.5233 18.528 43.5233 18.5906C43.5233 18.6531 43.4928 18.6997 43.5847 18.7154C43.6762 18.7309 43.7375 18.6997 43.768 18.7777C43.7986 18.8556 43.7986 18.9805 43.7834 19.0429C43.768 19.1054 43.7986 19.1989 43.875 19.1989C43.9516 19.1989 43.9668 19.2146 43.9668 19.2614C43.9668 19.3081 44.0586 19.0897 44.0586 19.0897C43.9819 19.0273 43.9208 18.8868 43.9208 18.8868C43.9208 18.8868 43.8445 18.6684 43.8445 18.6373C43.8445 18.6061 43.7375 18.5748 43.6917 18.5593C43.6457 18.5436 43.5691 18.4033 43.5691 18.4033L43.3857 18.4189V18.4189Z" fill="#0C1318"/>
<path d="M43.5392 18.2792C43.4932 18.2167 43.4473 18.1699 43.3862 18.1389C43.3252 18.1075 43.2793 18.0764 43.2179 18.0764C43.1568 18.0764 43.0957 18.0139 43.1261 17.936C43.1568 17.8579 43.0801 17.8267 43.0801 17.7642C43.0801 17.7019 43.1261 17.7019 43.2026 17.7487C43.2792 17.7956 43.2637 17.8111 43.3252 17.8892C43.3862 17.9672 43.4166 18.0452 43.4777 18.0295C43.5392 18.0139 43.585 18.1699 43.6461 18.1231C43.7072 18.0764 43.6921 18.2323 43.6921 18.2323L43.5392 18.2792H43.5392Z" fill="#0C1318"/>
<path d="M41.7492 20.042C41.8335 20.1282 41.2905 20.1043 41.2905 20.042C41.2905 19.9797 41.3365 19.7614 41.4739 19.8078C41.6115 19.8548 41.6267 19.5272 41.6267 19.5272C41.6267 19.5272 41.5045 19.5426 41.6115 19.4804C41.7186 19.418 41.6115 19.3243 41.5655 19.2776C41.5198 19.2307 41.4739 19.1527 41.4739 19.1527H41.6881C41.78 19.0902 41.8103 18.7939 41.8103 18.7939C41.9937 18.8563 42.0855 18.7314 42.0855 18.7314C42.0855 18.7314 42.1165 18.825 42.1776 18.9032C42.2387 18.9811 42.0243 19.0123 42.1009 19.0592C42.1776 19.1061 42.2079 19.2463 42.1776 19.293C42.1468 19.3399 41.9784 19.3087 41.9784 19.2463C41.9784 19.1839 41.9173 19.3244 41.9784 19.4024C42.0395 19.4804 41.902 19.5895 41.8713 19.5895C41.8407 19.5895 41.6422 19.6208 41.8102 19.7143C41.9784 19.8079 42.1622 19.7613 42.1622 19.7613C42.1622 19.7613 42.2997 19.7455 42.3456 19.8237C42.3916 19.9016 42.3304 19.9173 42.2539 19.9173C42.1776 19.9173 41.8103 19.8859 41.8103 19.8859C41.8103 19.8859 41.7034 19.9952 41.7492 20.042L41.7492 20.042Z" fill="#0C1318"/>
<path d="M40.7709 20.1826C40.8476 20.1671 41.0307 20.1513 41.0615 20.1982C41.0923 20.2449 40.9545 20.3073 40.9545 20.3073L40.7709 20.3386C40.7098 20.2605 40.6946 20.1982 40.7709 20.1827V20.1826Z" fill="#0C1318"/>
<path d="M42.7437 18.8721C42.8659 18.8098 43.1258 18.8098 43.1106 18.7161C43.0954 18.6225 43.2634 18.5913 43.2634 18.5913L43.3093 18.7784L43.447 18.872L43.4623 19.0436C43.4623 19.0436 43.5081 19.0125 43.3401 19.0593C43.1717 19.1061 43.279 19.184 43.279 19.184L42.9118 19.1996L42.8659 19.0436L42.7437 18.8721V18.8721Z" fill="#0C1318"/>
<path d="M42.1465 18.0295C42.2395 18.0295 42.1162 18.3883 42.3605 18.3571C42.6053 18.3258 42.3761 18.4663 42.5594 18.4818C42.743 18.4976 42.6971 18.3415 42.7582 18.2324C42.8196 18.1232 42.789 18.0607 42.6819 18.0295C42.5745 17.9983 42.5745 17.9983 42.5442 17.8733C42.5137 17.7486 42.3913 17.7173 42.3913 17.7173L42.3453 17.5303L42.1465 17.655L41.9478 17.9202C41.9478 18.1232 42.0547 18.0295 42.1465 18.0295Z" fill="#0C1318"/>
<path d="M42.5518 19.3481L42.5979 19.2546L42.6806 19.2959L42.6344 19.3894L42.5518 19.3481Z" fill="#0C1318"/>
<path d="M43.5022 19.1992H42.3911V20.3161H43.5022V19.1992Z" fill="#0C1318"/>
<path d="M42.4683 17.1211L42.4837 17.2614L42.3925 17.2715L42.3771 17.1312L42.4683 17.1211Z" fill="#0C1318"/>
<path d="M43.3191 18.5752H42.208V19.6921H43.3191V18.5752Z" fill="#0C1318"/>
<path d="M41.9678 18.5732L41.9588 18.48L42.1117 18.4651L42.1207 18.5583L41.9678 18.5732Z" fill="#0C1318"/>
<path d="M40.7065 20.0737L40.6222 20.0377L40.6683 19.9286L40.7527 19.9646L40.7065 20.0737Z" fill="#0C1318"/>
<path d="M40.2266 19.79L40.2176 19.697L40.3707 19.682L40.3797 19.775L40.2266 19.79Z" fill="#0C1318"/>
<path d="M37.5722 19.7612L37.2363 19.7771L37.2407 19.8729L37.5765 19.8571L37.5722 19.7612Z" fill="#0C1318"/>
<path d="M37.0112 19.8965L36.9807 19.7562L37.0706 19.7365L37.1011 19.8767L37.0112 19.8965Z" fill="#0C1318"/>
<path d="M36.9468 19.9932L36.9177 19.9043L36.9638 19.8891L36.9929 19.9779L36.9468 19.9932Z" fill="#0C1318"/>
<path d="M37.7115 19.7302L37.6963 19.8393L37.8643 19.855C37.8643 19.855 37.9406 19.9175 37.9406 19.9641C37.9406 20.0109 38.0479 20.0577 38.109 20.0577C38.1702 20.0577 38.3383 19.9329 38.3383 19.9329C38.3383 19.9329 38.4149 19.7144 38.3538 19.73C38.2924 19.7455 38.1702 19.8392 38.155 19.7455C38.1395 19.6519 37.9562 19.6987 37.9562 19.6987L37.7115 19.7302L37.7115 19.7302Z" fill="#0C1318"/>
<path d="M38.476 19.5582C38.476 19.6049 38.4457 19.6673 38.5371 19.683C38.6293 19.6985 38.7975 19.6207 38.8126 19.7142C38.8281 19.8077 38.8281 19.8704 38.9502 19.9172C39.0724 19.9639 39.1492 19.9795 39.2408 19.9795C39.3324 19.9795 39.5315 19.9481 39.5315 19.9481C39.5315 19.9481 39.7478 19.9822 39.7913 20.0263C39.9594 20.1978 40.0665 20.2446 40.1123 20.1667C40.1582 20.0886 40.0971 19.9171 40.0819 19.8547C40.0665 19.7921 39.8523 19.4958 39.7759 19.5582C39.6996 19.6207 39.6843 19.5582 39.5465 19.6049C39.4089 19.6517 39.1183 19.6207 39.1032 19.5582C39.088 19.4957 38.8738 19.4647 38.8738 19.4022C38.8738 19.3397 38.7211 19.2618 38.7362 19.3553C38.7514 19.4489 38.6292 19.4957 38.5982 19.4647C38.5678 19.4334 38.476 19.5582 38.476 19.5582L38.476 19.5582Z" fill="#0C1318"/>
<path d="M41.9943 17.5611L42.1015 17.2181C41.9488 17.1868 41.9791 17.0153 41.9791 17.0153C41.9639 16.8748 41.7498 16.7188 41.6733 16.7657C41.597 16.8123 41.6273 16.4379 41.6273 16.4379C41.6273 16.4379 41.7651 16.3445 41.8262 16.3912C41.8874 16.4379 41.3064 15.6112 41.184 15.6892C41.0617 15.7672 40.7866 15.6112 40.8018 15.4707C40.817 15.3304 40.2513 14.8623 40.2513 14.8623C40.2513 14.8623 40.0677 14.7376 40.0372 14.8312C40.0066 14.9248 39.9455 14.9872 40.0372 15.0339C40.1288 15.0808 40.1136 14.9559 40.2205 15.065C40.3275 15.1742 40.5266 15.3147 40.4501 15.4083C40.3735 15.5021 40.2817 15.5332 40.2817 15.5332L40.3889 15.6581H40.5571L40.5877 15.9232C40.5877 15.9232 40.7711 16.0168 40.817 16.126C40.863 16.2351 40.863 16.2976 40.817 16.3601C40.7711 16.4225 40.6797 16.5316 40.6948 16.6408C40.71 16.7499 40.8325 16.7968 40.8325 16.7968L40.9546 16.8124L41.0465 16.8593V17.0623C41.1687 17.0309 41.3674 17.2024 41.3523 17.3117C41.3371 17.4209 41.3827 17.3585 41.5356 17.4678C41.6887 17.5769 41.6429 17.5926 41.7499 17.6706C41.857 17.7484 41.9488 17.7016 41.9943 17.5611L41.9943 17.5611Z" fill="#0C1318"/>
<path d="M39.4707 15.4395C39.4555 15.377 39.4248 15.1585 39.5166 15.1741C39.6083 15.1899 39.5473 15.1741 39.6543 15.221C39.7613 15.2679 39.7765 15.1431 39.7765 15.1431H39.9449L40.1589 15.3145L40.1282 15.455L39.9753 15.4705C39.899 15.3458 39.746 15.3926 39.7765 15.5019C39.8072 15.611 39.7002 15.8138 39.6392 15.8293C39.578 15.845 39.3789 15.845 39.3944 15.7515C39.4096 15.6579 39.4707 15.4395 39.4707 15.4395L39.4707 15.4395Z" fill="#0C1318"/>
<path d="M39.348 15.0177V14.893C39.348 14.893 39.3324 14.7682 39.2562 14.7682C39.1799 14.7682 39.0422 14.6747 39.0726 14.6122C39.1034 14.5497 38.8127 14.4873 38.8127 14.4873C38.8127 14.4873 38.5529 14.2377 38.6446 14.269C38.7364 14.3002 38.6906 14.1597 38.6906 14.1597C38.6906 14.1597 38.5069 14.1909 38.461 14.1754C38.4151 14.1597 38.4303 14.0194 38.4303 14.0194C38.4303 14.0194 38.2471 13.9725 38.2471 14.0194C38.2471 14.0662 38.3082 14.0662 38.3385 14.1596C38.3693 14.2532 38.354 14.4093 38.4918 14.4404C38.6295 14.4718 38.6598 14.5028 38.6754 14.5653C38.6906 14.6278 38.8587 14.6433 38.8587 14.6433L38.9812 14.7056L39.348 15.0177Z" fill="#0C1318"/>
<path d="M37.6972 13.4269L37.6518 13.3019L37.5293 13.271V13.4114L37.6972 13.4269Z" fill="#0C1318"/>
<path d="M37.6516 12.772C37.4917 12.65 37.8655 12.8656 37.8655 12.8656C37.9877 12.8656 38.0642 12.9592 38.0642 13.0061C38.0642 13.0529 38.2325 13.0373 38.2325 13.0373L38.248 12.928L38.1254 12.772L38.0186 12.6942C38.0186 12.6942 37.8504 12.6785 37.8504 12.6317C37.8503 12.585 37.7127 12.8189 37.6516 12.772L37.6516 12.772Z" fill="#0C1318"/>
<path d="M40.464 12.8652C40.4193 13.0017 40.4028 13.1929 40.3263 13.1929C40.25 13.1929 40.2804 13.3959 40.2804 13.3959C40.2804 13.3959 40.4795 13.3959 40.5406 13.4113C40.6016 13.4268 40.6016 13.5828 40.6016 13.5828C40.8312 13.5674 40.923 13.8793 40.8922 13.9573C40.8616 14.0353 40.984 14.0353 40.984 14.0353C40.984 14.0353 40.984 14.285 40.9532 14.3472C40.9229 14.4097 41.1522 14.4566 41.2133 14.5501C41.2744 14.6438 41.1825 14.9557 41.1368 14.9713C41.091 14.987 41.259 15.0337 41.2438 15.1117C41.2283 15.1898 41.2897 15.1117 41.3049 15.2366C41.3201 15.3613 41.3509 15.6265 41.3509 15.6265L41.5648 15.6423C41.5956 15.4395 41.9898 15.4317 42.0542 15.455C42.3142 15.5486 42.5133 15.9542 42.5133 16.0477C42.5133 16.1413 42.3448 16.1571 42.3448 16.1571L42.3756 16.6093C42.6354 16.6874 42.8495 17.0619 42.8191 17.1243C42.7884 17.1866 43.0023 17.1712 43.0023 17.1712C43.0331 16.8902 43.293 16.9839 43.3081 17.0775C43.3238 17.1712 43.3693 17.374 43.3693 17.374L43.4459 17.5142L43.5529 17.6235L43.721 17.6079L43.767 17.7015L43.9658 17.7329C43.9658 17.7329 44.1342 17.9198 44.1493 17.9668C44.1648 18.0135 44.3941 17.998 44.4551 18.0135C44.5162 18.0292 44.6081 18.076 44.6233 18.1539C44.6388 18.232 44.7306 18.3568 44.7306 18.3568C44.7306 18.3568 44.9139 18.4037 44.9293 18.466C44.9445 18.5283 45.0212 18.6688 45.0212 18.6688L45.1737 18.7936L45.1892 18.9341L45.3573 18.9497L45.4033 19.1367L45.6783 19.1212L45.8315 19.0121C46.0303 18.9029 46.1679 18.7624 46.1833 18.6999C46.1984 18.6376 46.2291 18.4037 46.3821 18.4505C46.5349 18.4973 46.428 18.1072 46.428 18.1072C46.428 18.1072 46.2139 17.9512 46.2291 17.873C46.2444 17.7951 46.0152 17.6392 46.0303 17.5767C46.0455 17.5142 45.8315 17.3896 45.8467 17.3272C45.8619 17.2647 45.7397 17.093 45.7397 17.093L45.5102 16.8747L45.4795 16.7342L45.2962 16.7187L44.9293 16.2663L44.9445 16.1413L44.8375 16.1258V15.9543L44.7306 15.8918L44.5622 15.8762L44.2259 15.5019L44.1952 15.3302H44.0271L44.0576 15.0025C44.1648 14.8621 44.1034 14.5969 44.1034 14.5969C44.1034 14.5969 43.8892 14.706 43.7824 14.6592C43.6752 14.6126 43.8281 14.5032 43.8281 14.5032V14.3785L43.7365 14.2849C43.7365 14.2849 43.4763 14.3162 43.4612 14.2695C43.4459 14.2226 43.4001 14.0198 43.4001 14.0198L43.3847 13.7545L43.2779 13.7079L43.2623 13.6141L43.0943 13.6296V13.4425L43.0024 13.4113L42.9107 13.3645L42.8955 13.1772L42.559 13.1618L42.452 13.0058L42.3298 12.8185L41.9475 12.7873L41.8556 12.6939L41.7028 12.6626L41.5958 12.6157L41.5498 12.6939L41.2592 12.7093L41.244 12.8029C41.0912 12.8809 40.4795 12.8184 40.464 12.8652V12.8652Z" fill="#0C1318"/>
<path d="M42.0701 12.46C42.0459 12.3369 42.3762 12.226 42.4525 12.3195C42.5291 12.4131 42.7431 12.429 42.7737 12.897C42.7845 13.0646 42.4984 12.7254 42.4984 12.7254L42.2689 12.6474C42.1467 12.6161 42.0853 12.5383 42.0701 12.46L42.0701 12.46Z" fill="#0C1318"/>
<path d="M37.585 12.6504L37.501 12.6132L37.5626 12.4728L37.6466 12.5101L37.585 12.6504Z" fill="#0C1318"/>
<path d="M36.7946 11.1186L36.5954 10.9157V10.7441L36.5343 10.6815L36.4732 10.4632L36.2744 10.4009L36.0757 10.4787L35.8615 10.6192L35.6323 10.6506L35.5098 10.7909L35.9992 10.8375L36.0908 10.9937L36.4429 11.0249L36.672 11.2588C36.8712 11.3213 36.9169 11.2277 36.7946 11.1186L36.7946 11.1186Z" fill="#0C1318"/>
<path d="M36.7645 10.3534C36.7308 10.2163 36.535 10.5249 36.7342 10.5872C36.9329 10.6499 37.1314 10.5872 37.1314 10.5872L37.1774 10.4937L37.9418 10.5093C38.0033 10.4468 38.0336 10.3533 38.0336 10.3533C38.0336 10.3533 38.2172 10.2908 38.2935 10.322C38.3701 10.3533 38.309 10.1037 38.2324 10.1349C38.156 10.166 38.0032 10.1505 38.0032 10.1505H37.7278C37.7126 10.0414 37.4679 10.088 37.4526 10.1505C37.4371 10.2128 37.3458 10.2284 37.3458 10.2284L36.994 10.2597C36.9633 10.3534 36.78 10.4157 36.7645 10.3534L36.7645 10.3534Z" fill="#0C1318"/>
<path d="M35.2501 12.9862C35.4853 13.0612 35.5711 13.0057 35.5867 12.9433C35.6019 12.8808 35.617 12.8652 35.7089 12.8497C35.8006 12.8341 35.6936 12.6469 35.6019 12.6624C35.51 12.678 35.4183 12.6313 35.4031 12.5533C35.3875 12.4753 35.2347 12.2725 35.2195 12.4286C35.2042 12.5846 35.1125 12.5846 35.1277 12.6938C35.1431 12.8027 35.189 12.9665 35.2501 12.9862V12.9862Z" fill="#0C1318"/>
<path d="M33.492 13.1618C33.481 13.1066 33.7978 13.0994 33.8438 13.146C33.8897 13.1929 33.859 13.2709 33.9966 13.2709C34.1341 13.2709 34.073 13.3646 34.0577 13.4114C34.0425 13.4582 33.8897 13.4426 33.8741 13.396C33.859 13.349 33.6294 13.3332 33.6294 13.3332C33.6294 13.3332 33.5072 13.2396 33.492 13.1618L33.492 13.1618Z" fill="#0C1318"/>
<path d="M38.5359 10.0122L38.5654 10.042L38.5971 10.0158L38.7506 9.89088L38.693 9.81787L38.5719 9.91639L38.4941 9.83691L38.4292 9.90301L38.5359 10.0122Z" fill="#0C1318"/>
<path d="M37.8504 9.64446L37.8749 9.62865L38.0436 9.51932L37.9945 9.44043L37.8504 9.53373L37.7524 9.47146L37.7041 9.55086L37.8266 9.62865L37.8504 9.64446Z" fill="#0C1318"/>
<path d="M37.303 12.8312L37.3982 12.9834L37.4753 12.9334L37.3686 12.7621L37.3564 12.743L37.334 12.7408L37.1812 12.7246L37.1719 12.818L37.303 12.8312Z" fill="#0C1318"/>
<path d="M32.2982 17.0928L32.3139 17.2645H32.543C32.6348 17.2645 32.4667 17.1553 32.4667 17.1553C32.4667 17.1553 32.2831 17.1709 32.2983 17.0928H32.2982Z" fill="#0C1318"/>
<path d="M32.5894 17.0981L32.6484 17.0264L32.7409 17.1033L32.6818 17.175L32.5894 17.0981Z" fill="#0C1318"/>
<path d="M29.8037 14.1792L29.8692 14.1135L29.9615 14.2065L29.896 14.2722L29.8037 14.1792Z" fill="#0C1318"/>
<path d="M34.1169 34.3458L34.1825 34.412L34.2589 34.3341L34.3035 34.2885L34.2466 34.2591L34.0938 34.1812L34.0527 34.265L34.1486 34.3135L34.1169 34.3458Z" fill="#0C1318"/>
<path d="M32.9145 33.2157L33.0219 33.2936L33.0752 33.2179L33.0161 33.1745L33.0622 33.1355L33.0039 33.0635L32.9116 33.1414L32.8662 33.1804L32.9145 33.2157Z" fill="#0C1318"/>
<path d="M44.4329 30.176C44.4126 30.0965 44.3235 30.0639 44.3134 30.0605L44.2842 30.1495V30.149C44.2915 30.1517 44.3021 30.1573 44.3126 30.1643L44.3314 30.2452C44.3245 30.2556 44.317 30.2653 44.3111 30.2723L44.3785 30.3356C44.4275 30.2806 44.4457 30.2274 44.4329 30.176L44.4329 30.176Z" fill="#0C1318"/>
<path d="M44.575 29.881L44.4258 29.8699L44.4373 29.7295L44.5865 29.753L44.575 29.881Z" fill="#0C1318"/>
<path d="M48.1186 28.6646C48.184 28.6231 48.2676 28.5474 48.2563 28.7232C48.2447 28.8987 48.1759 28.8404 48.1186 28.8987C48.0613 28.9573 48.0269 28.7232 48.1186 28.6646Z" fill="#0C1318"/>
<path d="M48.8997 28.0027C48.8984 27.9996 48.8975 27.9888 48.8969 27.9809C48.8948 27.9552 48.8914 27.9201 48.8727 27.8833L48.7886 27.9251C48.799 27.946 48.8011 27.9681 48.8029 27.9892C48.8052 28.0166 48.8083 28.0478 48.8351 28.0676C48.8519 28.0802 48.8733 28.0838 48.8986 28.079L48.8807 27.9884C48.8879 27.9895 48.8975 27.996 48.8997 28.0027H48.8997Z" fill="#0C1318"/>
<path d="M48.6924 28.0796C48.7157 28.1744 48.7497 28.2679 48.7512 28.2718L48.8372 28.2388C48.8366 28.238 48.8032 28.1465 48.7812 28.0566L48.6924 28.0796V28.0796Z" fill="#0C1318"/>
<path d="M48.3661 28.4477L48.2682 28.4385C48.2605 28.5121 48.2792 28.603 48.3566 28.6178L48.3759 28.526C48.3765 28.526 48.3775 28.5266 48.3777 28.5266C48.3698 28.52 48.3625 28.4823 48.3661 28.4477V28.4477Z" fill="#0C1318"/>
<path d="M47.9575 26.586C47.9528 26.556 47.9349 26.5327 47.9074 26.5204C47.8395 26.4904 47.725 26.5401 47.6689 26.5783L47.7197 26.6562C47.7778 26.6167 47.854 26.5976 47.871 26.6064C47.8695 26.6058 47.8674 26.6031 47.8669 26.6012L47.9575 26.586V26.586Z" fill="#0C1318"/>
<path d="M43.7214 21.6019C43.6603 21.6644 43.5226 21.6956 43.5226 21.6956L43.4766 21.8672L43.4004 21.9296C43.4004 21.9296 43.4155 21.9763 43.4004 22.0856C43.385 22.1947 43.2474 22.2572 43.2474 22.2572L43.1863 22.3352C43.1863 22.3352 42.8176 22.3553 42.7734 22.3352C42.6357 22.2729 42.7276 22.0856 42.8194 22.1012C42.911 22.1168 42.8039 21.8359 42.8039 21.8359L42.9264 21.8204C42.9264 21.8204 42.9415 21.5394 42.9875 21.5394C43.0334 21.5394 42.9723 21.4459 42.9109 21.3991C42.8498 21.3525 42.7734 21.1965 42.712 21.212C42.6509 21.2275 42.4062 21.212 42.4062 21.212L42.3603 21.3056L42.192 21.3367C42.192 21.3367 42.2065 21.4574 42.1771 21.4928C42.085 21.6019 41.7335 21.836 41.8862 21.446L41.932 21.3525V21.212L41.657 21.1966C41.657 21.1966 41.5193 21.1497 41.5193 21.0873C41.5193 21.0248 41.504 20.947 41.504 20.947L41.1828 20.5882L40.8007 20.5414L40.7699 20.4633L40.5408 20.4321C40.2653 20.2918 40.0206 20.4165 40.0665 20.6505C40.1124 20.8847 40.1887 20.9782 40.0361 20.9782C39.8829 20.9782 39.8524 20.8535 39.8524 20.8535C39.8524 20.8535 39.7303 20.8065 39.7303 20.8689C39.7303 20.9314 39.6843 21.0562 39.7303 21.1185C39.776 21.1809 39.6689 21.2745 39.623 21.2277C39.5774 21.1809 39.455 21.0407 39.4856 20.9939C39.5161 20.947 39.2713 20.6505 39.5161 20.6038C39.7608 20.5569 39.5008 20.4165 39.5927 20.3855L39.7149 20.323H39.8371L39.9136 20.2605L39.7149 20.2294L39.5927 20.2138L39.3632 20.1982C39.1339 20.3542 39.0881 20.5415 39.0881 20.5415C38.9655 20.7754 38.6752 20.4478 38.7823 20.323C38.8892 20.1982 38.4458 20.3074 38.3692 20.3698C38.2926 20.4321 38.0633 20.401 38.0633 20.401C38.0175 20.5415 37.8035 20.3855 37.8645 20.2919C37.9257 20.1983 37.9257 20.1358 37.9257 20.1358L37.8494 20.1202L37.7577 20.2918C37.5436 20.2918 37.4823 20.4165 37.5281 20.4946C37.574 20.5724 37.467 20.479 37.4363 20.5882C37.406 20.6974 37.4518 20.6974 37.5436 20.7442C37.6354 20.791 37.4976 20.791 37.5588 20.8689C37.6199 20.947 37.8035 20.8689 37.6965 20.9782C37.5895 21.0873 37.3752 21.0407 37.3752 21.0407C37.36 21.1809 37.0694 21.1498 37.039 21.1031C37.0083 21.0562 36.7791 20.7754 36.7791 20.7754L36.4881 20.7598C36.4578 20.5415 36.6259 20.6506 36.6871 20.479C36.7485 20.3073 36.7791 20.0267 36.7791 20.0267C36.7791 20.0267 36.5341 20.0111 36.5189 20.089C36.5038 20.1671 36.3508 20.2139 36.3508 20.2139C36.3508 20.2139 36.2283 20.2605 36.2742 20.323C36.3201 20.3855 36.1824 20.4165 36.1824 20.4165C36.1824 20.4165 36.2063 20.5173 36.1672 20.5569C36.0451 20.6819 35.739 20.5724 35.6933 20.5258L35.5096 20.4477L35.3261 20.323L35.1121 20.4164L35.051 20.4789H34.8214L34.8063 20.6659L35.2192 20.7127L35.2498 21.0988L35.0814 21.0405H34.9744L34.9286 20.9468L34.8368 20.9312V21.2743L34.9286 21.3525L35.0052 21.4303L35.1582 21.4459L35.1888 21.633L35.5709 21.6489L35.6168 21.7267L35.8463 21.7424L36.2898 22.1946L36.2592 22.3351L36.1826 22.382C36.2133 22.4912 35.984 22.4288 35.984 22.4288V22.5223L36.0907 22.5379L36.198 22.6002L36.3508 22.3351C36.519 22.2259 36.5953 22.3819 36.6109 22.4755C36.626 22.5691 36.5342 22.5534 36.5342 22.5534V22.772L36.626 22.8031C36.7791 22.9903 36.5649 23.0996 36.5649 23.0996L36.5189 23.2555C36.473 23.396 36.3049 23.3647 36.3049 23.3647L36.2439 23.4583L36.0601 23.5052L36.4232 23.5519C36.4577 23.4271 36.5492 23.3959 36.5952 23.4583C36.6411 23.5208 36.6411 23.63 36.6411 23.63L36.7332 23.6456L36.7177 23.8171L36.8095 23.8485V24.3476L36.9165 24.4724C37.1001 24.3946 37.1001 24.5193 37.0082 24.5816C36.9165 24.6438 36.9776 24.9249 36.9776 24.9249L36.9011 25.0027V25.1276L36.8094 25.19V25.3615C36.6564 25.2836 36.4729 25.3146 36.4269 25.3615C36.2895 25.2679 35.9989 25.2992 35.9989 25.3773C36.0905 25.502 35.892 25.5333 35.892 25.5333L35.7847 25.6581C35.8613 25.8141 35.7085 25.8296 35.7085 25.8296V26.1261L35.5248 26.2977L35.5403 26.7034C35.5403 26.8125 35.7696 26.8281 35.8153 26.7657C35.8613 26.7034 36.0449 26.8906 36.0449 26.8906H36.1823L36.213 26.6097L36.1212 26.5629V26.1104L36.2742 25.9387C36.4577 25.8764 36.3966 26.3446 36.3966 26.3913C36.4118 26.5629 36.4881 26.5473 36.5647 26.516C36.7176 26.4537 36.5951 26.6879 36.4729 26.672C36.3507 26.6566 36.427 26.8281 36.427 26.8281L36.5036 26.8594L36.3658 26.9686L36.2438 27.1091L36.0905 27.0622L35.9072 27.0467L35.8461 26.9372L35.7388 26.9217L35.7236 27.14L35.6473 27.2336L35.4637 27.4211C35.7085 27.4211 35.433 27.5924 35.3719 27.5924C35.5095 27.6392 35.3567 27.7798 35.005 27.6707V27.7797L34.8825 27.7954L34.9898 27.92L35.1119 27.9356L35.066 28.2009C35.066 28.4036 34.5615 28.2631 34.5155 28.2164L34.5003 28.4973L34.4085 28.5127L34.4237 28.7001L34.4085 28.9654L34.5766 28.9341V29.0434L34.9897 29.059L35.5861 28.4192L35.9377 28.3414C35.9682 28.1851 36.121 28.3726 36.121 28.3726C36.274 28.3566 36.3046 28.4661 36.3046 28.4661L36.5036 28.4973C36.6716 28.5442 36.57 28.5606 36.5799 28.6223C36.595 28.7157 36.6716 28.6845 36.6716 28.6845L36.7023 28.4817L36.7941 28.4973L36.7023 28.388L36.5339 28.3099L36.3505 28.232C36.2281 28.0605 36.3811 28.0917 36.5035 28.1074H36.7023C36.7023 28.1074 36.9319 28.4192 36.9319 28.4973C36.9319 28.5755 37.0389 28.5911 37.0389 28.5911L37.1762 28.5754L37.2222 28.6844H37.3598L37.4058 28.7779H37.6811L37.6964 28.6376L37.4361 28.5911L37.421 28.4348L37.2376 28.388C37.1762 28.123 37.2833 28.0448 37.3598 28.1698L37.4515 28.1851L37.4209 27.9511L37.5279 27.9199L37.4974 27.5922L37.4057 27.5612V27.4519L37.7878 27.4677C37.7575 27.2647 37.8032 27.1711 37.8032 27.1711H37.9103L37.9255 27.2494L38.3934 27.2937L38.7242 26.9123C38.7075 26.8832 38.7574 26.8654 38.7211 26.8279C38.6751 26.7812 38.6138 26.8279 38.537 26.7812C38.4607 26.7346 38.537 26.4692 38.5219 26.4069C38.5067 26.3445 38.7821 26.2506 38.7362 26.3913C38.6903 26.5318 38.7362 26.5941 38.7362 26.5941C38.935 26.4068 39.1032 26.6096 39.088 26.6565C39.0723 26.7032 39.1948 26.7501 39.2712 26.7032C39.3478 26.6565 39.4395 26.8437 39.4089 26.9371C39.3781 27.0307 39.1032 27.0153 39.088 26.9216C39.0723 26.8279 39.0264 26.8592 38.9962 26.9061C38.9654 26.9529 38.828 26.9839 38.7514 26.9371C38.7359 26.9276 38.7285 26.9198 38.7242 26.9123L38.3934 27.2937L38.4148 27.2959C38.5982 27.4052 38.5067 27.5456 38.4456 27.5768C38.3842 27.608 38.2772 27.608 38.2772 27.608L38.2468 27.6705L37.8492 27.7015L37.8184 27.8577C37.6196 27.8262 37.5434 28.0448 37.5892 28.1539C37.6352 28.2629 37.5892 28.3567 37.5892 28.3567L37.7574 28.4348L37.9713 28.3726C38.0021 28.2164 38.1395 28.1851 38.262 28.0917C38.3841 27.9981 38.5832 28.263 38.5218 28.388C38.4607 28.5126 38.4607 28.5595 38.4607 28.5595L38.4758 28.7L38.323 28.7623L38.2008 28.8248L38.1852 28.9029H37.7725L37.6962 28.9807L37.4972 28.9967L37.4358 29.0901L37.2985 29.1058C37.2985 29.1058 37.0689 29.2151 37.1608 29.3398C37.2526 29.4647 36.7786 29.4491 36.6713 29.2773C36.6407 29.4332 36.4725 29.2929 36.4725 29.2929L36.3044 29.246L36.2892 29.0123C36.2586 28.8561 35.968 28.8561 35.9834 28.9654C35.9986 29.0747 35.4326 29.0123 35.4326 29.0123L35.2493 29.1018L35.0809 29.1995L35.0657 29.2773L34.7903 29.3086L34.6681 29.3711L34.6223 29.2774H34.5001L34.3776 29.4492C34.0565 29.4648 33.7507 29.652 33.7812 29.73C33.8119 29.8079 33.6591 29.8863 33.6591 29.8863L33.5213 29.9325L33.4297 30.0731L33.2462 30.1356L33.2154 30.4634L33.1239 30.5256V30.6661L33.0166 30.6971V30.7753L32.8638 30.7908L32.9553 31.0249L33.078 31.0874C33.2921 31.1184 33.2002 31.3839 33.2002 31.3839L33.3224 31.3993L33.3838 31.5708L33.506 31.8204C33.552 32.0079 33.6896 31.961 33.7507 31.9454C33.8119 31.93 33.8729 32.1325 33.8729 32.1325L34.4845 32.1482C34.4845 32.1482 34.4541 32.2107 34.5612 32.2419C34.668 32.2728 35.3715 32.3044 35.4023 32.2575C35.3715 32.117 35.7843 32.0857 35.9528 32.2106C36.1208 32.3352 36.3503 32.2575 36.3503 32.2575L36.5796 32.538L36.7329 32.8814L36.9927 32.9593L37.176 33.0062L37.2374 33.2714L37.3748 33.287L37.4208 33.4588C37.5891 33.5835 37.3748 33.8488 37.3748 33.8488V34.1918L37.4972 34.2543L37.4818 34.3793L37.6809 34.5818L37.9101 34.5977L38.4914 35.2216L38.9499 35.3619L39.0263 35.6116L39.1489 35.596L39.2405 35.5181L39.6074 35.5025L39.7911 35.3307L39.9898 35.2997L41.6873 33.8487L41.5341 33.7551V33.412C41.8094 33.2092 41.8247 32.8502 41.5648 32.819C41.3676 32.7953 41.4579 32.585 41.6415 32.5538L41.7483 32.5072V32.3666L42.1 32.0392V31.7895L41.3357 31.1497C40.9991 31.0251 41.3357 30.2761 41.5648 30.2917C41.7943 30.3071 41.5496 29.1373 41.5496 29.1373L41.4271 29.075L41.4579 28.7004H41.2898L41.0144 29.0594L40.9381 29.3088C40.9074 29.6368 39.9593 29.5741 39.9133 29.5272C39.8674 29.4804 39.5463 29.3401 39.5463 29.3401C39.5463 29.3401 39.3017 29.1373 39.2558 29.1998C39.2099 29.2623 38.9959 29.1216 38.9959 29.1686C38.9959 29.2154 38.7972 29.0595 38.7972 29.0595L38.4914 28.9502L38.7209 28.9033L38.6749 28.7161L39.0722 28.9189C39.1182 28.9811 39.317 28.9658 39.317 28.9658L39.3781 29.0439C39.3781 29.0439 39.5006 29.028 39.5773 29.1218C39.6536 29.2155 40.0511 29.1374 40.0511 29.1374L40.1581 29.2309L40.3262 29.2934L40.8004 29.3091L40.8157 29.0128L40.9075 28.9191L40.8921 28.7317L40.9991 28.6383V28.4824L41.091 28.4512L41.1062 28.1081L41.1825 28.0924V27.3435L40.9532 27.125C40.938 27.2031 40.6933 27.2031 40.6933 27.2031C40.6933 27.2031 40.6322 27.3122 40.5863 27.3122C40.5406 27.3122 40.6475 27.4525 40.6168 27.5462C40.5863 27.6397 40.4639 27.6397 40.4639 27.6397L40.2343 27.7022L40.1732 27.7803H39.9285L39.8981 27.5775L40.1731 27.4994L40.3261 27.4216L40.4027 27.2654C40.4178 27.1096 40.6015 27.125 40.6015 27.125C40.6015 27.125 40.9532 26.8285 40.9684 26.6884C40.9839 26.5479 41.1062 26.1578 41.3201 26.1578H41.7178C41.8706 26.0953 41.8248 25.8926 41.8248 25.8926L42.0236 25.8615L42.0543 25.9707C42.0543 25.9707 42.3296 26.0019 42.36 25.955C42.3908 25.9084 42.4519 25.799 42.5285 25.8459C42.6049 25.8926 42.8495 25.7366 42.8495 25.7366C42.8648 25.6274 43.2471 25.6743 43.2471 25.6743L43.2931 25.5339C43.2931 25.5339 43.0332 25.1751 42.9873 25.1751C42.9413 25.1751 42.6967 24.9565 42.666 25.0346C42.4216 24.9722 42.4367 24.6289 42.4367 24.6289L42.3449 24.4106C42.3449 24.2856 42.1158 24.0205 42.0696 24.0518C41.8401 23.8802 42.0085 23.6774 42.0696 23.6618C42.1307 23.6463 42.2839 23.4278 42.2839 23.4278L42.3602 23.2093L42.6202 23.1315L42.6508 22.9287L42.5134 22.913C42.5134 22.913 42.6661 22.6321 42.7427 22.6321C42.8193 22.6321 43.3239 22.6321 43.3695 22.6008C43.4154 22.5698 43.507 22.3202 43.507 22.2733C43.507 22.2265 43.6297 22.2108 43.6753 22.1952C43.7212 22.1797 43.8282 22.0549 43.8588 21.9924C43.8894 21.9296 43.7826 21.5395 43.7213 21.6019L43.7214 21.6019Z" fill="#0C1318"/>
<path d="M35.25 27.2262C35.2729 27.2031 35.296 27.2965 35.3418 27.2848C35.3874 27.2731 35.4106 27.3667 35.3648 27.3667C35.3188 27.3667 35.3188 27.4253 35.3188 27.4487C35.3188 27.4722 35.3188 27.5305 35.2843 27.5656C35.2499 27.6008 35.2154 27.5773 35.1694 27.5539C35.1237 27.5306 35.1009 27.5306 35.0434 27.5306C34.9861 27.5306 35.0318 27.6242 35.0318 27.6242C35.0318 27.6242 34.7909 27.6125 34.8369 27.5773C34.8828 27.5425 34.9287 27.5305 34.8944 27.507C34.8599 27.4836 34.8944 27.4604 34.8944 27.4136C34.8944 27.3667 35.0091 27.3902 34.9745 27.355C34.9403 27.3198 34.9752 27.1841 35.0318 27.2613L35.0664 27.1792C35.0318 27.1443 35.055 27.1324 34.9861 27.1094C34.9174 27.0859 34.9745 26.9454 34.9745 26.9454L34.9861 26.8518C35.0091 26.7351 35.2383 26.7232 35.2499 26.8284C35.2612 26.9337 35.2499 27.004 35.2499 27.004L35.3188 27.0273C35.3188 27.0273 35.3072 27.0979 35.2499 27.0979C35.1923 27.0979 35.2499 27.1325 35.2154 27.1678L35.25 27.2262L35.25 27.2262Z" fill="#0C1318"/>
<path d="M34.4927 27.3435C34.5272 27.2732 34.6073 26.969 34.6992 27.0627C34.7907 27.1563 34.8482 27.0627 34.8482 27.0627C34.8482 27.0627 34.8941 27.1096 34.8711 27.2032C34.8482 27.2966 34.8251 27.3904 34.7676 27.4021C34.7105 27.4138 34.6645 27.4489 34.596 27.4606C34.5273 27.4724 34.4927 27.3435 34.4927 27.3435V27.3435Z" fill="#0C1318"/>
</svg>
