<svg width="156" height="30" viewBox="0 0 156 30" fill="none" xmlns="http://www.w3.org/2000/svg">
<path d="M51.8185 9.7486H55.9515V21.6201H51.8185V19.4595C51.4181 20.2668 50.8654 20.892 50.1606 21.3352C49.4557 21.7784 48.5907 22 47.5655 22C46.0276 22 44.8822 21.5647 44.1293 20.6941C43.3764 19.8077 43 18.5652 43 16.9665V9.7486H47.1329V16.2542C47.1329 17.8845 47.8378 18.6997 49.2475 18.6997C50.0644 18.6997 50.6972 18.4227 51.1457 17.8687C51.5943 17.2989 51.8185 16.452 51.8185 15.3282V9.7486Z" fill="#0C1318"/>
<path d="M62.1362 21.6201H57.5948L61.968 15.898L57.4747 9.7486H62.3044L64.5151 13.1439L66.6056 9.7486H71.0028L66.7498 15.6606L71.2431 21.6201H66.4134L64.2508 18.3198L62.1362 21.6201Z" fill="#0C1318"/>
<path d="M75.4797 17.7975C75.5277 18.304 75.76 18.7235 76.1765 19.0559C76.609 19.3883 77.1937 19.5545 77.9306 19.5545C79.1801 19.5545 79.8049 19.1825 79.8049 18.4385C79.8049 18.0903 79.6927 17.8133 79.4685 17.6075C79.2602 17.4018 78.8357 17.2593 78.1949 17.1802L75.6479 16.8953C74.4785 16.7686 73.5894 16.4046 72.9807 15.8031C72.372 15.1858 72.0676 14.3627 72.0676 13.3338C72.0676 11.9884 72.5802 10.9912 73.6054 10.3422C74.6467 9.6932 76.0243 9.36872 77.7384 9.36872C79.4845 9.36872 80.8701 9.68529 81.8954 10.3184C82.9206 10.9516 83.4893 11.933 83.6014 13.2626H79.8529C79.7248 12.2812 79.0279 11.7905 77.7624 11.7905C77.1056 11.7905 76.617 11.9013 76.2967 12.1229C75.9923 12.3287 75.8401 12.6057 75.8401 12.9539C75.8401 13.5712 76.3127 13.9274 77.2578 14.0223L79.7328 14.2598C81.1425 14.4022 82.1597 14.7742 82.7844 15.3757C83.4252 15.9614 83.7456 16.824 83.7456 17.9637C83.7456 19.1983 83.289 20.1797 82.3759 20.9078C81.4628 21.6359 79.957 22 77.8585 22C75.8081 22 74.2863 21.6043 73.2931 20.8128C72.2999 20.0214 71.7793 19.0163 71.7312 17.7975H75.4797Z" fill="#0C1318"/>
<path d="M91.1513 21.6201C89.3732 21.6201 88.1237 21.2402 87.4028 20.4804C86.6819 19.7207 86.3215 18.5414 86.3215 16.9427V12.8115H84.207V10.912L86.6579 9.84358L88.364 6.8757H90.4545V9.7486H93.7224V12.8115H90.4545V18.3911H93.3379V21.6201H91.1513Z" fill="#0C1318"/>
<path d="M104.287 9.7486H108.42V21.6201H104.287V19.4595C103.887 20.2668 103.334 20.892 102.629 21.3352C101.925 21.7784 101.06 22 100.034 22C98.4966 22 97.3512 21.5647 96.5983 20.6941C95.8454 19.8077 95.4689 18.5652 95.4689 16.9665V9.7486H99.6019V16.2542C99.6019 17.8845 100.307 18.6997 101.716 18.6997C102.533 18.6997 103.166 18.4227 103.615 17.8687C104.063 17.2989 104.287 16.452 104.287 15.3282V9.7486Z" fill="#0C1318"/>
<path d="M119.764 5H123.897V21.6201H119.764V20.0056C118.883 21.3352 117.481 22 115.559 22C113.684 22 112.291 21.4064 111.378 20.2193C110.481 19.0321 110.032 17.5126 110.032 15.6606C110.032 13.8561 110.489 12.3603 111.402 11.1732C112.315 9.9702 113.7 9.36872 115.559 9.36872C117.481 9.36872 118.883 10.0335 119.764 11.3631V5ZM116.928 18.8184C117.954 18.8184 118.682 18.5731 119.115 18.0824C119.547 17.5759 119.764 16.7765 119.764 15.6844C119.764 14.5922 119.547 13.8007 119.115 13.3101C118.682 12.8035 117.954 12.5503 116.928 12.5503C115.919 12.5503 115.206 12.7956 114.79 13.2863C114.389 13.7612 114.189 14.5605 114.189 15.6844C114.189 16.8082 114.389 17.6155 114.79 18.1061C115.206 18.581 115.919 18.8184 116.928 18.8184Z" fill="#0C1318"/>
<path d="M130.438 21.6201H126.305V9.7486H130.438V21.6201ZM130.51 8.30028H126.233V5.83101H130.51V8.30028Z" fill="#0C1318"/>
<path d="M139.104 22C137.486 22 136.164 21.7072 135.139 21.1215C134.114 20.5358 133.369 19.7682 132.904 18.8184C132.456 17.8687 132.232 16.824 132.232 15.6844C132.232 14.5447 132.456 13.5 132.904 12.5503C133.369 11.6006 134.114 10.8329 135.139 10.2472C136.164 9.66155 137.486 9.36872 139.104 9.36872C140.722 9.36872 142.043 9.66155 143.069 10.2472C144.094 10.8329 144.839 11.6006 145.303 12.5503C145.768 13.5 146 14.5447 146 15.6844C146 16.824 145.768 17.8687 145.303 18.8184C144.839 19.7682 144.094 20.5358 143.069 21.1215C142.043 21.7072 140.722 22 139.104 22ZM136.364 15.6844C136.364 16.8557 136.573 17.6709 136.989 18.1299C137.406 18.5889 138.111 18.8184 139.104 18.8184C140.097 18.8184 140.802 18.5889 141.218 18.1299C141.635 17.6709 141.843 16.8557 141.843 15.6844C141.843 14.513 141.635 13.6979 141.218 13.2388C140.802 12.7798 140.097 12.5503 139.104 12.5503C138.111 12.5503 137.406 12.7798 136.989 13.2388C136.573 13.6979 136.364 14.513 136.364 15.6844Z" fill="#0C1318"/>
<path fill-rule="evenodd" clip-rule="evenodd" d="M2.63477 25.5019V4.49859L13.1359 15.0008L2.63477 25.5019ZM25.4992 27.3653H4.49805L14.9992 16.8641L25.4992 27.3653ZM27.3659 4.49859V25.5041L16.8625 15.0008L27.3659 4.49859ZM30.0004 28.683V1.31747L30.0002 1.29983V3.05176e-05H28.6865C28.6852 -0.000180884 28.6839 -0.000305176 28.6826 -0.000305176C28.6811 -0.000305176 28.6797 -0.000182316 28.6783 3.05176e-05H28.6702V0.00205653L28.6677 0.0028984C28.6634 0.00434266 28.6589 0.00584055 28.6537 0.00636149C28.4915 0.00969482 28.3315 0.0385837 28.1793 0.101917C28.0281 0.164139 27.8948 0.256361 27.7793 0.366361C27.7751 0.371098 27.7697 0.373942 27.7644 0.376742C27.7597 0.379196 27.7551 0.381617 27.7515 0.38525L14.9993 13.1375L2.24814 0.38525C2.24491 0.381474 2.24036 0.379007 2.23565 0.37645C2.23066 0.373742 2.22548 0.370934 2.22148 0.366361C2.10481 0.256361 1.97148 0.164139 1.82148 0.101917C1.66814 0.0385837 1.50703 0.00858371 1.34481 0.00525038C1.33981 0.00525038 1.33537 0.00386149 1.33092 0.0024726L1.33024 0.00226109V3.05176e-05H1.32139C1.31997 -0.000180884 1.31853 -0.000305176 1.31703 -0.000305176C1.3157 -0.000305176 1.3144 -0.000180884 1.31311 3.05176e-05H0.000244141V2.00003H0.000366211V28H0.00012207V30H2.00012V29.9997H28V30H30V28.707C30.0002 28.6991 30.0004 28.6911 30.0004 28.683Z" fill="#31F194"/>
</svg>
